<svg viewBox="0 0 16 16" fill="currentColor" xmlns="http://www.w3.org/2000/svg">
<path d="M8.02479 0C7.74778 0 7.52322 0.223858 7.52322 0.5V3C7.52322 3.27614 7.74778 3.5 8.02479 3.5C8.3018 3.5 8.52636 3.27614 8.52636 3V0.5C8.52636 0.223858 8.3018 0 8.02479 0Z" />
<path d="M6.92134 8.17499C6.63016 8.56206 6.52014 9.06977 6.52009 9.50006C6.52006 9.77621 6.29548 10 6.01847 10C5.74146 9.99998 5.51693 9.7761 5.51696 9.49996C5.51702 8.93024 5.65772 8.18796 6.1188 7.57503C6.59811 6.93787 7.37988 6.50001 8.52626 6.50001C8.80327 6.50001 9.02783 6.72387 9.02783 7.00001C9.02783 7.27615 8.80327 7.50001 8.52626 7.50001C7.66633 7.50001 7.19429 7.81215 6.92134 8.17499Z" />
<path fill-rule="evenodd" clip-rule="evenodd" d="M11.0342 5.99995C9.12433 4.09597 6.92524 4.09612 5.01539 5.99995C3.51068 7.49991 3.51068 8.96134 3.51068 10.9999C3.51068 11.9522 2.74453 13.1059 1.92802 14.065C1.32335 14.7753 1.80381 15.9999 2.7383 15.9999H13.3113C14.2458 15.9999 14.7262 14.7753 14.1216 14.065C13.3051 13.1059 12.5389 11.9522 12.5389 10.9999C12.5389 8.96134 12.5389 7.50001 11.0342 5.99995ZM8.02481 5.57202C7.33061 5.57203 6.54488 5.88947 5.7247 6.70706C4.54247 7.88557 4.51382 8.94299 4.51382 10.9999C4.51382 11.341 4.45084 11.6776 4.34982 12H11.6998C11.5988 11.6776 11.5358 11.341 11.5358 10.9999C11.5358 8.94302 11.5071 7.88566 10.3249 6.70705C9.5047 5.88941 8.71899 5.57201 8.02481 5.57202ZM12.1385 13H3.91108L3.90265 13.0152C3.56544 13.6209 3.12487 14.2046 2.69286 14.7121C2.67974 14.7275 2.66856 14.7486 2.66436 14.7841C2.65967 14.8237 2.66544 14.8737 2.68503 14.9217C2.70471 14.9699 2.72955 14.9933 2.7383 14.9999L13.3121 14.9999C13.3208 14.9933 13.3449 14.9699 13.3646 14.9217C13.3842 14.8737 13.3899 14.8237 13.3852 14.7841C13.381 14.7486 13.3699 14.7275 13.3567 14.7121C12.9247 14.2046 12.4842 13.6209 12.147 13.0152L12.1385 13Z" />
<path d="M15.1476 3.33368C15.3434 3.13842 15.661 3.13842 15.8569 3.33368C16.0528 3.52894 16.0528 3.84552 15.8569 4.04079L14.0836 5.80855C13.8877 6.00382 13.5701 6.00382 13.3743 5.80855C13.1784 5.61329 13.1784 5.29671 13.3743 5.10145L15.1476 3.33368Z" />
<path d="M0.171808 3.35355C0.367683 3.15829 0.685258 3.15829 0.881133 3.35355L2.65444 5.12132C2.85032 5.31658 2.85032 5.63316 2.65444 5.82843C2.45857 6.02369 2.14099 6.02369 1.94512 5.82843L0.171808 4.06066C-0.0240663 3.8654 -0.0240663 3.54882 0.171808 3.35355Z" />
</svg>
