<svg viewBox="0 0 16 16" fill="currentColor" xmlns="http://www.w3.org/2000/svg">
<path d="M6.7091 6.82537C6.5681 6.33935 6.94486 5.85719 7.46564 5.85719H8.53437C9.05514 5.85719 9.4319 6.33935 9.2909 6.82537L8.49933 9.55394C8.43641 9.77082 8.23239 9.92066 8 9.92066C7.76761 9.92066 7.56359 9.77082 7.50067 9.55394L6.7091 6.82537Z"/>
<path d="M8 10.9365C7.42129 10.9365 6.95215 11.3913 6.95215 11.9524C6.95215 12.5134 7.42129 12.9683 8 12.9683C8.57871 12.9683 9.04785 12.5134 9.04785 11.9524C9.04785 11.3913 8.57871 10.9365 8 10.9365Z"/>
<path fill-rule="evenodd" clip-rule="evenodd" d="M6.45336 1.87016C7.13721 0.709949 8.86279 0.709948 9.54664 1.87016L15.7627 12.4162C16.4413 13.5675 15.5838 15 14.216 15H1.78397C0.41622 15 -0.44126 13.5675 0.237336 12.4162L6.45336 1.87016ZM8.63685 2.37417C8.35527 1.89643 7.64473 1.89643 7.36315 2.37417L1.14712 12.9202C0.867701 13.3943 1.22078 13.9841 1.78397 13.9841H14.216C14.7792 13.9841 15.1323 13.3943 14.8529 12.9202L8.63685 2.37417Z"/>
</svg>
