<svg viewBox="0 0 16 16" fill="currentColor" xmlns="http://www.w3.org/2000/svg">
<path d="M12.4177 4.41812L14.0075 5.87618C14.2831 6.1289 14.7057 5.97521 14.7877 5.59242L15.9828 0.546115C16.0644 0.165513 15.8485 -0.0697978 15.5001 0.0185787L10.3739 1.44133C9.98621 1.53967 9.86788 2.07972 10.1728 2.35932L11.6743 3.73634L6.7142 10.8221C6.54635 11.0619 6.20934 11.1069 5.98449 10.9195L4.62875 9.78975C3.96915 9.24008 2.98363 9.35519 2.46847 10.0421L0.100029 13.2C-0.065656 13.4209 -0.0208845 13.7343 0.200029 13.9C0.420943 14.0657 0.734344 14.0209 0.900029 13.8L3.26847 10.6421C3.44019 10.4131 3.7687 10.3747 3.98856 10.558L5.34431 11.6878C6.01887 12.2499 7.02988 12.115 7.53343 11.3956L12.4177 4.41812Z"/>
<path d="M12.5 8C12.2239 8 12 8.22386 12 8.5V15.5C12 15.7761 12.2239 16 12.5 16C12.7762 16 13 15.7761 13 15.5V8.5C13 8.22386 12.7762 8 12.5 8Z"/>
<path d="M9.50003 11C9.22389 11 9.00003 11.2239 9.00003 11.5V15.5C9.00003 15.7761 9.22389 16 9.50003 16C9.77617 16 10 15.7761 10 15.5V11.5C10 11.2239 9.77617 11 9.50003 11Z"/>
<path d="M6.00003 14.5C6.00003 14.2239 6.22389 14 6.50003 14C6.77617 14 7.00003 14.2239 7.00003 14.5V15.5C7.00003 15.7761 6.77617 16 6.50003 16C6.22389 16 6.00003 15.7761 6.00003 15.5V14.5Z"/>
<path d="M3.50003 13C3.22389 13 3.00003 13.2239 3.00003 13.5V15.5C3.00003 15.7761 3.22389 16 3.50003 16C3.77617 16 4.00003 15.7761 4.00003 15.5V13.5C4.00003 13.2239 3.77617 13 3.50003 13Z"/>
</svg>
