<svg viewBox="0 0 16 16" fill="currentColor" xmlns="http://www.w3.org/2000/svg">
<path d="M0.279965 9.15995C-0.210196 9.85997 -0.0400691 10.8248 0.659953 11.315L6.93594 15.7095C7.25852 15.9353 7.63732 16.021 8 15.9792C8.36268 16.021 8.74149 15.9353 9.06406 15.7095L15.34 11.315C16.0401 10.8248 16.2102 9.85997 15.72 9.15995C15.2299 8.45993 14.265 8.2898 13.565 8.77996L8 12.6766L2.43498 8.77996C1.73496 8.2898 0.770125 8.45993 0.279965 9.15995Z"/>
<path d="M0.279965 6.82943C-0.210196 6.12941 -0.0400691 5.16457 0.659953 4.67441L6.93594 0.279876C7.25852 0.0540762 7.63732 -0.0316238 8 0.0101762C8.36268 -0.0316238 8.74149 0.0540762 9.06406 0.279876L15.34 4.67441C16.0401 5.16457 16.2102 6.12941 15.72 6.82943C15.2299 7.52945 14.265 7.69958 13.565 7.20942L8 3.31275L2.43498 7.20942C1.73496 7.69958 0.770125 7.52945 0.279965 6.82943Z"/>
</svg>
