<svg viewBox="0 0 16 16" fill="currentColor" xmlns="http://www.w3.org/2000/svg">
<path d="M0.795715 9.59683C0.573033 9.43353 0.260132 9.48166 0.0968311 9.70435C-0.0664694 9.92703 -0.0183308 10.2399 0.204352 10.4032L7.48768 15.7443C7.79264 15.9679 8.20742 15.9679 8.51239 15.7443L15.7958 10.4032C16.0184 10.2399 16.0666 9.92703 15.9033 9.70435C15.74 9.48166 15.4271 9.43353 15.2044 9.59683L8.00003 14.88L0.795715 9.59683Z"/>
<path d="M0.795715 6.31515C0.573033 6.47845 0.260132 6.43032 0.0968311 6.20763C-0.0664694 5.98495 -0.0183308 5.67205 0.204352 5.50875L7.48768 0.167654C7.79264 -0.055946 8.20742 -0.055946 8.51239 0.167654L15.7958 5.50875C16.0184 5.67205 16.0666 5.98495 15.9033 6.20763C15.74 6.43032 15.4271 6.47845 15.2044 6.31515L8.00003 1.03199L0.795715 6.31515Z"/>
</svg>
