<svg viewBox="0 0 16 16" fill="currentColor" xmlns="http://www.w3.org/2000/svg">
<path d="M0.182035 9.42911C-0.136671 9.88426 -0.0260532 10.5116 0.429106 10.8303L7.37428 15.6934C7.56447 15.8265 7.78472 15.8848 7.99996 15.8742C8.2152 15.8848 8.43545 15.8265 8.62564 15.6934L15.5708 10.8303C16.026 10.5116 16.1366 9.88426 15.8179 9.42911C15.4992 8.97395 14.8718 8.86333 14.4167 9.18204L7.99996 13.6751L1.58324 9.18204C1.12808 8.86333 0.500741 8.97395 0.182035 9.42911Z"/>
<path d="M0.182035 6.44626C-0.136671 5.99111 -0.0260532 5.36376 0.429106 5.04506L7.37428 0.181969C7.56447 0.0488687 7.78472 -0.00943079 7.99996 0.0011692C8.2152 -0.00943079 8.43545 0.0488687 8.62564 0.181969L15.5708 5.04506C16.026 5.36376 16.1366 5.99111 15.8179 6.44626C15.4992 6.90142 14.8718 7.01204 14.4167 6.69333L7.99996 2.2003L1.58324 6.69333C1.12808 7.01204 0.500741 6.90142 0.182035 6.44626Z"/>
</svg>
