<svg  viewBox="0 0 16 16" fill="currentColor" xmlns="http://www.w3.org/2000/svg">
<path d="M15.9741 11.4795C15.363 8.87484 13.4604 5.24583 7.70584 4.47917V2.18235C7.70584 1.70354 7.41588 1.27211 6.97323 1.08958C6.53057 0.906687 6.02122 1.00919 5.68317 1.34829L0.458013 6.59943C-0.152437 7.21304 -0.152788 8.20436 0.457662 8.81797L5.68317 14.0691C6.02052 14.4082 6.53092 14.5107 6.97358 14.3278C7.41623 14.1449 7.70619 13.7135 7.70619 13.235V11.0126C9.66953 11.0151 12.4999 11.2735 14.5135 12.5267C14.848 12.7352 15.2745 12.7215 15.5947 12.4912C15.9141 12.2623 16.0643 11.8628 15.9741 11.4795Z"/>
</svg>
