<svg viewBox="0 0 20 11" fill="currentColor" xmlns="http://www.w3.org/2000/svg">
<path d="M3.33333 5.5C3.33333 4.28497 4.32826 3.3 5.55556 3.3H7.77778C9.00508 3.3 10 4.28497 10 5.5C10 6.71503 9.00508 7.7 7.77778 7.7H5.55556C4.32826 7.7 3.33333 6.71503 3.33333 5.5Z"/>
<path fill-rule="evenodd" clip-rule="evenodd" d="M17.6378 3.3C17.1444 1.40225 15.4043 0 13.3333 0H4.44444C1.98985 0 0 1.96995 0 4.4V6.6C0 9.03005 1.98985 11 4.44444 11H13.3333C15.4043 11 17.1444 9.59775 17.6378 7.7H18.8889C19.5025 7.7 20 7.20751 20 6.6V4.4C20 3.79249 19.5025 3.3 18.8889 3.3H17.6378ZM13.3333 1.1H4.44444C2.6035 1.1 1.11111 2.57746 1.11111 4.4V6.6C1.11111 8.42254 2.6035 9.9 4.44444 9.9H13.3333C15.1743 9.9 16.6667 8.42254 16.6667 6.6V4.4C16.6667 2.57746 15.1743 1.1 13.3333 1.1Z"/>
</svg>
