<svg viewBox="0 0 16 9" fill="currentColor" xmlns="http://www.w3.org/2000/svg">
<path d="M2.66667 4.4C2.66667 3.42798 3.46261 2.64 4.44444 2.64H9.42222C10.4041 2.64 11.2 3.42798 11.2 4.4C11.2 5.37202 10.4041 6.16 9.42222 6.16H4.44444C3.4626 6.16 2.66667 5.37202 2.66667 4.4Z"/>
<path fill-rule="evenodd" clip-rule="evenodd" d="M14.1102 2.64C13.7155 1.1218 12.3234 0 10.6667 0H3.55556C1.59188 0 0 1.57596 0 3.52V5.28C0 7.22404 1.59188 8.8 3.55556 8.8H10.6667C12.3234 8.8 13.7155 7.6782 14.1102 6.16H15.1111C15.602 6.16 16 5.76601 16 5.28V3.52C16 3.03399 15.602 2.64 15.1111 2.64H14.1102ZM10.6667 0.88H3.55556C2.0828 0.88 0.888889 2.06197 0.888889 3.52V5.28C0.888889 6.73803 2.0828 7.92 3.55556 7.92H10.6667C12.1394 7.92 13.3333 6.73803 13.3333 5.28V3.52C13.3333 2.06197 12.1394 0.88 10.6667 0.88Z"/>
</svg>
