<svg viewBox="0 0 16 16" fill="currentColor" xmlns="http://www.w3.org/2000/svg">
<path d="M12.9191 1H3.08091C1.93165 1 1 1.93165 1 3.08091V5.91909C1 6.97868 1.79195 7.8533 2.81622 7.98333L3.14799 9H3.08091C1.37937 9 0 7.62063 0 5.91909V3.08091C0 1.37937 1.37937 0 3.08091 0H12.9191C14.6206 0 16 1.37937 16 3.08091V5.91909C16 7.03879 15.4027 8.01898 14.5093 8.55841L13.8455 7.78292C14.5298 7.44212 15 6.73551 15 5.91909V3.08091C15 1.93165 14.0683 1 12.9191 1Z"/>
<path fill-rule="evenodd" clip-rule="evenodd" d="M7.04278 8.80276C6.92571 7.38032 8.43766 6.39866 9.68937 7.08442L13.4913 9.16731C14.5434 9.74373 14.3244 11.3152 13.1548 11.5821C12.9553 11.6276 12.8569 11.8531 12.9592 12.0303L13.6675 13.2571C14.1582 14.1071 13.867 15.1939 13.0171 15.6846C12.1671 16.1753 11.0803 15.8841 10.5896 15.0342L9.83981 13.7354C9.76999 13.6145 9.60102 13.6002 9.51186 13.7077C8.82499 14.5356 7.47972 14.1117 7.39148 13.0396L7.04278 8.80276ZM9.20889 7.96143C8.65578 7.6584 7.98768 8.09218 8.03941 8.72073L8.38811 12.9576C8.40285 13.1366 8.62753 13.2074 8.74224 13.0692C9.27609 12.4257 10.2878 12.5114 10.7058 13.2354L11.4556 14.5342C11.6702 14.9058 12.1454 15.0331 12.5171 14.8186C12.8887 14.604 13.0161 14.1288 12.8015 13.7571L12.0932 12.5303C11.6543 11.7702 12.0766 10.8023 12.9324 10.6071C13.205 10.5449 13.256 10.1787 13.0108 10.0443L9.20889 7.96143Z"/>
<path d="M5.03148 3.23545C4.80495 3.39337 4.74933 3.70503 4.90725 3.93156L5.80358 5.2173C5.9615 5.44383 6.27316 5.49944 6.49969 5.34152C6.72622 5.1836 6.78184 4.87194 6.62392 4.64541L5.72759 3.35968C5.56967 3.13315 5.25801 3.07753 5.03148 3.23545Z"/>
<path d="M7.87767 3.13501C7.91739 2.86174 8.16859 2.68662 8.43873 2.74388C8.70887 2.80113 8.89566 3.06907 8.85594 3.34234L8.66739 4.63939C8.62767 4.91266 8.37648 5.08778 8.10633 5.03052C7.83619 4.97327 7.6494 4.70533 7.68912 4.43206L7.87767 3.13501Z"/>
<path d="M11.5031 4.2613C11.3452 4.03477 11.0335 3.97915 10.807 4.13707L9.65291 4.94163C9.42638 5.09955 9.37076 5.41121 9.52868 5.63774C9.6866 5.86427 9.99826 5.91989 10.2248 5.76196L11.3789 4.95741C11.6054 4.79948 11.661 4.48783 11.5031 4.2613Z"/>
<path d="M5.33649 7.9882C5.56302 7.83028 5.87468 7.8859 6.0326 8.11243C6.19052 8.33896 6.1349 8.65062 5.90837 8.80854L4.83318 9.55809C4.60665 9.71602 4.29499 9.6604 4.13707 9.43387C3.97915 9.20734 4.03476 8.89568 4.26129 8.73776L5.33649 7.9882Z"/>
<path d="M3.4867 6.19204C3.44698 6.46531 3.63377 6.73325 3.90391 6.79051L5.18611 7.06225C5.45626 7.11951 5.70745 6.94439 5.74717 6.67112C5.7869 6.39785 5.60011 6.12991 5.32997 6.07266L4.04777 5.80091C3.77762 5.74365 3.52643 5.91877 3.4867 6.19204Z" />
</svg>
