<svg viewBox="0 0 16 16" fill="currentColor" xmlns="http://www.w3.org/2000/svg">
<path d="M9 5.5C9 5.22386 9.22386 5 9.5 5H12.5C12.7761 5 13 5.22386 13 5.5C13 5.77614 12.7761 6 12.5 6H9.5C9.22386 6 9 5.77614 9 5.5Z"/>
<path d="M3 7.7C3 7.3134 3.3134 7 3.7 7H4.3C4.6866 7 5 7.3134 5 7.7V8.3C5 8.6866 4.6866 9 4.3 9H3.7C3.3134 9 3 8.6866 3 8.3V7.7Z"/>
<path d="M7.7 7C7.3134 7 7 7.3134 7 7.7V8.3C7 8.6866 7.3134 9 7.7 9H8.3C8.6866 9 9 8.6866 9 8.3V7.7C9 7.3134 8.6866 7 8.3 7H7.7Z" />
<path d="M11 7.7C11 7.3134 11.3134 7 11.7 7H12.3C12.6866 7 13 7.3134 13 7.7V8.3C13 8.6866 12.6866 9 12.3 9H11.7C11.3134 9 11 8.6866 11 8.3V7.7Z" />
<path d="M3.7 11C3.3134 11 3 11.3134 3 11.7V12.3C3 12.6866 3.3134 13 3.7 13H4.3C4.6866 13 5 12.6866 5 12.3V11.7C5 11.3134 4.6866 11 4.3 11H3.7Z" />
<path d="M7 11.7C7 11.3134 7.3134 11 7.7 11H8.3C8.6866 11 9 11.3134 9 11.7V12.3C9 12.6866 8.6866 13 8.3 13H7.7C7.3134 13 7 12.6866 7 12.3V11.7Z" />
<path d="M11.7 11C11.3134 11 11 11.3134 11 11.7V12.3C11 12.6866 11.3134 13 11.7 13H12.3C12.6866 13 13 12.6866 13 12.3V11.7C13 11.3134 12.6866 11 12.3 11H11.7Z" />
<path fill-rule="evenodd" clip-rule="evenodd" d="M3 1C3 0.447715 3.44772 0 4 0H5C5.55228 0 6 0.447715 6 1V2H10V1C10 0.447715 10.4477 0 11 0H12C12.5523 0 13 0.447715 13 1V2C14.6569 2 16 3.34315 16 5V13C16 14.6569 14.6569 16 13 16H3C1.34315 16 0 14.6569 0 13V5C0 3.34315 1.34315 2 3 2V1ZM4 1H5V3H4V1ZM1 6H6.5C6.77614 6 7 5.77614 7 5.5C7 5.22386 6.77614 5 6.5 5H1C1 3.89543 1.89543 3 3 3C3 3.55228 3.44772 4 4 4H5C5.55228 4 6 3.55228 6 3H10C10 3.55228 10.4477 4 11 4H12C12.5523 4 13 3.55228 13 3C14.1046 3 15 3.89543 15 5V13C15 14.1046 14.1046 15 13 15H3C1.89543 15 1 14.1046 1 13V6ZM12 1H11V3H12V1Z" />
</svg>
