<svg  viewBox="0 0 16 16" fill="currentColor" xmlns="http://www.w3.org/2000/svg">
<path d="M1.81177 10.6322L0.441851 9.37465C-0.160817 8.89594 -0.160474 8.06229 0.526025 7.62071C5.84935 4.1244 10.7408 4.12439 15.4493 7.63314C16.2228 8.07222 16.1159 8.90222 15.5343 9.38276L14.1616 10.6428C13.9418 10.8486 13.6481 10.9742 13.3352 10.9961C12.4457 11.0583 11.3829 10.2614 10.947 9.64389C10.6067 9.16168 10.7402 8.48325 10.7408 7.93923C8.94623 7.4877 7.05125 7.48945 5.25571 7.94424C5.25512 8.48826 5.38715 9.16639 5.0458 9.6492C4.60791 10.2686 3.5326 11.0629 2.64143 10.9961C2.32542 10.9724 2.03014 10.8428 1.81177 10.6322Z" />
</svg>
