<svg viewBox="0 0 16 16" fill="currentColor" xmlns="http://www.w3.org/2000/svg">
<path d="M12.3087 0.00275468C12.034 -0.0259808 11.7881 0.173367 11.7594 0.44801C11.7306 0.722653 11.93 0.96859 12.2046 0.997326C13.0367 1.08438 13.8534 1.62092 14.3759 2.39114C14.8951 3.15635 15.0852 4.09308 14.7605 4.95756C14.6634 5.21607 14.7943 5.50435 15.0528 5.60144C15.3113 5.69854 15.5996 5.56769 15.6967 5.30918C16.1582 4.08038 15.8654 2.80538 15.2035 1.82972C14.545 0.859068 13.4826 0.125576 12.3087 0.00275468Z"/>
<path d="M11.289 1.83579C11.0154 1.7979 10.763 1.98893 10.7251 2.26246C10.6872 2.53599 10.8782 2.78844 11.1517 2.82633C11.719 2.90491 12.1719 3.25538 12.4777 3.72099C12.7905 4.19711 12.9071 4.73032 12.8584 5.08185C12.8205 5.35538 13.0115 5.60783 13.2851 5.64572C13.5586 5.68362 13.811 5.49259 13.8489 5.21906C13.9375 4.58005 13.7303 3.80647 13.3135 3.17198C12.8899 2.527 12.2075 1.96304 11.289 1.83579Z" />
<path d="M2.7872 6.03815C2.64913 5.79901 2.73107 5.49321 2.97021 5.35514L4.18319 4.65483C4.42233 4.51676 4.72813 4.5987 4.8662 4.83784C5.00427 5.07699 4.92233 5.38279 4.68319 5.52086L3.47021 6.22117C3.23107 6.35924 2.92527 6.2773 2.7872 6.03815Z" />
<path d="M7.57546 12.7965C7.33632 12.9345 7.25438 13.2403 7.39245 13.4795C7.53052 13.7186 7.83632 13.8006 8.07546 13.6625L8.59544 13.3623C8.83458 13.2242 8.91652 12.9184 8.77845 12.6793C8.64038 12.4401 8.33458 12.3582 8.09544 12.4962L7.57546 12.7965Z"/>
<path fill-rule="evenodd" clip-rule="evenodd" d="M1.24759 4.39967C0.0993882 5.06259 -0.294016 6.53078 0.368898 7.67898L4.45644 14.7588C5.11936 15.907 6.58756 16.3004 7.73576 15.6375L10.5078 14.0371C11.656 13.3742 12.0494 11.906 11.3864 10.7578L7.2989 3.67795C6.63599 2.52975 5.16779 2.13635 4.01959 2.79926L1.24759 4.39967ZM4.51959 3.66528L1.74759 5.2657C1.07768 5.65247 0.848153 6.50908 1.23492 7.17898L4.52859 12.8838L9.72654 9.88274L6.43287 4.17795C6.0461 3.50804 5.1895 3.27851 4.51959 3.66528ZM5.32247 14.2588L5.02859 13.7498L10.2265 10.7488L10.5204 11.2578C10.9072 11.9277 10.6777 12.7843 10.0078 13.1711L7.23576 14.7715C6.56585 15.1583 5.70924 14.9287 5.32247 14.2588Z" />
<path d="M10.0049 3.9314C10.0428 3.65787 10.2952 3.46685 10.5687 3.50474C10.9775 3.56136 11.3171 3.8116 11.537 4.10219C11.7568 4.39278 11.9053 4.78766 11.8487 5.19637C11.8108 5.4699 11.5584 5.66093 11.2849 5.62304C11.0113 5.58515 10.8203 5.33269 10.8582 5.05916C10.8702 4.9726 10.8396 4.8379 10.7395 4.70559C10.6394 4.57327 10.5181 4.50727 10.4315 4.49528C10.158 4.45739 9.96697 4.20493 10.0049 3.9314Z" />
</svg>
