<svg  viewBox="0 0 16 16" fill="currentColor" xmlns="http://www.w3.org/2000/svg">
<path d="M14.0353 8.21131C13.9416 8.27553 13.8234 8.29039 13.7149 8.25716C13.3418 8.14296 13.3157 7.51153 13.6248 7.27354C14.6098 6.51519 15.1587 5.25485 14.9471 3.94136C14.6398 2.03296 12.8436 0.735042 10.9352 1.04239C10.208 1.1595 9.5695 1.49276 9.07463 1.96603C8.94243 2.09246 8.73204 2.09958 8.584 1.99212C8.29372 1.78143 8.24103 1.36512 8.50943 1.1272C9.12666 0.580052 9.90155 0.195969 10.7762 0.0551116C13.2298 -0.34005 15.5393 1.3287 15.9344 3.78236C16.2203 5.55766 15.4258 7.25745 14.0353 8.21131Z" />
<path fill-rule="evenodd" clip-rule="evenodd" d="M4.51151 0.560935C3.76672 -0.18704 2.55919 -0.187041 1.8144 0.560935L0.520488 1.86041C0.0998404 2.28286 -0.0966819 2.85735 0.0463046 3.48344C0.849716 7.00132 4.16561 13.2821 12.3585 15.8706C13.0291 16.0826 13.7177 15.9277 14.2001 15.4433L15.4166 14.2214C16.1614 13.4735 16.1286 12.2968 15.3837 11.5489L14.1018 10.2614C13.357 9.51344 12.2027 9.49772 11.4579 10.2457L11.1097 10.5938C10.775 10.9299 10.184 10.9423 9.84923 10.6062L5.83743 6.59436C5.50268 6.25819 5.48308 5.63806 5.81783 5.30188L6.17873 4.94098C6.92351 4.193 6.96692 3.02688 6.22213 2.2789L4.51151 0.560935ZM2.51365 1.2759C2.8484 0.939716 3.46965 0.931855 3.8044 1.26804L5.51869 2.98234C5.85345 3.31851 5.81444 3.90576 5.47969 4.24194L5.13231 4.59082C4.38753 5.33879 4.38753 6.55151 5.13231 7.29949L9.13552 11.3199C9.8803 12.0678 11.0728 12.0496 11.8176 11.3017L12.165 10.9528C12.4998 10.6166 13.0575 10.6348 13.3923 10.9709L14.6742 12.2584C15.0089 12.5946 15.0469 13.1808 14.7121 13.517L13.493 14.7362C13.2724 14.9577 12.9625 14.97 12.6848 14.8823C4.91594 12.4277 1.81844 6.49472 1.08088 3.26522C1.02846 3.03569 1.02738 2.76302 1.22481 2.56474L2.51365 1.2759Z" />
<path d="M11.4995 2.49995C11.2234 2.49995 10.9995 2.72381 10.9995 2.99995V4.99995C10.9995 5.2761 11.2234 5.49995 11.4995 5.49995H12.9995C13.2757 5.49995 13.4995 5.2761 13.4995 4.99995C13.4995 4.72381 13.2757 4.49995 12.9995 4.49995H11.9995V2.99995C11.9995 2.72381 11.7757 2.49995 11.4995 2.49995Z" />
</svg>
