<svg viewBox="0 0 16 16" fill="currentColor" xmlns="http://www.w3.org/2000/svg">
<path d="M11.2266 12.9385L11.2266 14.7501C11.2802 15.4934 10.6795 16.0937 9.90752 15.9578C3.86923 14.9564 0.63492 11.7221 0.048982 6.08139C-0.14619 5.25368 0.522383 4.72653 1.25307 4.76495H3.06832C3.36189 4.76205 3.6466 4.86581 3.86923 5.05693C4.50221 5.6002 4.63093 6.87698 4.47432 7.61C4.35202 8.18237 3.77505 8.58277 3.3828 8.97425C4.24415 10.4861 5.4984 11.7378 7.01323 12.5975C7.40548 12.206 7.80665 11.6302 8.38013 11.5082C9.11579 11.3516 10.399 11.4904 10.9401 12.1278C11.132 12.3538 11.2339 12.6424 11.2266 12.9385Z"/>
<path d="M11.801 1.92265C7.97569 2.05609 6.37215 4.74054 6.05034 6.56581C5.99963 6.85346 6.34754 6.95351 6.53464 6.72922C8.16231 4.77797 10.7701 4.56873 11.9348 4.93249C12.0493 4.96827 12.1194 5.07786 12.1194 5.19787V6.47575C12.1194 6.74302 12.4425 6.87687 12.6315 6.68789L15.8928 3.42674C16.0155 3.30403 16.0088 3.1031 15.8782 2.98883L12.6114 0.130452C12.4183 -0.0384778 12.116 0.0971462 12.1138 0.35368L12.1031 1.62003C12.1017 1.78471 11.9656 1.91691 11.801 1.92265Z" />
</svg>
