<svg viewBox="0 0 16 16" fill="currentColor" xmlns="http://www.w3.org/2000/svg">
<path fill-rule="evenodd" clip-rule="evenodd" d="M1.82988 0.545109C2.57085 -0.195864 3.7722 -0.195862 4.51318 0.545109L6.22954 2.26147C6.97051 3.00245 6.97051 4.2038 6.22954 4.94477L5.88099 5.29332C5.53881 5.6355 5.53881 6.19029 5.88099 6.53247L9.89763 10.5491C10.2398 10.8913 10.7946 10.8913 11.1368 10.5491L11.4853 10.2006C12.2263 9.45959 13.4277 9.45959 14.1686 10.2006L15.4549 11.4868C16.1959 12.2278 16.1959 13.4292 15.4549 14.1701L14.2343 15.3908C13.7543 15.8707 13.0415 16.0688 12.3747 15.859C4.16082 13.2749 0.837165 7.00527 0.0320664 3.49507C-0.110005 2.87564 0.11299 2.262 0.531613 1.84337L1.82988 0.545109ZM3.7911 1.26718C3.44892 0.925 2.89413 0.925 2.55195 1.26718L1.25369 2.56545C1.05215 2.76698 0.973395 3.03138 1.02739 3.26678C1.76843 6.4977 4.87969 12.4305 12.6812 14.8849C12.9658 14.9745 13.2869 14.894 13.5122 14.6687L14.7328 13.4481C15.075 13.1059 15.075 12.5511 14.7328 12.2089L13.4466 10.9226C13.1044 10.5805 12.5496 10.5805 12.2074 10.9226L11.8589 11.2712C11.1179 12.0122 9.91653 12.0122 9.17556 11.2712L5.15892 7.25454C4.41795 6.51357 4.41795 5.31222 5.15892 4.57125L5.50747 4.2227C5.84965 3.88052 5.84965 3.32573 5.50747 2.98355L3.7911 1.26718Z"/>
<path d="M10.5725 2.51329C10.3037 2.45004 10.0345 2.61668 9.9713 2.88548C9.90805 3.15428 10.0747 3.42346 10.3435 3.48671C11.0193 3.64573 11.4238 3.8611 11.712 4.17262C12.0088 4.49338 12.2333 4.97042 12.4359 5.7585C12.5047 6.02593 12.7773 6.18698 13.0447 6.11819C13.3122 6.04941 13.4732 5.77685 13.4044 5.50941C13.1869 4.66354 12.9103 3.99537 12.4461 3.49354C11.9733 2.98246 11.3568 2.69783 10.5725 2.51329Z"/>
<path d="M10.1018 0.459035C10.1244 0.183821 10.3658 -0.0209436 10.6411 0.001681C13.2409 0.215406 15.3944 2.41506 15.9302 5.09429C15.9844 5.36507 15.8088 5.62849 15.538 5.68264C15.2672 5.7368 15.0038 5.56119 14.9497 5.29041C14.4855 2.96964 12.639 1.1693 10.5591 0.998319C10.2839 0.975694 10.0792 0.734249 10.1018 0.459035Z" />
<path d="M9.49723 4.50001C9.22109 4.50154 8.99848 4.72663 9.00001 5.00277C9.00154 5.27891 9.22663 5.50152 9.50277 5.49999C9.61892 5.49935 9.88555 5.57245 10.1249 5.76419C10.3482 5.94306 10.5 6.18565 10.5 6.5C10.5 6.77614 10.7239 7 11 7C11.2761 7 11.5 6.77614 11.5 6.5C11.5 5.81435 11.1518 5.30555 10.7501 4.98374C10.3644 4.67478 9.88107 4.49788 9.49723 4.50001Z"/>
</svg>
