<svg viewBox="0 0 16 16" fill="currentColor" xmlns="http://www.w3.org/2000/svg">
<path d="M0 1.5C0 0.671573 0.671573 0 1.5 0H2.5C3.32843 0 4 0.671573 4 1.5V2.5C4 3.32843 3.32843 4 2.5 4H1.5C0.671573 4 0 3.32843 0 2.5V1.5Z" />
<path d="M0 7.5C0 6.67157 0.671573 6 1.5 6H2.5C3.32843 6 4 6.67157 4 7.5V8.5C4 9.32843 3.32843 10 2.5 10H1.5C0.671573 10 0 9.32843 0 8.5V7.5Z" />
<path d="M6 1.5C6 0.671573 6.67157 0 7.5 0H8.5C9.32843 0 10 0.671573 10 1.5V2.5C10 3.32843 9.32843 4 8.5 4H7.5C6.67157 4 6 3.32843 6 2.5V1.5Z" />
<path d="M6 7.5C6 6.67157 6.67157 6 7.5 6H8.5C9.32843 6 10 6.67157 10 7.5V8.5C10 9.32843 9.32843 10 8.5 10H7.5C6.67157 10 6 9.32843 6 8.5V7.5Z" />
<path d="M6 13.5C6 12.6716 6.67157 12 7.5 12H8.5C9.32843 12 10 12.6716 10 13.5V14.5C10 15.3284 9.32843 16 8.5 16H7.5C6.67157 16 6 15.3284 6 14.5V13.5Z" />
<path d="M12 1.5C12 0.671573 12.6716 0 13.5 0H14.5C15.3284 0 16 0.671573 16 1.5V2.5C16 3.32843 15.3284 4 14.5 4H13.5C12.6716 4 12 3.32843 12 2.5V1.5Z" />
<path d="M12 7.5C12 6.67157 12.6716 6 13.5 6H14.5C15.3284 6 16 6.67157 16 7.5V8.5C16 9.32843 15.3284 10 14.5 10H13.5C12.6716 10 12 9.32843 12 8.5V7.5Z"/>
</svg>
