<svg viewBox="0 0 16 16" fill="currentColor" xmlns="http://www.w3.org/2000/svg">
<path fill-rule="evenodd" clip-rule="evenodd" d="M1.8144 0.560982C2.55919 -0.186994 3.76672 -0.186993 4.51151 0.560982L6.22213 2.27895C6.96692 3.02692 6.92351 4.19305 6.17873 4.94102L5.81783 5.30192C5.48308 5.63811 5.50268 6.25823 5.83743 6.59441L9.84923 10.6062C10.184 10.9424 10.775 10.93 11.1097 10.5938L11.4579 10.2457C12.2027 9.49777 13.357 9.51349 14.1018 10.2614L15.3837 11.5489C16.1286 12.2969 16.1614 13.4736 15.4166 14.2215L14.2001 15.4433C13.7177 15.9277 13.0291 16.0826 12.3585 15.8707C4.16561 13.2822 0.849716 7.00137 0.0463046 3.48349C-0.0966819 2.8574 0.0998404 2.28291 0.520488 1.86046L1.8144 0.560982ZM3.8044 1.26809C3.46965 0.931902 2.8484 0.939763 2.51365 1.27595L1.22481 2.56479C1.02738 2.76307 1.02846 3.03573 1.08088 3.26527C1.81844 6.49476 4.91594 12.4277 12.6848 14.8823C12.9625 14.9701 13.2724 14.9577 13.493 14.7362L14.7121 13.5171C15.0469 13.1809 15.0089 12.5947 14.6742 12.2585L13.3923 10.971C13.0575 10.6348 12.4998 10.6166 12.165 10.9528L11.8176 11.3017C11.0728 12.0497 9.8803 12.0678 9.13552 11.3199L5.13231 7.29953C4.38753 6.55156 4.38753 5.33884 5.13231 4.59086L5.47969 4.24199C5.81444 3.9058 5.85345 3.31856 5.51869 2.98238L3.8044 1.26809Z"/>
<path d="M14.3536 1.64645C14.1583 1.45118 13.8417 1.45118 13.6464 1.64645L11 4.29289V2.5C11 2.22386 10.7761 2 10.5 2C10.2239 2 10 2.22386 10 2.5V5C10 5.55228 10.4477 6 11 6H13.5C13.7761 6 14 5.77614 14 5.5C14 5.22386 13.7761 5 13.5 5H11.7071L14.3536 2.35355C14.5488 2.15829 14.5488 1.84171 14.3536 1.64645Z"/>
</svg>
