<svg viewBox="0 0 16 16" fill="currentColor" xmlns="http://www.w3.org/2000/svg">
<path d="M15.7969 0.119401C16.0166 0.286755 16.059 0.600486 15.8916 0.820138L8.00912 11.1659C7.77992 11.4667 7.35321 11.5311 7.04546 11.3112L3.70326 8.92399C3.47855 8.76348 3.42651 8.45121 3.58701 8.2265C3.74752 8.00179 4.05978 7.94975 4.28449 8.11025L7.38998 10.3284L15.0962 0.214095C15.2635 -0.00555755 15.5773 -0.0479537 15.7969 0.119401Z" />
<path d="M0 5.49998C0 3.56698 1.567 1.99998 3.5 1.99998H8.5C8.77614 1.99998 9 2.22384 9 2.49998C9 2.77612 8.77614 2.99998 8.5 2.99998H3.5C2.11929 2.99998 1 4.11927 1 5.49998V12.5C1 13.8807 2.11929 15 3.5 15H10.5C11.8807 15 13 13.8807 13 12.5V9.49998C13 9.22384 13.2239 8.99998 13.5 8.99998C13.7761 8.99998 14 9.22384 14 9.49998V12.5C14 14.433 12.433 16 10.5 16H3.5C1.567 16 0 14.433 0 12.5V5.49998Z" />
</svg>
