<svg viewBox="0 0 16 16" fill="currentColor" xmlns="http://www.w3.org/2000/svg">
<path d="M9.87398 9C9.95625 8.68038 10 8.3453 10 8C10 7.6547 9.95625 7.31962 9.87398 7H13V6H9.46487C8.77325 4.8044 7.48056 4 6 4C3.79086 4 2 5.79086 2 8C2 10.2091 3.79086 12 6 12C7.48056 12 8.77325 11.1956 9.46487 10H13V9H9.87398Z"/>
<path fill-rule="evenodd" clip-rule="evenodd" d="M0 8C0 4.68629 2.68629 2 6 2H10C13.3137 2 16 4.68629 16 8C16 11.3137 13.3137 14 10 14H6C2.68629 14 0 11.3137 0 8ZM6 3H10C12.7614 3 15 5.23858 15 8C15 10.7614 12.7614 13 10 13H6C3.23858 13 1 10.7614 1 8C1 5.23858 3.23858 3 6 3Z" />
</svg>
