<svg viewBox="0 0 16 16" fill="currentColor" xmlns="http://www.w3.org/2000/svg">
<g clip-path="url(#clip0_5042_6024)">
<path d="M15.5607 2.56066C16.1464 1.97487 16.1464 1.02513 15.5607 0.43934C14.9749 -0.146447 14.0251 -0.146447 13.4393 0.43934L8 5.87868L2.56066 0.43934C1.97487 -0.146447 1.02513 -0.146447 0.43934 0.43934C-0.146447 1.02513 -0.146447 1.97487 0.43934 2.56066L5.87868 8L0.43934 13.4393C-0.146446 14.0251 -0.146446 14.9749 0.43934 15.5607C1.02513 16.1464 1.97487 16.1464 2.56066 15.5607L8 10.1213L13.4393 15.5607C14.0251 16.1464 14.9749 16.1464 15.5607 15.5607C16.1464 14.9749 16.1464 14.0251 15.5607 13.4393L10.1213 8L15.5607 2.56066Z"/>
</g>
</svg>
