<svg  viewBox="0 0 16 16" fill="currentColor" xmlns="http://www.w3.org/2000/svg">
<g clip-path="url(#clip0_5042_6011)">
<path d="M15.8536 0.853553C16.0488 0.658291 16.0488 0.341709 15.8536 0.146447C15.6583 -0.0488155 15.3417 -0.0488155 15.1464 0.146447L8 7.29289L0.853554 0.146447C0.658292 -0.0488155 0.34171 -0.0488155 0.146448 0.146447C-0.0488147 0.341709 -0.0488147 0.658291 0.146448 0.853553L7.29289 8L0.146446 15.1464C-0.0488155 15.3417 -0.0488155 15.6583 0.146446 15.8536C0.341709 16.0488 0.658291 16.0488 0.853554 15.8536L8 8.70711L15.1464 15.8536C15.3417 16.0488 15.6583 16.0488 15.8536 15.8536C16.0488 15.6583 16.0488 15.3417 15.8536 15.1464L8.70711 8L15.8536 0.853553Z"/>
</g>
</svg>
