<svg viewBox="0 0 16 16" fill="currentColor" xmlns="http://www.w3.org/2000/svg">
<path d="M3 1H13C14.1046 1 15 1.89543 15 3V9C15 9.27128 14.946 9.52994 14.8481 9.76582C14.8464 9.90833 14.8393 10.0513 14.8264 10.1942C14.7805 10.7033 14.6657 11.1748 14.4939 11.6022C15.394 11.0844 16 10.113 16 9V3C16 1.34315 14.6569 0 13 0H3C1.34315 0 0 1.34315 0 3V9C0 10.6569 1.34315 12 3 12H7.26788C7.10707 11.6884 6.97762 11.353 6.88393 11H3C1.89543 11 1 10.1046 1 9V3C1 1.89543 1.89543 1 3 1Z"/>
<path d="M6 3.5C6 3.22386 5.77614 3 5.5 3H3.5C3.22386 3 3 3.22386 3 3.5C3 3.77614 3.22386 4 3.5 4H4V8H3.5C3.22386 8 3 8.22386 3 8.5C3 8.77614 3.22386 9 3.5 9H5.5C5.77614 9 6 8.77614 6 8.5C6 8.22386 5.77614 8 5.5 8H5V4H5.5C5.77614 4 6 3.77614 6 3.5Z"/>
<path fill-rule="evenodd" clip-rule="evenodd" d="M14.0576 9.95415C13.6562 11.8162 11.8212 13.0002 9.9592 12.5987C8.09718 12.1972 6.91318 10.3623 7.31467 8.50024C7.71616 6.63822 9.55109 5.45422 11.4131 5.85571C13.2751 6.2572 14.4591 8.09213 14.0576 9.95415ZM13.0801 9.74338C12.795 11.0655 11.4921 11.9062 10.17 11.6211C8.84783 11.3361 8.00712 10.0332 8.2922 8.71101C8.57728 7.38887 9.88019 6.54817 11.2023 6.83324C12.5245 7.11832 13.3652 8.42123 13.0801 9.74338Z"/>
<path d="M13.9237 15.3049L12.3625 12.8854C12.8203 12.6752 13.2364 12.3805 13.587 12.0165L15.1841 14.4917C15.4087 14.8397 15.3086 15.3039 14.9605 15.5285C14.6125 15.7531 14.1483 15.653 13.9237 15.3049Z"/>
</svg>
