<svg viewBox="0 0 16 16" fill="currentColor" xmlns="http://www.w3.org/2000/svg">
<path fill-rule="evenodd" clip-rule="evenodd" d="M9.74264 12C9.0796 12 8.44371 12.2634 7.97487 12.7322L6.0342 14.6729C4.9145 15.7926 3 14.9996 3 13.4161V13C3 12.4477 2.55228 12 2 12C0.895431 12 0 11.1046 0 10V4.5C0 2.567 1.567 1 3.5 1H12.5C14.433 1 16 2.567 16 4.5V8.5C16 10.433 14.433 12 12.5 12H9.74264ZM1 4.5C1 3.11929 2.11929 2 3.5 2H12.5C13.8807 2 15 3.11929 15 4.5V8.5C15 9.88071 13.8807 11 12.5 11H9.74264C8.81438 11 7.92414 11.3687 7.26777 12.0251L5.3271 13.9658C4.83737 14.4555 4 14.1087 4 13.4161V13C4 11.8954 3.10457 11 2 11C1.44772 11 1 10.5523 1 10V4.5Z"/>
</svg>
