<svg viewBox="0 0 20 20" fill="currentColor" xmlns="http://www.w3.org/2000/svg">
<path d="M8.99982 1C8.99982 0.447716 9.44753 0 9.99982 0C10.5521 0 10.9998 0.447715 10.9998 1V6H15.9998C16.5521 6 16.9998 6.44772 16.9998 7C16.9998 7.55228 16.5521 8 15.9998 8H10.9998V13C10.9998 13.5523 10.5521 14 9.99982 14C9.44753 14 8.99982 13.5523 8.99982 13V8H3.99982C3.44753 8 2.99982 7.55228 2.99982 7C2.99982 6.44771 3.44753 6 3.99982 6H8.99982V1Z" />
<path fill-rule="evenodd" clip-rule="evenodd" d="M5.49981 13.5C5.49981 14.6046 4.60438 15.5 3.49981 15.5C2.39525 15.5 1.49981 14.6046 1.49981 13.5C1.49981 12.3954 2.39525 11.5 3.49981 11.5C4.60438 11.5 5.49981 12.3954 5.49981 13.5ZM4.49981 13.5C4.49981 14.0523 4.0521 14.5 3.49981 14.5C2.94753 14.5 2.49981 14.0523 2.49981 13.5C2.49981 12.9477 2.94753 12.5 3.49981 12.5C4.0521 12.5 4.49981 12.9477 4.49981 13.5Z" />
<path fill-rule="evenodd" clip-rule="evenodd" d="M6.98521 19.1492C6.80987 17.0763 5.1197 16.0193 3.50134 16.0003C2.6897 15.9907 1.86209 16.2368 1.2098 16.7658C0.549329 17.3014 0.0955089 18.1063 0.0132808 19.1517C-0.0247039 19.6346 0.369368 20 0.807509 20H6.19212C6.6284 20 7.02639 19.636 6.98521 19.1492ZM5.95924 19H1.03687C1.13914 18.3393 1.44393 17.8634 1.83969 17.5424C2.28817 17.1787 2.88055 16.993 3.48956 17.0002C4.64505 17.0138 5.73875 17.7023 5.95924 19Z" />
<path fill-rule="evenodd" clip-rule="evenodd" d="M16.4998 15.5C17.6044 15.5 18.4998 14.6046 18.4998 13.5C18.4998 12.3954 17.6044 11.5 16.4998 11.5C15.3952 11.5 14.4998 12.3954 14.4998 13.5C14.4998 14.6046 15.3952 15.5 16.4998 15.5ZM16.4998 14.5C17.0521 14.5 17.4998 14.0523 17.4998 13.5C17.4998 12.9477 17.0521 12.5 16.4998 12.5C15.9475 12.5 15.4998 12.9477 15.4998 13.5C15.4998 14.0523 15.9475 14.5 16.4998 14.5Z" />
<path fill-rule="evenodd" clip-rule="evenodd" d="M19.9852 19.1492C19.8099 17.0763 18.1197 16.0193 16.5013 16.0003C15.6897 15.9907 14.8621 16.2368 14.2098 16.7658C13.5493 17.3014 13.0955 18.1063 13.0133 19.1517C12.9753 19.6346 13.3694 20 13.8075 20H19.1921C19.6284 20 20.0264 19.636 19.9852 19.1492ZM18.9592 19H14.0369C14.1391 18.3393 14.4439 17.8634 14.8397 17.5424C15.2882 17.1787 15.8806 16.993 16.4896 17.0002C17.6451 17.0138 18.7388 17.7023 18.9592 19Z" />
</svg>
