<svg viewBox="0 0 16 16" fill="currentColor" xmlns="http://www.w3.org/2000/svg">
<path d="M8.00909 12.8C8.99879 12.8 9.93608 12.5759 10.7729 12.1756C10.6421 11.9445 10.5433 11.693 10.4824 11.427C9.73635 11.7939 8.89681 12 8.00909 12C7.12136 12 6.28182 11.7939 5.53582 11.427C5.4749 11.693 5.37607 11.9445 5.24531 12.1756C6.08209 12.5759 7.01938 12.8 8.00909 12.8Z" />
<path d="M1.849 8.16641C1.68805 7.60534 1.60185 7.01273 1.60185 6.4C1.60185 2.86538 4.47047 0 8.00909 0C11.5477 0 14.4163 2.86538 14.4163 6.4C14.4163 7.01273 14.3301 7.60534 14.1692 8.16641C13.9211 8.07672 13.6568 8.021 13.3818 8.00488C13.5338 7.49648 13.6154 6.95776 13.6154 6.4C13.6154 3.30721 11.1054 0.8 8.00909 0.8C4.91279 0.8 2.40275 3.30721 2.40275 6.4C2.40275 6.95776 2.48439 7.49648 2.63637 8.00488C2.36139 8.021 2.09705 8.07672 1.849 8.16641Z" />
<path d="M6.80773 2.8C6.80773 2.57909 6.98702 2.4 7.20818 2.4C7.42934 2.4 7.60863 2.57909 7.60863 2.8V7.2H10.4118C10.633 7.2 10.8123 7.37909 10.8123 7.6C10.8123 7.82091 10.633 8 10.4118 8H7.20818C6.98702 8 6.80773 7.82091 6.80773 7.6V2.8Z" />
<path fill-rule="evenodd" clip-rule="evenodd" d="M2.8032 12.4C3.68786 12.4 4.40501 11.6837 4.40501 10.8C4.40501 9.91634 3.68786 9.2 2.8032 9.2C1.91855 9.2 1.20139 9.91634 1.20139 10.8C1.20139 11.6837 1.91855 12.4 2.8032 12.4ZM2.8032 11.6C3.24553 11.6 3.60411 11.2418 3.60411 10.8C3.60411 10.3582 3.24553 10 2.8032 10C2.36088 10 2.0023 10.3582 2.0023 10.8C2.0023 11.2418 2.36088 11.6 2.8032 11.6Z"/>
<path fill-rule="evenodd" clip-rule="evenodd" d="M5.59468 15.3194C5.45424 13.6611 4.10057 12.8155 2.80442 12.8002C2.15438 12.7926 1.49154 12.9894 0.969119 13.4126C0.440146 13.8411 0.0766791 14.485 0.0108222 15.3214C-0.0195999 15.7077 0.296014 16 0.646923 16H4.95949C5.3089 16 5.62765 15.7088 5.59468 15.3194ZM4.77297 15.2H0.830621C0.912525 14.6714 1.15664 14.2907 1.47361 14.034C1.83279 13.743 2.30723 13.5944 2.79499 13.6002C3.72043 13.611 4.59638 14.1618 4.77297 15.2Z" />
<path fill-rule="evenodd" clip-rule="evenodd" d="M13.215 12.4C14.0996 12.4 14.8168 11.6837 14.8168 10.8C14.8168 9.91634 14.0996 9.2 13.215 9.2C12.3303 9.2 11.6132 9.91634 11.6132 10.8C11.6132 11.6837 12.3303 12.4 13.215 12.4ZM13.215 11.6C13.6573 11.6 14.0159 11.2418 14.0159 10.8C14.0159 10.3582 13.6573 10 13.215 10C12.7726 10 12.4141 10.3582 12.4141 10.8C12.4141 11.2418 12.7726 11.6 13.215 11.6Z" />
<path fill-rule="evenodd" clip-rule="evenodd" d="M16.0064 15.3194C15.866 13.6611 14.5123 12.8155 13.2162 12.8002C12.5661 12.7926 11.9033 12.9894 11.3809 13.4126C10.8519 13.8411 10.4884 14.485 10.4226 15.3214C10.3922 15.7077 10.7078 16 11.0587 16H15.3712C15.7207 16 16.0394 15.7088 16.0064 15.3194ZM15.1847 15.2H11.2424C11.3243 14.6714 11.5684 14.2907 11.8854 14.034C12.2446 13.743 12.719 13.5944 13.2068 13.6002C14.1322 13.611 15.0081 14.1618 15.1847 15.2Z" />
</svg>
