<svg  viewBox="0 0 16 16" fill="currentColor" xmlns="http://www.w3.org/2000/svg">
<path d="M8.00909 3.2C8.89374 3.2 9.6109 2.48366 9.6109 1.6C9.6109 0.716344 8.89374 0 8.00909 0C7.12443 0 6.40728 0.716344 6.40728 1.6C6.40728 2.48366 7.12443 3.2 8.00909 3.2Z" />
<path fill-rule="evenodd" clip-rule="evenodd" d="M2.8032 12.4C3.68786 12.4 4.40501 11.6837 4.40501 10.8C4.40501 9.91634 3.68786 9.2 2.8032 9.2C1.91855 9.2 1.20139 9.91634 1.20139 10.8C1.20139 11.6837 1.91855 12.4 2.8032 12.4ZM2.8032 11.6C3.24553 11.6 3.60411 11.2418 3.60411 10.8C3.60411 10.3582 3.24553 10 2.8032 10C2.36088 10 2.0023 10.3582 2.0023 10.8C2.0023 11.2418 2.36088 11.6 2.8032 11.6Z" />
<path fill-rule="evenodd" clip-rule="evenodd" d="M2.80442 12.8002C4.10057 12.8155 5.45424 13.6611 5.59468 15.3194C5.62765 15.7088 5.3089 16 4.95949 16H0.646923C0.296014 16 -0.0195999 15.7077 0.0108222 15.3214C0.0766791 14.485 0.440146 13.8411 0.969119 13.4126C1.49154 12.9894 2.15438 12.7926 2.80442 12.8002ZM0.830621 15.2H4.77297C4.59638 14.1618 3.72043 13.611 2.79499 13.6002C2.30723 13.5944 1.83279 13.743 1.47361 14.034C1.15664 14.2907 0.912525 14.6714 0.830621 15.2Z"/>
<path fill-rule="evenodd" clip-rule="evenodd" d="M14.8168 10.8C14.8168 11.6837 14.0996 12.4 13.215 12.4C12.3303 12.4 11.6132 11.6837 11.6132 10.8C11.6132 9.91634 12.3303 9.2 13.215 9.2C14.0996 9.2 14.8168 9.91634 14.8168 10.8ZM14.0159 10.8C14.0159 11.2418 13.6573 11.6 13.215 11.6C12.7726 11.6 12.4141 11.2418 12.4141 10.8C12.4141 10.3582 12.7726 10 13.215 10C13.6573 10 14.0159 10.3582 14.0159 10.8Z" />
<path fill-rule="evenodd" clip-rule="evenodd" d="M13.2162 12.8002C14.5123 12.8154 15.866 13.6611 16.0064 15.3194C16.0394 15.7088 15.7207 16 15.3712 16H11.0587C10.7078 16 10.3922 15.7077 10.4226 15.3214C10.4884 14.485 10.8519 13.8411 11.3809 13.4126C11.9033 12.9894 12.5661 12.7926 13.2162 12.8002ZM11.2424 15.2H15.1847C15.0081 14.1618 14.1322 13.611 13.2068 13.6001C12.719 13.5944 12.2446 13.743 11.8854 14.034C11.5684 14.2907 11.3243 14.6714 11.2424 15.2Z"/>
<path d="M8.0103 3.6002C9.30646 3.61545 10.6601 4.46106 10.8006 6.11936C10.8335 6.50877 10.5148 6.8 10.1654 6.8H5.8528C5.5019 6.8 5.18628 6.5077 5.2167 6.12136C5.28256 5.28502 5.64603 4.64113 6.175 4.21261C6.69742 3.7894 7.36026 3.59256 8.0103 3.6002Z" />
<path d="M7.60863 10.4V8.4C7.60863 8.17909 7.78792 8 8.00909 8C8.23025 8 8.40954 8.17909 8.40954 8.4V10.4H10.0113C10.2325 10.4 10.4118 10.5791 10.4118 10.8C10.4118 11.0209 10.2325 11.2 10.0113 11.2L6.00682 11.2C5.78566 11.2 5.60637 11.0209 5.60637 10.8C5.60637 10.5791 5.78566 10.4 6.00682 10.4H7.60863Z" />
</svg>
