<svg viewBox="0 0 20 20" fill="currentColor" xmlns="http://www.w3.org/2000/svg">
<path fill-rule="evenodd" clip-rule="evenodd" d="M9.52922 1.62372C9.77489 1.05056 10.0037 1 10.0391 1C10.0744 1 10.3032 1.05056 10.5489 1.62372L12.2138 5.48806L12.2154 5.49173C12.6186 6.40743 13.6765 6.64358 14.504 6.13673L14.5067 6.13508L17.9682 3.98504L17.9695 3.98424C18.3119 3.77007 18.5811 3.65563 18.7735 3.61021C18.8967 3.58115 18.9615 3.58589 18.9885 3.59082C18.9934 3.60729 18.999 3.637 18.9999 3.68657C19.0026 3.83126 18.959 4.06868 18.8208 4.40929L16.5281 10.0001C16.8816 10.0029 17.2228 10.0581 17.544 10.1583L19.7464 4.78797L19.747 4.78632C19.9112 4.3819 20.0059 4.00178 19.9997 3.66804C19.9934 3.32837 19.8763 2.972 19.5493 2.7566C19.2419 2.55413 18.871 2.55973 18.5438 2.63695C18.2074 2.71634 17.8348 2.88908 17.4398 3.13605L13.9818 5.28395L13.9806 5.28469C13.5988 5.51777 13.258 5.37592 13.1312 5.09027L11.468 1.22976C11.184 0.567427 10.7082 0 10.0391 0C9.36994 0 8.89426 0.567013 8.61028 1.22932L6.94689 5.09024C6.82138 5.373 6.48142 5.52017 6.08678 5.28387L2.40253 2.98815C2.04069 2.76181 1.69622 2.60126 1.3834 2.52684C1.0802 2.45472 0.727362 2.44613 0.43196 2.6394C0.116003 2.84611 0.00562112 3.18844 0.000222252 3.50783C-0.00507237 3.82106 0.0845321 4.17498 0.236851 4.54826L0.23724 4.54922L2.53037 10.1361C2.83827 10.0475 3.16359 10 3.5 10C3.51858 10 3.53713 10.0001 3.55565 10.0004L1.16273 4.17046C1.03621 3.86026 0.997986 3.64856 1.00008 3.52473C1.0004 3.50601 1.00147 3.49111 1.00284 3.47944C1.03162 3.47894 1.07932 3.48241 1.15197 3.4997C1.32164 3.54006 1.56267 3.64228 1.87213 3.8359L5.56133 6.1347L5.56756 6.13852C6.40048 6.64078 7.45839 6.41 7.86276 5.49173L7.86435 5.48806L9.52922 1.62372ZM18.9807 3.57328C18.9809 3.57302 18.9823 3.57464 18.9842 3.57891C18.9814 3.57567 18.9805 3.57354 18.9807 3.57328Z" />
<path d="M6.96456 14H13.0354C13.0859 14.3531 13.1891 14.6891 13.3368 15H6.66318C6.81085 14.6891 6.91405 14.3531 6.96456 14Z" />
<path fill-rule="evenodd" clip-rule="evenodd" d="M5.5 13.5C5.5 14.6046 4.60457 15.5 3.5 15.5C2.39543 15.5 1.5 14.6046 1.5 13.5C1.5 12.3954 2.39543 11.5 3.5 11.5C4.60457 11.5 5.5 12.3954 5.5 13.5ZM4.5 13.5C4.5 14.0523 4.05228 14.5 3.5 14.5C2.94772 14.5 2.5 14.0523 2.5 13.5C2.5 12.9477 2.94772 12.5 3.5 12.5C4.05228 12.5 4.5 12.9477 4.5 13.5Z" />
<path fill-rule="evenodd" clip-rule="evenodd" d="M3.50152 16.0003C5.11988 16.0193 6.81005 17.0763 6.9854 19.1492C7.02657 19.636 6.62859 20 6.19231 20H0.807692C0.369552 20 -0.0245202 19.6346 0.0134645 19.1517C0.0956926 18.1063 0.549513 17.3014 1.20998 16.7658C1.86227 16.2368 2.68988 15.9907 3.50152 16.0003ZM1.03706 19H5.95943C5.73894 17.7023 4.64523 17.0138 3.48975 17.0002C2.88074 16.993 2.28835 17.1787 1.83988 17.5425C1.44412 17.8634 1.13932 18.3393 1.03706 19Z" />
<path fill-rule="evenodd" clip-rule="evenodd" d="M18.5 13.5C18.5 14.6046 17.6046 15.5 16.5 15.5C15.3954 15.5 14.5 14.6046 14.5 13.5C14.5 12.3954 15.3954 11.5 16.5 11.5C17.6046 11.5 18.5 12.3954 18.5 13.5ZM17.5 13.5C17.5 14.0523 17.0523 14.5 16.5 14.5C15.9477 14.5 15.5 14.0523 15.5 13.5C15.5 12.9477 15.9477 12.5 16.5 12.5C17.0523 12.5 17.5 12.9477 17.5 13.5Z" />
<path fill-rule="evenodd" clip-rule="evenodd" d="M16.5015 16.0003C18.1199 16.0193 19.8101 17.0763 19.9854 19.1492C20.0266 19.636 19.6286 20 19.1923 20H13.8077C13.3696 20 12.9755 19.6346 13.0135 19.1517C13.0957 18.1063 13.5495 17.3014 14.21 16.7658C14.8623 16.2368 15.6899 15.9907 16.5015 16.0003ZM14.0371 19H18.9594C18.7389 17.7023 17.6452 17.0138 16.4897 17.0002C15.8807 16.993 15.2884 17.1787 14.8399 17.5424C14.4441 17.8634 14.1393 18.3393 14.0371 19Z" />
<path d="M8.5 11C8.22386 11 8 11.2239 8 11.5C8 11.7761 8.22386 12 8.5 12H11.5C11.7761 12 12 11.7761 12 11.5C12 11.2239 11.7761 11 11.5 11H8.5Z" />
</svg>
