<svg viewBox="0 0 20 20" fill="currentColor" xmlns="http://www.w3.org/2000/svg">
<path fill-rule="evenodd" clip-rule="evenodd" d="M2.00012 1.5C2.00012 0.671573 2.67169 0 3.50012 0H16.5001C17.3285 0 18.0001 0.671573 18.0001 1.5V3.5C18.0001 4.32843 17.3285 5 16.5001 5H16.0001V9.00008C15.6547 9.00216 15.3197 9.04748 15.0001 9.13086V5H5.00012V9.11816C4.68793 9.04097 4.36134 9 4.02512 9C4.01678 9 4.00844 9.00002 4.00012 9.00008V5H3.50012C2.67169 5 2.00012 4.32843 2.00012 3.5V1.5ZM17.0001 3.5C17.0001 3.77614 16.7763 4 16.5001 4H3.50012C3.22397 4 3.00012 3.77614 3.00012 3.5V1.5C3.00012 1.22386 3.22397 1 3.50012 1H16.5001C16.7763 1 17.0001 1.22386 17.0001 1.5V3.5Z"/>
<path d="M7.92389 13.9978H12.1263C12.0439 13.6788 12.0001 13.3445 12.0001 13L12.0001 12.9978H8.05011L8.05012 13C8.05012 13.3445 8.00629 13.6788 7.92389 13.9978Z"/>
<path d="M8.00012 6C8.00012 5.72386 7.77626 5.5 7.50012 5.5C7.22397 5.5 7.00012 5.72386 7.00012 6V10C7.00012 10.2761 7.22397 10.5 7.50012 10.5C7.77626 10.5 8.00012 10.2761 8.00012 10V6Z"/>
<path d="M10.5001 6C10.5001 5.72386 10.2763 5.5 10.0001 5.5C9.72397 5.5 9.50012 5.72386 9.50012 6V11.5C9.50012 11.7761 9.72397 12 10.0001 12C10.2763 12 10.5001 11.7761 10.5001 11.5V6Z"/>
<path d="M13.0001 6C13.0001 5.72386 12.7763 5.5 12.5001 5.5C12.224 5.5 12.0001 5.72386 12.0001 6V10C12.0001 10.2761 12.224 10.5 12.5001 10.5C12.7763 10.5 13.0001 10.2761 13.0001 10V6Z"/>
<path fill-rule="evenodd" clip-rule="evenodd" d="M3.48907 11.5C2.3845 11.5 1.48907 12.3954 1.48907 13.5C1.48907 14.6046 2.3845 15.5 3.48907 15.5C4.59364 15.5 5.48907 14.6046 5.48907 13.5C5.48907 12.3954 4.59364 11.5 3.48907 11.5ZM2.48907 13.5C2.48907 12.9477 2.93679 12.5 3.48907 12.5C4.04136 12.5 4.48907 12.9477 4.48907 13.5C4.48907 14.0523 4.04136 14.5 3.48907 14.5C2.93679 14.5 2.48907 14.0523 2.48907 13.5Z"/>
<path fill-rule="evenodd" clip-rule="evenodd" d="M16.5001 11.5C15.3955 11.5 14.5001 12.3954 14.5001 13.5C14.5001 14.6046 15.3955 15.5 16.5001 15.5C17.6047 15.5 18.5001 14.6046 18.5001 13.5C18.5001 12.3954 17.6047 11.5 16.5001 11.5ZM15.5001 13.5C15.5001 12.9477 15.9478 12.5 16.5001 12.5C17.0524 12.5 17.5001 12.9477 17.5001 13.5C17.5001 14.0523 17.0524 14.5 16.5001 14.5C15.9478 14.5 15.5001 14.0523 15.5001 13.5Z"/>
<path fill-rule="evenodd" clip-rule="evenodd" d="M6.97447 19.1492C6.79913 17.0763 5.10895 16.0193 3.4906 16.0003C2.67896 15.9907 1.85135 16.2368 1.19906 16.7658C0.538587 17.3014 0.0847667 18.1063 0.00253857 19.1517C-0.0354462 19.6346 0.358626 20 0.796766 20H6.18138C6.61766 20 7.01564 19.636 6.97447 19.1492ZM1.02613 19C1.12839 18.3393 1.43319 17.8634 1.82895 17.5424C2.27742 17.1787 2.86981 16.993 3.47882 17.0002C4.63431 17.0138 5.72801 17.7023 5.9485 19H1.02613Z"/>
<path fill-rule="evenodd" clip-rule="evenodd" d="M19.9855 19.1492C19.8102 17.0763 18.12 16.0193 16.5016 16.0003C15.69 15.9907 14.8624 16.2368 14.2101 16.7658C13.5496 17.3014 13.0958 18.1063 13.0136 19.1517C12.9756 19.6346 13.3697 20 13.8078 20H19.1924C19.6287 20 20.0267 19.636 19.9855 19.1492ZM18.9595 19H14.0372C14.1394 18.3393 14.4442 17.8634 14.84 17.5424C15.2885 17.1787 15.8809 16.993 16.4899 17.0002C17.6453 17.0138 18.7391 17.7023 18.9595 19Z"/>
</svg>
