<svg viewBox="0 0 16 16" fill="currentColor" xmlns="http://www.w3.org/2000/svg">
<path d="M0 8C0 12.2554 3.3225 15.7348 7.51488 15.9855C7.21712 15.6507 6.95629 15.2823 6.73878 14.8867C3.47475 14.2928 1 11.4354 1 8C1 4.13401 4.13401 1 8 1C11.4354 1 14.2928 3.47475 14.8867 6.73878C15.2823 6.95629 15.6507 7.21712 15.9855 7.51488C15.7348 3.3225 12.2554 0 8 0C3.58172 0 0 3.58172 0 8Z" />
<path d="M14.0537 10.6464C14.249 10.8417 14.249 11.1583 14.0537 11.3536L12.1573 13.25C11.7668 13.6405 11.1336 13.6405 10.7431 13.25L9.84664 12.3536C9.65138 12.1583 9.65138 11.8417 9.84664 11.6464C10.0419 11.4512 10.3585 11.4512 10.5537 11.6464L11.4502 12.5429L13.3466 10.6464C13.5419 10.4512 13.8585 10.4512 14.0537 10.6464Z"/>
<path fill-rule="evenodd" clip-rule="evenodd" d="M16 12C16 14.2091 14.2091 16 12 16C9.79086 16 8 14.2091 8 12C8 9.79086 9.79086 8 12 8C14.2091 8 16 9.79086 16 12ZM15 12C15 13.6569 13.6569 15 12 15C10.3431 15 9 13.6569 9 12C9 10.3431 10.3431 9 12 9C13.6569 9 15 10.3431 15 12Z"/>
<path d="M8.5 4C8.5 3.72386 8.27614 3.5 8 3.5C7.72386 3.5 7.5 3.72386 7.5 4V7.58579C7.5 7.71839 7.44732 7.84557 7.35355 7.93934L5.14645 10.1464C4.95118 10.3417 4.95118 10.6583 5.14645 10.8536C5.34171 11.0488 5.65829 11.0488 5.85355 10.8536L8.06066 8.64645C8.34196 8.36514 8.5 7.98361 8.5 7.58579V4Z"/>
</svg>
