<svg viewBox="0 0 16 16" fill="currentColor" xmlns="http://www.w3.org/2000/svg">
<path fill-rule="evenodd" clip-rule="evenodd" d="M2.79441 3.2C3.67907 3.2 4.39622 2.48366 4.39622 1.6C4.39622 0.716344 3.67907 0 2.79441 0C1.90976 0 1.1926 0.716344 1.1926 1.6C1.1926 2.48366 1.90976 3.2 2.79441 3.2ZM2.79441 2.4C3.23674 2.4 3.59532 2.04183 3.59532 1.6C3.59532 1.15817 3.23674 0.8 2.79441 0.8C2.35209 0.8 1.99351 1.15817 1.99351 1.6C1.99351 2.04183 2.35209 2.4 2.79441 2.4Z" />
<path fill-rule="evenodd" clip-rule="evenodd" d="M8.00029 7.2C8.88494 7.2 9.6021 6.48365 9.6021 5.6C9.6021 4.71634 8.88494 4 8.00029 4C7.11563 4 6.39848 4.71634 6.39848 5.6C6.39848 6.48365 7.11563 7.2 8.00029 7.2ZM8.00029 6.4C8.44262 6.4 8.80119 6.04183 8.80119 5.6C8.80119 5.15817 8.44262 4.8 8.00029 4.8C7.55796 4.8 7.19938 5.15817 7.19938 5.6C7.19938 6.04183 7.55796 6.4 8.00029 6.4Z" />
<path fill-rule="evenodd" clip-rule="evenodd" d="M4.39622 10.8C4.39622 11.6837 3.67907 12.4 2.79441 12.4C1.90976 12.4 1.1926 11.6837 1.1926 10.8C1.1926 9.91634 1.90976 9.2 2.79441 9.2C3.67907 9.2 4.39622 9.91634 4.39622 10.8ZM3.59532 10.8C3.59532 11.2418 3.23674 11.6 2.79441 11.6C2.35209 11.6 1.99351 11.2418 1.99351 10.8C1.99351 10.3582 2.35209 10 2.79441 10C3.23674 10 3.59532 10.3582 3.59532 10.8Z" />
<path fill-rule="evenodd" clip-rule="evenodd" d="M5.58589 15.3194C5.44545 13.6611 4.09178 12.8154 2.79563 12.8002C2.14559 12.7926 1.48275 12.9894 0.96033 13.4126C0.431357 13.8411 0.06789 14.485 0.00203315 15.3214C-0.028389 15.7077 0.287225 16 0.638134 16H4.9507C5.30011 16 5.61886 15.7088 5.58589 15.3194ZM4.76418 15.2H0.821832C0.903736 14.6714 1.14785 14.2907 1.46482 14.034C1.824 13.743 2.29845 13.5944 2.7862 13.6002C3.71164 13.611 4.58759 14.1618 4.76418 15.2Z" />
<path fill-rule="evenodd" clip-rule="evenodd" d="M13.2062 12.4C14.0908 12.4 14.808 11.6837 14.808 10.8C14.808 9.91634 14.0908 9.2 13.2062 9.2C12.3215 9.2 11.6044 9.91634 11.6044 10.8C11.6044 11.6837 12.3215 12.4 13.2062 12.4ZM13.2062 11.6C13.6485 11.6 14.0071 11.2418 14.0071 10.8C14.0071 10.3582 13.6485 10 13.2062 10C12.7638 10 12.4053 10.3582 12.4053 10.8C12.4053 11.2418 12.7638 11.6 13.2062 11.6Z" />
<path fill-rule="evenodd" clip-rule="evenodd" d="M15.9976 15.3194C15.8572 13.6611 14.5035 12.8154 13.2074 12.8002C12.5573 12.7926 11.8945 12.9894 11.3721 13.4126C10.8431 13.8411 10.4796 14.485 10.4138 15.3214C10.3834 15.7077 10.699 16 11.0499 16H15.3625C15.7119 16 16.0306 15.7088 15.9976 15.3194ZM15.1759 15.2H11.2336C11.3155 14.6714 11.5596 14.2907 11.8766 14.034C12.2358 13.743 12.7102 13.5944 13.198 13.6002C14.1234 13.611 14.9993 14.1618 15.1759 15.2Z" />
<path fill-rule="evenodd" clip-rule="evenodd" d="M10.7918 10.1194C10.6513 8.46106 9.29766 7.61545 8.00151 7.6002C7.35146 7.59256 6.68863 7.7894 6.1662 8.21261C5.63723 8.64113 5.27376 9.28502 5.20791 10.1214C5.17748 10.5077 5.4931 10.8 5.84401 10.8H10.1566C10.506 10.8 10.8247 10.5088 10.7918 10.1194ZM9.97006 10H6.02771C6.10961 9.47144 6.35372 9.09072 6.67069 8.83395C7.02987 8.54298 7.50432 8.39441 7.99208 8.40015C8.91751 8.41103 9.79346 8.96182 9.97006 10Z" />
<path fill-rule="evenodd" clip-rule="evenodd" d="M5.58589 6.11937C5.44545 4.46107 4.09178 3.61545 2.79563 3.60021C2.14559 3.59256 1.48275 3.7894 0.96033 4.21261C0.431357 4.64113 0.06789 5.28502 0.00203315 6.12136C-0.028389 6.5077 0.287225 6.8 0.638134 6.8H4.9507C5.30011 6.8 5.61886 6.50877 5.58589 6.11937ZM4.76418 6H0.821832C0.903736 5.47144 1.14785 5.09073 1.46482 4.83396C1.824 4.54298 2.29845 4.39442 2.7862 4.40015C3.71164 4.41104 4.58759 4.96182 4.76418 6Z" />
<path fill-rule="evenodd" clip-rule="evenodd" d="M13.2062 3.2C14.0908 3.2 14.808 2.48366 14.808 1.6C14.808 0.716344 14.0908 0 13.2062 0C12.3215 0 11.6044 0.716344 11.6044 1.6C11.6044 2.48366 12.3215 3.2 13.2062 3.2ZM13.2062 2.4C13.6485 2.4 14.0071 2.04183 14.0071 1.6C14.0071 1.15817 13.6485 0.8 13.2062 0.8C12.7638 0.8 12.4053 1.15817 12.4053 1.6C12.4053 2.04183 12.7638 2.4 13.2062 2.4Z" />
<path fill-rule="evenodd" clip-rule="evenodd" d="M15.9976 6.11937C15.8572 4.46107 14.5035 3.61545 13.2074 3.60021C12.5573 3.59256 11.8945 3.7894 11.3721 4.21261C10.8431 4.64113 10.4796 5.28502 10.4138 6.12136C10.3834 6.5077 10.699 6.8 11.0499 6.8H15.3625C15.7119 6.8 16.0306 6.50877 15.9976 6.11937ZM15.1759 6H11.2336C11.3155 5.47144 11.5596 5.09073 11.8766 4.83396C12.2358 4.54298 12.7102 4.39442 13.198 4.40015C14.1234 4.41104 14.9993 4.96182 15.1759 6Z" />
</svg>
