<svg viewBox="0 0 16 16" fill="currentColor" xmlns="http://www.w3.org/2000/svg">
<path fill-rule="evenodd" clip-rule="evenodd" d="M7.9998 0.5C7.9998 0.223858 8.22366 0 8.4998 0H12.4998C14.4328 0 15.9998 1.567 15.9998 3.5V12.5C15.9998 14.433 14.4328 16 12.4998 16H5.4998L5.49608 16L2.26062 16C1.49034 16 0.783915 15.6365 0.374603 15.0854C-0.0491373 14.5148 -0.151927 13.7319 0.344454 13.0289C1.57947 11.2797 3.65898 10.7868 5.47077 11.1601C7.27217 11.5313 8.94899 12.7909 9.32373 14.7068C9.34366 14.8087 9.34919 14.9067 9.34228 15H12.4998C13.8805 15 14.9998 13.8807 14.9998 12.5V3.5C14.9998 2.11929 13.8805 1 12.4998 1H8.4998C8.22366 1 7.9998 0.776142 7.9998 0.5ZM5.26895 12.1396C3.7506 11.8267 2.11539 12.2544 1.16136 13.6057C0.944927 13.9122 0.978055 14.2207 1.17741 14.4891C1.39119 14.777 1.79503 15 2.26062 15L8.1997 15C8.2572 15 8.30156 14.976 8.32487 14.9512C8.33575 14.9396 8.34023 14.93 8.34203 14.9242C8.34348 14.9195 8.34494 14.9121 8.34232 14.8987C8.06639 13.488 6.79768 12.4546 5.26895 12.1396Z"/>
<path fill-rule="evenodd" clip-rule="evenodd" d="M7.9998 7C7.9998 8.65685 6.65665 10 4.9998 10C3.34294 10 1.9998 8.65685 1.9998 7C1.9998 5.34315 3.34294 4 4.9998 4C6.65665 4 7.9998 5.34315 7.9998 7ZM6.9998 7C6.9998 8.10457 6.10437 9 4.9998 9C3.89523 9 2.9998 8.10457 2.9998 7C2.9998 5.89543 3.89523 5 4.9998 5C6.10437 5 6.9998 5.89543 6.9998 7Z"/>
<path d="M8.9998 2.7C8.9998 2.3134 9.3132 2 9.6998 2H10.2998C10.6864 2 10.9998 2.3134 10.9998 2.7V3.3C10.9998 3.6866 10.6864 4 10.2998 4H9.6998C9.3132 4 8.9998 3.6866 8.9998 3.3V2.7Z"/>
<path d="M9.6998 5C9.3132 5 8.9998 5.3134 8.9998 5.7V6.3C8.9998 6.6866 9.3132 7 9.6998 7H10.2998C10.6864 7 10.9998 6.6866 10.9998 6.3V5.7C10.9998 5.3134 10.6864 5 10.2998 5H9.6998Z"/>
<path d="M8.9998 8.7C8.9998 8.3134 9.3132 8 9.6998 8H10.2998C10.6864 8 10.9998 8.3134 10.9998 8.7V9.3C10.9998 9.6866 10.6864 10 10.2998 10H9.6998C9.3132 10 8.9998 9.6866 8.9998 9.3V8.7Z"/>
<path d="M12.6998 2C12.3132 2 11.9998 2.3134 11.9998 2.7V3.3C11.9998 3.6866 12.3132 4 12.6998 4H13.2998C13.6864 4 13.9998 3.6866 13.9998 3.3V2.7C13.9998 2.3134 13.6864 2 13.2998 2H12.6998Z" />
<path d="M11.9998 5.7C11.9998 5.3134 12.3132 5 12.6998 5H13.2998C13.6864 5 13.9998 5.3134 13.9998 5.7V6.3C13.9998 6.6866 13.6864 7 13.2998 7H12.6998C12.3132 7 11.9998 6.6866 11.9998 6.3V5.7Z" />
<path d="M12.6998 8C12.3132 8 11.9998 8.3134 11.9998 8.7V9.3C11.9998 9.6866 12.3132 10 12.6998 10H13.2998C13.6864 10 13.9998 9.6866 13.9998 9.3V8.7C13.9998 8.3134 13.6864 8 13.2998 8H12.6998Z" />
</svg>
