<svg viewBox="0 0 16 16" fill="currentColor" xmlns="http://www.w3.org/2000/svg">
<path d="M3 0C1.34315 0 0 1.34315 0 3V6C0 7.65685 1.34315 9 3 9H5C6.65685 9 8 7.65685 8 6V3C8 1.34315 6.65685 0 5 0H3Z"/>
<path d="M2 11C0.895431 11 0 11.8954 0 13V14C0 15.1046 0.895431 16 2 16H6C7.10457 16 8 15.1046 8 14V13C8 11.8954 7.10457 11 6 11H2Z"/>
<path d="M10 10C10 8.89543 10.8954 8 12 8H14C15.1046 8 16 8.89543 16 10V14C16 15.1046 15.1046 16 14 16H12C10.8954 16 10 15.1046 10 14V10Z"/>
<path d="M13 0C11.3431 0 10 1.34315 10 3C10 4.65685 11.3431 6 13 6C14.6569 6 16 4.65685 16 3C16 1.34315 14.6569 0 13 0Z"/>
</svg>
