<svg viewBox="0 0 16 16" fill="currentColor" xmlns="http://www.w3.org/2000/svg">
<path fill-rule="evenodd" clip-rule="evenodd" d="M0 3C0 1.34315 1.34315 0 3 0H5C6.65685 0 8 1.34315 8 3V6C8 7.65685 6.65685 9 5 9H3C1.34315 9 0 7.65685 0 6V3ZM3 1H5C6.10457 1 7 1.89543 7 3V6C7 7.10457 6.10457 8 5 8H3C1.89543 8 1 7.10457 1 6V3C1 1.89543 1.89543 1 3 1Z"/>
<path fill-rule="evenodd" clip-rule="evenodd" d="M0 13C0 11.8954 0.895431 11 2 11H6C7.10457 11 8 11.8954 8 13V14C8 15.1046 7.10457 16 6 16H2C0.895431 16 0 15.1046 0 14V13ZM2 12H6C6.55228 12 7 12.4477 7 13V14C7 14.5523 6.55228 15 6 15H2C1.44772 15 1 14.5523 1 14V13C1 12.4477 1.44772 12 2 12Z"/>
<path fill-rule="evenodd" clip-rule="evenodd" d="M12 8C10.8954 8 10 8.89543 10 10V14C10 15.1046 10.8954 16 12 16H14C15.1046 16 16 15.1046 16 14V10C16 8.89543 15.1046 8 14 8H12ZM15 10C15 9.44771 14.5523 9 14 9H12C11.4477 9 11 9.44772 11 10V14C11 14.5523 11.4477 15 12 15H14C14.5523 15 15 14.5523 15 14V10Z"/>
<path fill-rule="evenodd" clip-rule="evenodd" d="M10 3C10 1.34315 11.3431 0 13 0C14.6569 0 16 1.34315 16 3C16 4.65685 14.6569 6 13 6C11.3431 6 10 4.65685 10 3ZM13 5C11.8954 5 11 4.10457 11 3C11 1.89543 11.8954 1 13 1C14.1046 1 15 1.89543 15 3C15 4.10457 14.1046 5 13 5Z"/>
</svg>
