<svg viewBox="0 0 4 16" fill="currentColor" xmlns="http://www.w3.org/2000/svg">
<path d="M4 2C4 3.10457 3.10457 4 2 4C0.895431 4 0 3.10457 0 2C0 0.895431 0.895431 0 2 0C3.10457 0 4 0.895431 4 2Z"/>
<path d="M4 8.00006C4 9.10463 3.10457 10.0001 2 10.0001C0.895431 10.0001 0 9.10463 0 8.00006C0 6.89549 0.895431 6.00006 2 6.00006C3.10457 6.00006 4 6.89549 4 8.00006Z"/>
<path fill-rule="evenodd" clip-rule="evenodd" d="M4 14.0001C4 15.1047 3.10457 16.0001 2 16.0001C0.895431 16.0001 0 15.1047 0 14.0001C0 12.8956 0.895431 12.0001 2 12.0001C3.10457 12.0001 4 12.8956 4 14.0001ZM3 14.0001C3 14.5524 2.55228 15.0001 2 15.0001C1.44772 15.0001 1 14.5524 1 14.0001C1 13.4478 1.44772 13.0001 2 13.0001C2.55228 13.0001 3 13.4478 3 14.0001Z"/>
</svg>
