<svg viewBox="0 0 6 16" fill="currentColor" xmlns="http://www.w3.org/2000/svg">
<path d="M2 1C2 1.55229 1.55229 2 1 2C0.447716 2 0 1.55229 0 1C0 0.447716 0.447716 0 1 0C1.55229 0 2 0.447716 2 1Z"/>
<path d="M6 1C6 1.55229 5.55229 2 5 2C4.44772 2 4 1.55229 4 1C4 0.447716 4.44772 0 5 0C5.55229 0 6 0.447716 6 1Z"/>
<path d="M2 5.5C2 6.05229 1.55229 6.5 1 6.5C0.447716 6.5 0 6.05229 0 5.5C0 4.94772 0.447716 4.5 1 4.5C1.55229 4.5 2 4.94772 2 5.5Z"/>
<path d="M6 5.5C6 6.05229 5.55229 6.5 5 6.5C4.44772 6.5 4 6.05229 4 5.5C4 4.94772 4.44772 4.5 5 4.5C5.55229 4.5 6 4.94772 6 5.5Z"/>
<path d="M2 10.5C2 11.0523 1.55229 11.5 1 11.5C0.447716 11.5 0 11.0523 0 10.5C0 9.94772 0.447716 9.5 1 9.5C1.55229 9.5 2 9.94772 2 10.5Z"/>
<path d="M6 10.5C6 11.0523 5.55229 11.5 5 11.5C4.44772 11.5 4 11.0523 4 10.5C4 9.94772 4.44772 9.5 5 9.5C5.55229 9.5 6 9.94772 6 10.5Z"/>
<path d="M2 15C2 15.5523 1.55229 16 1 16C0.447716 16 0 15.5523 0 15C0 14.4477 0.447716 14 1 14C1.55229 14 2 14.4477 2 15Z"/>
<path d="M6 15C6 15.5523 5.55229 16 5 16C4.44772 16 4 15.5523 4 15C4 14.4477 4.44772 14 5 14C5.55229 14 6 14.4477 6 15Z"/>
</svg>
