<svg viewBox="0 0 16 16" fill="currentColor" xmlns="http://www.w3.org/2000/svg">
<path d="M10.702 6.53296C10.8908 6.33155 11.2073 6.32135 11.4087 6.51018C11.6102 6.699 11.6204 7.01535 11.4315 7.21675L8.57683 10.261C8.27657 10.5812 7.76818 10.5812 7.46792 10.261L4.61327 7.21675C4.4244 7.01535 4.4346 6.699 4.63606 6.51018C4.83752 6.32135 5.15393 6.33155 5.3428 6.53296L7.49638 8.82959L7.50019 0.499689C7.5003 0.22365 7.72424 -0.00010008 8.00038 3.35827e-08C8.27652 0.000100147 8.5003 0.22395 8.50019 0.50009L8.49636 8.88504L10.702 6.53296Z" fill=""/>
<path d="M2.5 16C1.11929 16 0 14.8809 0 13.5006V10.5012C0 9.12081 1.11929 8.00177 2.5 8.00177C2.77614 8.00177 3 8.22558 3 8.50166C3 8.77774 2.77614 9.00155 2.5 9.00155C1.67157 9.00155 1 9.67297 1 10.5012V13.5006C1 14.3288 1.67157 15.0002 2.5 15.0002H13.5C14.3284 15.0002 15 14.3288 15 13.5006V10.5012C15 9.67297 14.3284 9.00155 13.5 9.00155C13.2239 9.00155 13 8.77774 13 8.50166C13 8.22558 13.2239 8.00177 13.5 8.00177C14.8807 8.00177 16 9.12081 16 10.5012V13.5006C16 14.8809 14.8807 16 13.5 16H2.5Z" fill=""/>
</svg>
