<svg viewBox="0 0 16 16" fill="currentColor" xmlns="http://www.w3.org/2000/svg">
<path d="M12.6363 5.36997C12.8407 5.18422 12.8557 4.86799 12.67 4.66366C12.4842 4.45933 12.168 4.44428 11.9637 4.63003L8.79401 7.51153C8.5059 7.77345 8.5059 8.22655 8.79401 8.48847L11.9637 11.37C12.168 11.5557 12.4842 11.5407 12.67 11.3363C12.8557 11.132 12.8407 10.8158 12.6363 10.63L9.7433 8L12.6363 5.36997Z"/>
<path fill-rule="evenodd" clip-rule="evenodd" d="M4 0C1.79086 0 0 1.79086 0 4V12C0 14.2091 1.79086 16 4 16H12C14.2091 16 16 14.2091 16 12V4C16 1.79086 14.2091 0 12 0H4ZM12 1H6V15H12C13.6569 15 15 13.6569 15 12V4C15 2.34315 13.6569 1 12 1Z"/>
</svg>
