<svg viewBox="0 0 16 16" fill="currentColor" xmlns="http://www.w3.org/2000/svg">
<path d="M15.0794 0.920584C13.8519 -0.30686 11.8618 -0.306862 10.6343 0.920583L10.1242 1.4307C9.87664 1.67827 9.87664 2.07965 10.1242 2.32721L13.6727 5.87567C13.9203 6.12324 14.3217 6.12324 14.5693 5.87567L15.0794 5.36555C16.3069 4.13811 16.3069 2.14803 15.0794 0.920584Z"/>
<path d="M9.39093 2.81685C9.57115 2.99707 9.57115 3.28926 9.39093 3.46948L4.93252 7.92779L5.08041 10.9196L8.07229 11.0675L12.5307 6.60918C12.7109 6.42896 13.0031 6.42896 13.1833 6.60918C13.3636 6.7894 13.3636 7.0816 13.1833 7.26182L8.58023 11.8648C8.48808 11.957 8.36127 12.0059 8.23112 11.9994L4.61734 11.8208C4.38038 11.8091 4.1909 11.6196 4.17919 11.3827L4.00056 7.76897C3.99413 7.63881 4.04302 7.51201 4.13517 7.41987L8.73828 2.81685C8.9185 2.63663 9.2107 2.63663 9.39093 2.81685Z"/>
<path d="M11.287 5.36564C11.4673 5.18542 11.4673 4.89323 11.287 4.71301C11.1068 4.53279 10.8146 4.53279 10.6344 4.71301L6.84198 8.50534C6.66176 8.68556 6.66176 8.97776 6.84198 9.15798C7.02221 9.3382 7.31441 9.3382 7.49463 9.15798L11.287 5.36564Z"/>
<path d="M1 5.5C1 4.11929 2.11929 3 3.5 3H4.83333C5.10948 3 5.33333 2.77614 5.33333 2.5C5.33333 2.22386 5.10948 2 4.83333 2H3.5C1.567 2 0 3.567 0 5.5V12.5C0 14.433 1.567 16 3.5 16H10.5C12.433 16 14 14.433 14 12.5V11.1667C14 10.8905 13.7761 10.6667 13.5 10.6667C13.2239 10.6667 13 10.8905 13 11.1667V12.5C13 13.8807 11.8807 15 10.5 15H3.5C2.11929 15 1 13.8807 1 12.5V5.5Z"/>
</svg>
