<svg viewBox="0 0 16 16" fill="currentColor" xmlns="http://www.w3.org/2000/svg">
<path d="M8.12129 6.65169C7.97484 6.50524 7.97484 6.2678 8.12129 6.12136C8.26774 5.97491 8.50517 5.97491 8.65162 6.12136L10.2426 7.71235L11.8336 6.12136C11.9801 5.97491 12.2175 5.97491 12.3639 6.12136C12.5104 6.2678 12.5104 6.50523 12.3639 6.65169L10.7729 8.24268L12.3639 9.83367C12.5104 9.98012 12.5104 10.2175 12.3639 10.364C12.2175 10.5104 11.9801 10.5104 11.8336 10.364L10.2426 8.77301L8.65162 10.364C8.50517 10.5104 8.26774 10.5104 8.12129 10.364C7.97484 10.2176 7.97484 9.98011 8.12129 9.83367L9.71228 8.24268L8.12129 6.65169Z"/>
<path fill-rule="evenodd" clip-rule="evenodd" d="M6.86628 2C6.5115 2 6.1682 2.12575 5.89736 2.35492L0.579182 6.85492C-0.128933 7.45409 -0.128933 8.5459 0.579182 9.14508L5.89736 13.6451C6.1682 13.8742 6.5115 14 6.86628 14H14.5C15.3284 14 16 13.3284 16 12.5V3.5C16 2.67157 15.3284 2 14.5 2H6.86628ZM6.54331 3.11831C6.63358 3.04192 6.74802 3 6.86628 3H14.5C14.7761 3 15 3.22386 15 3.5V12.5C15 12.7761 14.7761 13 14.5 13H6.86628C6.74802 13 6.63358 12.9581 6.54331 12.8817L1.22512 8.38169C0.989086 8.18197 0.989086 7.81803 1.22512 7.61831L6.54331 3.11831Z"/>
</svg>
