<svg viewBox="0 0 16 16" fill="currentColor" xmlns="http://www.w3.org/2000/svg">
<path d="M12 5.20619C12 5.09457 12.0895 5.00408 12.2 5.00408H13.8C13.9105 5.00408 14 5.09457 14 5.20619V5.81252C14 5.92414 13.9105 6.01463 13.8 6.01463H12.2C12.0895 6.01463 12 5.92414 12 5.81252V5.20619Z" />
<path d="M12.2 7.02518C12.0895 7.02518 12 7.11567 12 7.22729V7.83362C12 7.94524 12.0895 8.03573 12.2 8.03573H13.8C13.9105 8.03573 14 7.94524 14 7.83362V7.22729C14 7.11567 13.9105 7.02518 13.8 7.02518H12.2Z" />
<path d="M12 9.24839C12 9.13676 12.0895 9.04628 12.2 9.04628H13.8C13.9105 9.04628 14 9.13676 14 9.24839V9.85472C14 9.96634 13.9105 10.0568 13.8 10.0568H12.2C12.0895 10.0568 12 9.96634 12 9.85472V9.24839Z" />
<path fill-rule="evenodd" clip-rule="evenodd" d="M0.987161 2.11475L6.48716 0.0926599C7.46548 -0.26702 8.5 0.46511 8.5 1.51714V1.97243H14C15.1046 1.97243 16 2.87731 16 3.99353V12.0779C16 13.1941 15.1046 14.099 14 14.099H8.5V14.4829C8.5 15.5288 7.4767 16.2604 6.50077 15.9123L1.00077 13.9507C0.401052 13.7368 0 13.1639 0 12.5213V3.53923C0 2.90191 0.394493 2.33265 0.987161 2.11475ZM8.5 13.0885H14C14.5523 13.0885 15 12.636 15 12.0779V3.99353C15 3.43542 14.5523 2.98298 14 2.98298H8.5V5.00408H10.8C10.9105 5.00408 11 5.09457 11 5.20619V5.81252C11 5.92414 10.9105 6.01463 10.8 6.01463H8.5V7.02518H10.8C10.9105 7.02518 11 7.11567 11 7.22729V7.83362C11 7.94524 10.9105 8.03573 10.8 8.03573H8.5V9.04628H10.8C10.9105 9.04628 11 9.13676 11 9.24839V9.85472C11 9.96634 10.9105 10.0568 10.8 10.0568H8.5V13.0885ZM3.23184 5.52725L3.81884 6.71364C3.93306 6.94449 4.2623 6.93472 4.36291 6.69748L5.00316 5.18781C5.05043 5.07634 5.15889 5.00407 5.2789 5.00407H5.89297C6.11598 5.00407 6.26103 5.24124 6.1613 5.44281L4.98776 7.81465C4.94454 7.90199 4.94561 8.00502 4.99061 8.09142L6.27721 10.5618C6.38926 10.7769 6.21771 11.0311 5.97861 11.0043L5.25483 10.923C5.14745 10.9109 5.05478 10.8415 5.01222 10.7411L4.3737 9.23552C4.27135 8.99418 3.93445 8.98949 3.82557 9.2279L3.21557 10.5635C3.16654 10.6709 3.0602 10.7396 2.94319 10.7396H2.49829C2.27222 10.7396 2.12738 10.4965 2.23316 10.2946L3.3804 8.10495C3.42956 8.01112 3.42657 7.89814 3.37251 7.8071L2.23249 5.88722C2.12209 5.7013 2.2349 5.46177 2.4473 5.43111L2.92108 5.36271C3.04891 5.34426 3.17409 5.41054 3.23184 5.52725Z"/>
</svg>
