<svg viewBox="0 0 16 16" fill="currentColor" xmlns="http://www.w3.org/2000/svg">
<path fill-rule="evenodd" clip-rule="evenodd" d="M11 8.00001C11 9.65686 9.65686 11 8.00001 11C6.34315 11 5.00001 9.65686 5.00001 8.00001C5.00001 6.34315 6.34315 5.00001 8.00001 5.00001C9.65686 5.00001 11 6.34315 11 8.00001ZM10 8.00001C10 9.10458 9.10458 10 8.00001 10C6.89544 10 6.00001 9.10458 6.00001 8.00001C6.00001 6.89544 6.89544 6.00001 8.00001 6.00001C9.10458 6.00001 10 6.89544 10 8.00001Z" />
<path fill-rule="evenodd" clip-rule="evenodd" d="M15.8648 8.34205C15.9541 8.24672 15.9989 8.12566 16 8.00455C16.0011 7.88543 15.9599 7.76549 15.8749 7.66913C13.9654 5.50498 12.1839 4.21723 10.5248 3.57291C8.85591 2.92485 7.33665 2.93821 5.98501 3.33244C3.48607 4.06129 1.59478 6.09162 0.361969 7.41506C0.283736 7.49905 0.208154 7.58018 0.135237 7.65796C0.0458712 7.75329 0.00107613 7.87435 2.29295e-05 7.99546C-0.00111459 8.11458 0.0400649 8.23452 0.125087 8.33088C2.03463 10.495 3.81608 11.7828 5.47526 12.4271C7.1441 13.0752 8.66336 13.0618 10.015 12.6676C12.5139 11.9387 14.4052 9.90839 15.638 8.58495C15.7163 8.50096 15.7919 8.41983 15.8648 8.34205ZM5.83725 11.4949C4.4524 10.9571 2.89775 9.88259 1.17823 8.00659C2.42854 6.66936 4.10823 4.9215 6.26501 4.29244C7.41336 3.9575 8.7066 3.93962 10.1628 4.50509C11.5476 5.04288 13.1023 6.11742 14.8218 7.99342C13.5715 9.33065 11.8918 11.0785 9.73501 11.7076C8.58665 12.0425 7.29341 12.0604 5.83725 11.4949Z"/>
</svg>
