<svg viewBox="0 0 16 16" fill="currentColor" xmlns="http://www.w3.org/2000/svg">
<path fill-rule="evenodd" clip-rule="evenodd" d="M3 16C1.34315 16 0 14.6569 0 13V3C0 1.34315 1.34315 0 3 0H13C14.6569 0 16 1.34315 16 3V13C16 14.6569 14.6569 16 13 16H3ZM3 1H13C14.1046 1 15 1.89543 15 3V13C15 14.1046 14.1046 15 13 15H11V10.5H12.5L13.5 8H11V6C11 5.49261 11.3785 5.49554 11.8684 5.49933C11.9115 5.49966 11.9554 5.5 12 5.5H13V3H11C9.343 3 8 4.343 8 6V8H6V10.5H8V15H3C1.89543 15 1 14.1046 1 13V3C1 1.89543 1.89543 1 3 1Z"/>
</svg>
