<svg viewBox="0 0 16 16" fill="currentColor" xmlns="http://www.w3.org/2000/svg">
<path fill-rule="evenodd" clip-rule="evenodd" d="M10 12C13.3137 12 16 9.31371 16 6C16 2.68629 13.3137 0 10 0C6.68629 0 4 2.68629 4 6C4 7.47685 4.53358 8.82908 5.41847 9.87442L3.5 11.7929L0.853553 9.14645C0.658291 8.95118 0.341709 8.95118 0.146447 9.14645C-0.0488155 9.34171 -0.0488155 9.65829 0.146447 9.85355L2.79289 12.5L0.146447 15.1464C-0.0488155 15.3417 -0.0488155 15.6583 0.146447 15.8536C0.341709 16.0488 0.658291 16.0488 0.853553 15.8536L3.5 13.2071L6.14645 15.8536C6.34171 16.0488 6.65829 16.0488 6.85355 15.8536C7.04882 15.6583 7.04882 15.3417 6.85355 15.1464L4.20711 12.5L6.12558 10.5815C7.17092 11.4664 8.52315 12 10 12ZM10 11C12.7614 11 15 8.76142 15 6C15 3.23858 12.7614 1 10 1C7.23858 1 5 3.23858 5 6C5 8.76142 7.23858 11 10 11Z"/>
</svg>
