<svg viewBox="0 0 16 16" fill="currentColor" xmlns="http://www.w3.org/2000/svg">
<path fill-rule="evenodd" clip-rule="evenodd" d="M1.5 0C0.671573 0 0 0.671573 0 1.5V3.61102C0 3.9863 0.140677 4.34796 0.394269 4.6246L5.36858 10.0511C5.45311 10.1433 5.5 10.2639 5.5 10.389V14.4707C5.5 15.7886 7.07765 16.4659 8.03312 15.5582L10.0331 13.6582C10.3312 13.375 10.5 12.9819 10.5 12.5707V10.4142C10.5 10.2816 10.5527 10.1544 10.6464 10.0607L15.5607 5.14645C15.842 4.86514 16 4.48361 16 4.08579V1.5C16 0.671573 15.3284 0 14.5 0H1.5ZM15 2.75H7.5C7.22386 2.75 7 2.97386 7 3.25C7 3.52614 7.22386 3.75 7.5 3.75H15V4.08579C15 4.21839 14.9473 4.34557 14.8536 4.43934L9.93934 9.35355C9.65804 9.63486 9.5 10.0164 9.5 10.4142V12.5707C9.5 12.7077 9.44374 12.8388 9.34437 12.9332L7.34438 14.8332C7.02588 15.1358 6.5 14.91 6.5 14.4707V10.389C6.5 10.0137 6.35932 9.65204 6.10573 9.3754L1.13142 3.94888C1.04689 3.85666 1 3.73611 1 3.61102V1.5C1 1.22386 1.22386 1 1.5 1H14.5C14.7761 1 15 1.22386 15 1.5V2.75Z"/>
</svg>
