<svg viewBox="0 0 17 16" fill="currentColor" xmlns="http://www.w3.org/2000/svg">
<path d="M0.158166 0.158287C-0.0370964 0.35355 -0.0370971 0.670131 0.158165 0.865394L15.144 15.8512C15.3393 16.0465 15.6558 16.0465 15.8511 15.8512C16.0464 15.656 16.0464 15.3394 15.8511 15.1441L0.865272 0.158287C0.67001 -0.0369747 0.353428 -0.0369747 0.158166 0.158287Z"/>
<path d="M0.999925 4.39091V4.02783L6.26562 9.29353L6.73348 9.80392C6.97162 10.0637 7.10372 10.4033 7.10372 10.7557V14.5886C7.10372 15.0012 7.59755 15.2132 7.89663 14.929L9.77472 13.1448C9.83664 13.086 9.88074 13.012 9.90339 12.9313L10.5966 13.6245C10.5451 13.6964 10.4866 13.7638 10.4215 13.8257L8.54339 15.6098C7.64616 16.4622 6.16467 15.8262 6.16467 14.5886V10.7557C6.16467 10.6383 6.12064 10.5251 6.04126 10.4385L1.37016 5.34271C1.13203 5.08293 0.999925 4.74332 0.999925 4.39091Z" />
<path d="M14.9481 5.16874L11.6087 8.5081L12.2727 9.1721L15.6121 5.83275C15.8762 5.56859 16.0246 5.21031 16.0246 4.83674V2.40857C16.0246 1.63064 15.394 1 14.6161 1H4.10063L5.03968 1.93905H14.6161C14.8754 1.93905 15.0856 2.14926 15.0856 2.40857V3.58237H8.04276C7.78345 3.58237 7.57324 3.79259 7.57324 4.0519C7.57324 4.31121 7.78345 4.52142 8.04276 4.52142H15.0856V4.83674C15.0856 4.96126 15.0361 5.08069 14.9481 5.16874Z" />
</svg>
