<svg viewBox="0 0 16 16" fill="currentColor" xmlns="http://www.w3.org/2000/svg">
<path d="M16 8C16 9.29771 15.691 10.5232 15.1426 11.6071L14.3924 10.8569C14.7829 9.98449 15 9.0176 15 8C15 4.13401 11.866 1 8 1C6.9824 1 6.01551 1.21714 5.14314 1.60761L4.39293 0.857404C5.47675 0.308987 6.70229 0 8 0C12.4183 0 16 3.58172 16 8Z"/>
<path d="M8 16C9.29771 16 10.5232 15.691 11.6071 15.1426L10.8569 14.3924C9.98449 14.7829 9.0176 15 8 15C6.28757 15 4.71877 14.3851 3.50232 13.3641C3.54136 12.2308 4.06896 11.3882 4.85818 10.8095C5.3308 10.4629 5.90124 10.2093 6.51887 10.0544L4.61274 8.14828C4.88795 8.58672 5.2454 8.96799 5.66338 9.27028C5.16079 9.4509 4.68763 9.69445 4.26682 10.0031C3.46016 10.5946 2.85378 11.4216 2.61327 12.4705C1.6058 11.2579 1 9.69972 1 8C1 6.9824 1.21714 6.01551 1.60761 5.14314L0.857402 4.39294C0.308986 5.47675 0 6.70229 0 8C0 12.4183 3.58172 16 8 16Z"/>
<path d="M6.79052 3.25499L6.04606 2.51053C6.62388 2.18539 7.29036 2 8 2C10.2091 2 12 3.79663 12 6.01289C12 6.7202 11.8176 7.38478 11.4974 7.96185L10.7514 7.21589C10.9113 6.84761 11 6.44083 11 6.01289C11 4.34588 9.65382 3 8 3C7.56995 3 7.16071 3.091 6.79052 3.25499Z"/>
<path d="M2.22611 2.22616C2.03085 2.42142 2.03085 2.738 2.22611 2.93326L13.1264 13.8335C13.3216 14.0288 13.6382 14.0288 13.8335 13.8335C14.0287 13.6383 14.0287 13.3217 13.8335 13.1264L2.93322 2.22616C2.73796 2.0309 2.42137 2.0309 2.22611 2.22616Z"/>
</svg>
