<svg viewBox="0 0 16 16" fill="currentColor" xmlns="http://www.w3.org/2000/svg">
<path d="M3.09466 1.68031L1.99596 0.58161C1.68504 0.270685 1.15413 0.412944 1.04032 0.837675L0.0581557 4.50316C-0.0556505 4.92789 0.333006 5.31655 0.757737 5.20274L4.42322 4.22058C4.84795 4.10677 4.99021 3.57586 4.67929 3.26493L3.92257 2.50821C5.09134 1.64043 6.5132 1.16377 7.98292 1.16011C9.72318 1.15578 11.3997 1.81495 12.6709 3.00338C13.9422 4.19182 14.7127 5.82014 14.8255 7.55675C14.9257 9.09967 14.5 10.625 13.6275 11.8878C13.4454 12.1514 13.4783 12.5157 13.7255 12.7195C13.9727 12.9232 14.3402 12.8891 14.5255 12.6278C15.5841 11.1353 16.1025 9.31914 15.9831 7.48158C15.8512 5.45043 14.9501 3.54593 13.4632 2.15593C11.9763 0.765929 10.0155 -0.00504107 7.98003 2.48076e-05C6.20346 0.0044463 4.48668 0.59978 3.09466 1.68031Z" />
<path d="M7.49996 3.00006C7.22382 3.00006 6.99996 3.22392 6.99996 3.50006V9.49936C6.99996 9.7755 7.22382 10.0001 7.49996 10.0001H11.5C11.7761 10.0001 12 9.7762 12 9.50006C12 9.22392 11.7761 9.00006 11.5 9.00006H7.99996V3.50006C7.99996 3.22392 7.7761 3.00006 7.49996 3.00006Z"/>
<path d="M11.8759 14.9983C12.1562 14.8431 12.2308 14.4817 12.0557 14.2134C11.8806 13.9452 11.5222 13.8721 11.24 14.0238C10.4692 14.4384 9.62577 14.7013 8.75583 14.798C8.43744 14.8334 8.18404 15.0972 8.19234 15.4175C8.20065 15.7377 8.4674 15.9928 8.7862 15.9613C9.87091 15.8542 10.9224 15.5264 11.8759 14.9983Z"/>
<path d="M6.01908 15.751C6.32945 15.8303 6.63168 15.6185 6.68831 15.3032C6.74493 14.9879 6.53433 14.6889 6.22495 14.6057C5.84222 14.5029 5.46915 14.367 5.10995 14.1995C4.8196 14.0642 4.46597 14.1577 4.30651 14.4355C4.14706 14.7134 4.24223 15.07 4.53089 15.2089C5.0078 15.4384 5.50631 15.62 6.01908 15.751Z" />
<path d="M1.25094 11.9337C1.52708 11.9337 1.75094 11.7098 1.75094 11.4337C1.75094 11.1575 1.52708 10.9337 1.25094 10.9337C0.974795 10.9337 0.750937 11.1575 0.750937 11.4337C0.750937 11.7098 0.974795 11.9337 1.25094 11.9337Z"/>
<path d="M3.18014 13.2855C3.18014 13.5616 2.95628 13.7855 2.68014 13.7855C2.40399 13.7855 2.18014 13.5616 2.18014 13.2855C2.18014 13.0093 2.40399 12.7855 2.68014 12.7855C2.95628 12.7855 3.18014 13.0093 3.18014 13.2855Z"/>
</svg>
