<svg viewBox="0 0 16 16" fill="currentColor" xmlns="http://www.w3.org/2000/svg">
<path d="M13.0452 10.61C12.3252 11.38 11.5352 11.86 10.1752 11.86C8.11521 11.86 6.58521 10.27 6.58521 8.25999V8.24C6.58521 6.25 8.08521 4.62 10.2352 4.62C11.5452 4.62 12.3552 5.05999 12.9952 5.7L12.0152 6.83C11.4652 6.33999 10.9352 6.03999 10.2252 6.03999C9.04521 6.03999 8.19522 7.01999 8.19522 8.22V8.24C8.19522 9.43999 9.02522 10.44 10.2252 10.44C11.0252 10.44 11.5152 10.13 12.0652 9.62L13.0452 10.61Z" />
<path d="M4.69576 11.74H3.15576V4.74H4.69576V11.74Z"/>
<path fill-rule="evenodd" clip-rule="evenodd" d="M0 3C0 1.34315 1.34315 0 3 0H13C14.6569 0 16 1.34315 16 3V13C16 14.6569 14.6569 16 13 16H3C1.34315 16 0 14.6569 0 13V3ZM3 1H13C14.1046 1 15 1.89543 15 3V13C15 14.1046 14.1046 15 13 15H3C1.89543 15 1 14.1046 1 13V3C1 1.89543 1.89543 1 3 1Z" />
</svg>
