<svg viewBox="0 0 16 16" fill="currentColor" xmlns="http://www.w3.org/2000/svg">
<path d="M9 1V15H6.5C6.22386 15 6 15.2239 6 15.5C6 15.7761 6.22386 16 6.5 16H12.5C12.7761 16 13 15.7761 13 15.5C13 15.2239 12.7761 15 12.5 15H10V1H12.5C12.7761 1 13 0.776142 13 0.5C13 0.223858 12.7761 0 12.5 0H6.5C6.22386 0 6 0.223858 6 0.5C6 0.776142 6.22386 1 6.5 1H9Z"/>
<path d="M5.5472 7.448C5.4832 7.49067 5.42987 7.5312 5.3872 7.5696C5.40853 7.51413 5.42987 7.45013 5.4512 7.3776C5.4768 7.3008 5.50027 7.224 5.5216 7.1472C5.54293 7.0704 5.56 6.99573 5.5728 6.9232C5.58987 6.8464 5.5984 6.78027 5.5984 6.7248V6.5648H4.7664V6.7248C4.7664 6.78027 4.7728 6.8464 4.7856 6.9232C4.80267 6.99573 4.82187 7.0704 4.8432 7.1472L4.9072 7.3776C4.9328 7.45013 4.95627 7.51413 4.9776 7.5696C4.93067 7.5312 4.8752 7.49067 4.8112 7.448C4.75147 7.40107 4.68747 7.35627 4.6192 7.3136C4.5552 7.26667 4.48907 7.22613 4.4208 7.192C4.35253 7.1536 4.2928 7.12587 4.2416 7.1088L4.088 7.0576L3.832 7.8512L3.9856 7.9024C4.04107 7.91947 4.10507 7.93227 4.1776 7.9408C4.25013 7.94933 4.32693 7.95573 4.408 7.96H4.8496C4.7984 7.99413 4.7408 8.03467 4.6768 8.0816C4.61707 8.12427 4.5552 8.1712 4.4912 8.2224C4.43147 8.26933 4.37387 8.3184 4.3184 8.3696C4.26293 8.4208 4.21813 8.46987 4.184 8.5168L4.0816 8.6512L4.76 9.1312L4.856 9.0032C4.89013 8.96053 4.92213 8.90507 4.952 8.8368C4.98613 8.76853 5.01813 8.69813 5.048 8.6256C5.07787 8.5488 5.10347 8.47413 5.1248 8.4016C5.14613 8.32907 5.16533 8.26293 5.1824 8.2032C5.19947 8.26293 5.21867 8.32907 5.24 8.4016C5.26133 8.47413 5.28693 8.5488 5.3168 8.6256C5.34667 8.69813 5.37653 8.76853 5.4064 8.8368C5.44053 8.90507 5.47467 8.96053 5.5088 9.0032L5.6048 9.1312L6.2832 8.6512L6.1808 8.5168C6.14667 8.46987 6.10187 8.4208 6.0464 8.3696C5.99093 8.3184 5.9312 8.26933 5.8672 8.2224C5.80747 8.1712 5.7456 8.12427 5.6816 8.0816C5.62187 8.03467 5.5664 7.99413 5.5152 7.96H5.9568C6.03787 7.95573 6.11467 7.94933 6.1872 7.9408C6.25973 7.93227 6.32373 7.91947 6.3792 7.9024L6.5328 7.8512L6.2768 7.0576L6.1232 7.1088C6.072 7.12587 6.01227 7.1536 5.944 7.192C5.87573 7.22613 5.80747 7.26667 5.7392 7.3136C5.6752 7.35627 5.6112 7.40107 5.5472 7.448Z"/>
<path d="M0 6.5C0 4.567 1.567 3 3.5 3H7C7.27614 3 7.5 3.22386 7.5 3.5C7.5 3.77614 7.27614 4 7 4H3.5C2.11929 4 1 5.11929 1 6.5V9.5C1 10.8807 2.11929 12 3.5 12H7C7.27614 12 7.5 12.2239 7.5 12.5C7.5 12.7761 7.27614 13 7 13H3.5C1.567 13 0 11.433 0 9.5V6.5Z"/>
<path d="M12 3C11.7239 3 11.5 3.22386 11.5 3.5C11.5 3.77614 11.7239 4 12 4H12.5C13.8807 4 15 5.11929 15 6.5V9.5C15 10.8807 13.8807 12 12.5 12H12C11.7239 12 11.5 12.2239 11.5 12.5C11.5 12.7761 11.7239 13 12 13H12.5C14.433 13 16 11.433 16 9.5V6.5C16 4.567 14.433 3 12.5 3H12Z"/>
</svg>
