<svg viewBox="0 0 16 16" fill="currentColor" xmlns="http://www.w3.org/2000/svg">
<path d="M7.5 0C7.22386 0 7 0.223858 7 0.5C7 0.776142 7.22386 1 7.5 1H10V15H7.5C7.22386 15 7 15.2239 7 15.5C7 15.7761 7.22386 16 7.5 16H13.5C13.7761 16 14 15.7761 14 15.5C14 15.2239 13.7761 15 13.5 15H11V1H13.5C13.7761 1 14 0.776142 14 0.5C14 0.223858 13.7761 0 13.5 0H7.5Z"/>
<path d="M3.5 3C1.567 3 0 4.567 0 6.5V9.5C0 11.433 1.567 13 3.5 13H7.5C7.77614 13 8 12.7761 8 12.5C8 12.2239 7.77614 12 7.5 12H3.5C2.11929 12 1 10.8807 1 9.5V6.5C1 5.11929 2.11929 4 3.5 4H7.5C7.77614 4 8 3.77614 8 3.5C8 3.22386 7.77614 3 7.5 3H3.5Z" />
<path d="M4.42 6.706C4.536 6.658 4.656 6.604 4.78 6.544C4.908 6.48 5.032 6.412 5.152 6.34C5.272 6.264 5.386 6.186 5.494 6.106C5.606 6.022 5.706 5.934 5.794 5.842H6.418V10H5.524V7.006C5.404 7.086 5.27 7.16 5.122 7.228C4.974 7.292 4.83 7.348 4.69 7.396L4.42 6.706Z" />
<path d="M13.5 3C13.2239 3 13 3.22386 13 3.5C13 3.77614 13.2239 4 13.5 4C14.3284 4 15 4.67157 15 5.5V10.5C15 11.3284 14.3284 12 13.5 12C13.2239 12 13 12.2239 13 12.5C13 12.7761 13.2239 13 13.5 13C14.8807 13 16 11.8807 16 10.5V5.5C16 4.11929 14.8807 3 13.5 3Z" />
</svg>
