<svg viewBox="0 0 16 16" fill="currentColor" xmlns="http://www.w3.org/2000/svg">
<path d="M3.5 9C4.05228 9 4.5 8.55228 4.5 8C4.5 7.44772 4.05228 7 3.5 7C2.94772 7 2.5 7.44772 2.5 8C2.5 8.55228 2.94772 9 3.5 9Z" />
<path fill-rule="evenodd" clip-rule="evenodd" d="M0 6C0 4.89543 0.895431 4 2 4H5C6.10457 4 7 4.89543 7 6V10C7 11.1046 6.10457 12 5 12H2C0.89543 12 0 11.1046 0 10V6ZM2 5H5C5.55228 5 6 5.44772 6 6V10C6 10.5523 5.55228 11 5 11H2C1.44772 11 1 10.5523 1 10V6C1 5.44772 1.44772 5 2 5Z" />
<path d="M13.5 8C13.5 8.55228 13.0523 9 12.5 9C11.9477 9 11.5 8.55228 11.5 8C11.5 7.44772 11.9477 7 12.5 7C13.0523 7 13.5 7.44772 13.5 8Z"/>
<path fill-rule="evenodd" clip-rule="evenodd" d="M9 6C9 4.89543 9.89543 4 11 4H14C15.1046 4 16 4.89543 16 6V10C16 11.1046 15.1046 12 14 12H11C9.89543 12 9 11.1046 9 10V6ZM11 5H14C14.5523 5 15 5.44772 15 6V10C15 10.5523 14.5523 11 14 11H11C10.4477 11 10 10.5523 10 10V6C10 5.44772 10.4477 5 11 5Z"/>
</svg>
