<svg viewBox="0 0 16 16" fill="currentColor" xmlns="http://www.w3.org/2000/svg">
<path d="M13.5 3.5C13.5 4.05228 13.0523 4.5 12.5 4.5C11.9477 4.5 11.5 4.05228 11.5 3.5C11.5 2.94772 11.9477 2.5 12.5 2.5C13.0523 2.5 13.5 2.94772 13.5 3.5Z" />
<path fill-rule="evenodd" clip-rule="evenodd" d="M12 8C12 10.2091 10.2091 12 8 12C5.79086 12 4 10.2091 4 8C4 5.79086 5.79086 4 8 4C10.2091 4 12 5.79086 12 8ZM11 8C11 9.65685 9.65685 11 8 11C6.34315 11 5 9.65685 5 8C5 6.34315 6.34315 5 8 5C9.65685 5 11 6.34315 11 8Z" />
<path fill-rule="evenodd" clip-rule="evenodd" d="M3 0C1.34315 0 0 1.34315 0 3V13C0 14.6569 1.34315 16 3 16H13C14.6569 16 16 14.6569 16 13V3C16 1.34315 14.6569 0 13 0H3ZM13 1H3C1.89543 1 1 1.89543 1 3V13C1 14.1046 1.89543 15 3 15H13C14.1046 15 15 14.1046 15 13V3C15 1.89543 14.1046 1 13 1Z" />
</svg>
