<svg viewBox="0 0 16 16" fill="currentColor" xmlns="http://www.w3.org/2000/svg">
<path fill-rule="evenodd" clip-rule="evenodd" d="M14.7667 1.13675C13.1773 -0.367034 10.7501 -0.368011 9.15927 1.13382L6.43125 3.63126C6.22763 3.81766 6.21396 4.13394 6.40049 4.33768C6.58652 4.54129 6.90293 4.55533 7.10654 4.36881L9.8375 1.86881L9.84385 1.86319C11.0484 0.723176 12.8746 0.723176 14.0797 1.86319C14.7096 2.4595 14.9845 3.12369 14.9796 3.76382C14.9742 4.40543 14.6881 5.08682 14.0753 5.71195L11.3673 8.20352L11.3443 8.22611C11.0079 8.57816 10.5479 8.84708 10.0426 9.00003H10.0001V9.0126C9.74277 9.08682 9.47422 9.13101 9.20517 9.1409C8.39609 9.17056 7.64267 8.89151 7.1666 8.26798C6.99912 8.04849 6.68515 8.0065 6.46543 8.1741C6.24619 8.34171 6.2042 8.65543 6.37168 8.87491C7.08847 9.81387 8.18808 10.179 9.24179 10.1402C10.2833 10.1018 11.3414 9.66946 12.0558 8.92899L14.7618 6.43936L14.7794 6.42252C15.5445 5.64627 15.9723 4.72305 15.9791 3.77152C15.9864 2.81583 15.5694 1.89603 14.7667 1.13675ZM9.62802 7.20486C8.91562 6.272 7.82676 5.88321 6.77549 5.89945C5.73642 5.91556 4.67734 6.32596 3.95908 7.06961L1.24131 9.52921L1.2208 9.54886C0.454197 10.3264 0.0279271 11.2571 0.0206029 12.2141C0.0132787 13.1752 0.429294 14.1026 1.23349 14.8633C2.82285 16.3671 5.2501 16.3681 6.84043 14.8662L9.56845 12.3688C9.77207 12.1824 9.78574 11.8661 9.59922 11.6624C9.41269 11.4588 9.09677 11.4447 8.89316 11.6313L6.1622 14.1313L6.15635 14.1369C4.95127 15.2769 3.12558 15.2769 1.92051 14.1369C1.2916 13.5419 1.01572 12.871 1.0206 12.2218C1.02549 11.5719 1.3126 10.8842 1.92343 10.2608L4.64316 7.79935L4.66904 7.77396C5.18125 7.23795 5.98056 6.9119 6.79111 6.89932C7.59531 6.88687 8.35263 7.18216 8.8331 7.8118C9.00058 8.03128 9.31455 8.07327 9.53427 7.90579C9.75351 7.73819 9.79551 7.42435 9.62802 7.20486Z"/>
</svg>
