<svg viewBox="0 0 16 16" fill="currentColor" xmlns="http://www.w3.org/2000/svg">
<path fill-rule="evenodd" clip-rule="evenodd" d="M2.5 0C1.11929 0 0 1.11929 0 2.5V11.5C0 12.7097 0.859187 13.7187 2.00061 13.9501C2.00021 13.9667 2 13.9833 2 14C2 15.1046 2.89543 16 4 16C5.10457 16 6 15.1046 6 14H11C11 15.1046 11.8954 16 13 16C14.1046 16 15 15.1046 15 14C15 12.8954 14.1046 12 13 12C12.2597 12 11.6134 12.4022 11.2676 13H9.50018C9.81403 12.5822 10 12.0628 10 11.5V4.5H11V8.2C11 8.64183 11.3582 9 11.8 9H15V11.5C15 11.9585 14.7943 12.3689 14.4702 12.644C14.6994 12.8924 14.8665 13.199 14.9467 13.5392C15.5841 13.0861 16 12.3416 16 11.5V8.57359C16 8.55662 15.9998 8.53965 15.9995 8.52271C15.9998 8.51518 16 8.50761 16 8.5C16 8.47971 15.9988 8.45971 15.9964 8.44005C15.9739 8.01817 15.8447 7.60809 15.62 7.2486L14.0115 4.675C13.5547 3.94405 12.7535 3.5 11.8915 3.5H10V2.5C10 1.11929 8.88071 0 7.5 0H2.5ZM12 4.50392V8H14.886C14.8543 7.92348 14.8163 7.8494 14.772 7.77859L13.1635 5.205C12.9087 4.79726 12.4753 4.53831 12 4.50392ZM7.5 13H5.73244C5.38663 12.4022 4.74028 12 4 12C3.26652 12 2.62527 12.3948 2.27718 12.9836C1.55442 12.8759 1 12.2527 1 11.5V10H5.5C5.77614 10 6 9.77614 6 9.5C6 9.22386 5.77614 9 5.5 9H1V8H7.5C7.77614 8 8 7.77614 8 7.5C8 7.22386 7.77614 7 7.5 7H1V6H6C6.27614 6 6.5 5.77614 6.5 5.5C6.5 5.22386 6.27614 5 6 5H1V4H4.5C4.77614 4 5 3.77614 5 3.5C5 3.22386 4.77614 3 4.5 3H1V2.5C1 1.67157 1.67157 1 2.5 1H7.5C8.32843 1 9 1.67157 9 2.5V11.5C9 12.3284 8.32843 13 7.5 13ZM5 14C5 14.5523 4.55228 15 4 15C3.44772 15 3 14.5523 3 14C3 13.4477 3.44772 13 4 13C4.55228 13 5 13.4477 5 14ZM14 14C14 14.5523 13.5523 15 13 15C12.4477 15 12 14.5523 12 14C12 13.4477 12.4477 13 13 13C13.5523 13 14 13.4477 14 14Z"/>
</svg>
