<svg viewBox="0 0 16 16" fill="currentColor" xmlns="http://www.w3.org/2000/svg">
<path d="M2.5 0C1.11929 0 0 1.11929 0 2.5V13.5C0 14.8807 1.11929 16 2.5 16H7.5C8.88071 16 10 14.8807 10 13.5V12.5C10 12.2239 9.77614 12 9.5 12C9.22386 12 9 12.2239 9 12.5V13.5C9 14.3284 8.32843 15 7.5 15H2.5C1.67157 15 1 14.3284 1 13.5V2.5C1 1.67157 1.67157 1 2.5 1H7.5C8.32843 1 9 1.67157 9 2.5V3.5C9 3.77614 9.22386 4 9.5 4C9.77614 4 10 3.77614 10 3.5V2.5C10 1.11929 8.88071 0 7.5 0H2.5Z"/>
<path d="M12.0116 11.4085C11.8227 11.2071 11.833 10.8906 12.0344 10.7018L14.387 8.49618L4.00018 8.50001C3.72404 8.50012 3.5001 8.27634 3.5 8.0002C3.4999 7.72406 3.72367 7.50012 3.99982 7.50001L14.3315 7.4962L12.0344 5.34262C11.833 5.15375 11.8227 4.83734 12.0116 4.63588C12.2005 4.43443 12.5169 4.42422 12.7184 4.61309L15.7633 7.46774C16.0836 7.768 16.0836 8.27639 15.7633 8.57665L12.7184 11.4313C12.5169 11.6202 12.2005 11.61 12.0116 11.4085Z"/>
</svg>
