<svg viewBox="0 0 16 16" fill="currentColor" xmlns="http://www.w3.org/2000/svg">
<path fill-rule="evenodd" clip-rule="evenodd" d="M13 2C13.3852 2 13.7534 2.07259 14.0918 2.20484L9.83198 6.79229C8.8429 7.85745 7.1571 7.85745 6.16802 6.79229L1.90825 2.20484C2.24659 2.07259 2.61482 2 3 2H13ZM0 5C0 4.0873 0.407574 3.2698 1.05064 2.71957C1.07169 2.7626 1.09933 2.80331 1.1336 2.84023L5.43522 7.47274C6.81994 8.96397 9.18007 8.96397 10.5648 7.47274L14.8664 2.84023C14.9007 2.80331 14.9283 2.7626 14.9494 2.71957C15.5924 3.2698 16 4.0873 16 5V11C16 11.7757 15.7056 12.4827 15.2224 13.0153L11.8536 9.64645C11.6583 9.45118 11.3417 9.45118 11.1464 9.64645C10.9512 9.84171 10.9512 10.1583 11.1464 10.3536L14.4305 13.6376C14.0053 13.8687 13.518 14 13 14H3C2.48201 14 1.99469 13.8687 1.56948 13.6376L4.85355 10.3536C5.04882 10.1583 5.04882 9.84171 4.85355 9.64645C4.65829 9.45118 4.34171 9.45118 4.14645 9.64645L0.777639 13.0153C0.294432 12.4827 0 11.7757 0 11V5Z"/>
</svg>
