<svg viewBox="0 0 16 16" fill="currentColor" xmlns="http://www.w3.org/2000/svg">
<path fill-rule="evenodd" clip-rule="evenodd" d="M0 5C0 3.34315 1.34315 2 3 2H13C14.6569 2 16 3.34315 16 5V11C16 12.6569 14.6569 14 13 14H3C1.34315 14 0 12.6569 0 11V5ZM3 3H13C13.1016 3 13.2015 3.00758 13.299 3.02221L9.83701 6.77275C8.8471 7.84515 7.1529 7.84515 6.16299 6.77275L2.70095 3.02221C2.79851 3.00758 2.89837 3 3 3ZM1.73538 3.45049C1.28654 3.81725 1 4.37516 1 5V11C1 11.4996 1.18317 11.9564 1.48601 12.3069L4.14645 9.64645C4.34171 9.45118 4.65829 9.45118 4.85355 9.64645C5.04882 9.84171 5.04882 10.1583 4.85355 10.3536L2.32417 12.8829C2.53528 12.9587 2.76282 13 3 13H13C13.2372 13 13.4647 12.9587 13.6758 12.8829L11.1464 10.3536C10.9512 10.1583 10.9512 9.84171 11.1464 9.64645C11.3417 9.45118 11.6583 9.45118 11.8536 9.64645L14.514 12.3069C14.8168 11.9564 15 11.4996 15 11V5C15 4.37516 14.7135 3.81725 14.2646 3.45049L10.5718 7.45103C9.18594 8.95239 6.81406 8.95239 5.42819 7.45103L1.73538 3.45049Z"/>
</svg>
