<svg viewBox="0 0 16 16" fill="currentColor" xmlns="http://www.w3.org/2000/svg">
<path fill-rule="evenodd" clip-rule="evenodd" d="M15.5 0H11C10.7239 0 10.5 0.223858 10.5 0.5C10.5 0.776142 10.7239 1 11 1L14.2929 1L9.87442 5.41847C8.82908 4.53358 7.47685 4 6 4C2.68629 4 0 6.68629 0 10C0 13.3137 2.68629 16 6 16C9.31371 16 12 13.3137 12 10C12 8.52315 11.4664 7.17092 10.5815 6.12558L15 1.70711V5C15 5.27614 15.2239 5.5 15.5 5.5C15.7761 5.5 16 5.27614 16 5V0.5C16 0.223858 15.7761 0 15.5 0ZM11 10C11 12.7614 8.76142 15 6 15C3.23858 15 1 12.7614 1 10C1 7.23858 3.23858 5 6 5C8.76142 5 11 7.23858 11 10Z"/>
</svg>
