<svg viewBox="0 0 16 16" fill="currentColor" xmlns="http://www.w3.org/2000/svg">
<g clip-path="url(#clip0_3190_37232)">
<path d="M9.99992 2.5V3.08093L4.99992 8.08093V2.5C4.99992 1.11929 6.11921 0 7.49992 0C8.88064 0 9.99992 1.11929 9.99992 2.5Z" />
<path d="M3.99992 8.5C3.99992 8.68351 4.01405 8.86371 4.04126 9.03959L3.21193 9.86893C3.07424 9.43727 2.99992 8.97731 2.99992 8.5V7.5C2.99992 7.22386 3.22378 7 3.49992 7C3.77607 7 3.99992 7.22386 3.99992 7.5V8.5Z" />
<path d="M7.1142 11.979L6.2648 12.8284C6.50241 12.8961 6.74803 12.9447 6.99992 12.9725V15H5.49992C5.22378 15 4.99992 15.2239 4.99992 15.5C4.99992 15.7761 5.22378 16 5.49992 16H9.49992C9.77607 16 9.99992 15.7761 9.99992 15.5C9.99992 15.2239 9.77607 15 9.49992 15H7.99992V12.9725C10.2499 12.7238 11.9999 10.8163 11.9999 8.5V7.5C11.9999 7.3857 11.9616 7.28036 11.897 7.19615L10.9999 8.09326V8.5C10.9999 10.433 9.43292 12 7.49992 12C7.36956 12 7.24086 11.9929 7.1142 11.979Z" />
<path d="M9.90361 9.18958C9.667 10.0159 9.01581 10.6671 8.1895 10.9037L9.90361 9.18958Z"/>
<path d="M15.854 0.166542C15.6587 -0.0287205 15.3421 -0.0287203 15.1469 0.166542L0.170372 15.143C-0.0248898 15.3383 -0.0248898 15.6549 0.170372 15.8501C0.365635 16.0454 0.682217 16.0454 0.877479 15.8501L15.854 0.873648C16.0492 0.678386 16.0492 0.361804 15.854 0.166542Z" />
</g>
</svg>
