<svg viewBox="0 0 16 16" fill="currentColor" xmlns="http://www.w3.org/2000/svg">
<path d="M8.56459 9.75108C8.41126 9.74613 8.28295 9.86643 8.278 10.0198C8.27306 10.1731 8.39335 10.3014 8.54668 10.3063L9.87923 10.3493C10.1423 10.3578 10.3579 10.1423 10.3494 9.87915L10.3064 8.5466C10.3015 8.39327 10.1732 8.27298 10.0198 8.27792C9.8665 8.28287 9.74621 8.41118 9.75116 8.56451L9.77761 9.38474L6.65195 6.25908L7.47215 6.28553C7.62549 6.29048 7.7538 6.17018 7.75874 6.01685C7.76369 5.86352 7.6434 5.73521 7.49006 5.73026L6.15751 5.68729C5.89441 5.6788 5.67885 5.89435 5.68734 6.15746L5.73032 7.49001C5.73526 7.64334 5.86357 7.76363 6.01691 7.75869C6.17024 7.75374 6.29053 7.62543 6.28558 7.4721L6.25913 6.65193L9.38473 9.77753L8.56459 9.75108Z"/>
<path fill-rule="evenodd" clip-rule="evenodd" d="M6 3C4.34315 3 3 4.34315 3 6V10C3 11.6569 4.34315 13 6 13H10C11.6569 13 13 11.6569 13 10V6C13 4.34315 11.6569 3 10 3H6ZM10 4H6C4.89543 4 4 4.89543 4 6V10C4 11.1046 4.89543 12 6 12H10C11.1046 12 12 11.1046 12 10V6C12 4.89543 11.1046 4 10 4Z"/>
<path fill-rule="evenodd" clip-rule="evenodd" d="M3 0C1.34315 0 0 1.34315 0 3V13C0 14.6569 1.34315 16 3 16H13C14.6569 16 16 14.6569 16 13V3C16 1.34315 14.6569 0 13 0H3ZM13 1H3C1.89543 1 1 1.89543 1 3V13C1 14.1046 1.89543 15 3 15H13C14.1046 15 15 14.1046 15 13V3C15 1.89543 14.1046 1 13 1Z"/>
<path d="M1 1H15V2H1V1Z"/>
</svg>
