<svg viewBox="0 0 16 16" fill="currentColor" xmlns="http://www.w3.org/2000/svg">
<path d="M3.5 0C1.567 0 0 1.567 0 3.5V12.5C0 14.433 1.567 16 3.5 16H12.5C14.433 16 16 14.433 16 12.5V9.5C16 9.22386 15.7761 9 15.5 9C15.2239 9 15 9.22386 15 9.5V12.5C15 13.8807 13.8807 15 12.5 15H3.5C2.11929 15 1 13.8807 1 12.5V3.5C1 2.11929 2.11929 1 3.5 1H6.5C6.77614 1 7 0.776142 7 0.5C7 0.223858 6.77614 0 6.5 0H3.5Z" />
<path d="M15.5 0H11C10.7239 0 10.5 0.223858 10.5 0.5C10.5 0.776142 10.7239 1 11 1L14.2929 1L7.64645 7.64645C7.45118 7.84171 7.45118 8.15829 7.64645 8.35355C7.84171 8.54882 8.15829 8.54882 8.35355 8.35355L15 1.70711V5C15 5.27614 15.2239 5.5 15.5 5.5C15.7761 5.5 16 5.27614 16 5V0.5C16 0.223858 15.7761 0 15.5 0Z"/>
</svg>
