<svg viewBox="0 0 16 16" fill="currentColor" xmlns="http://www.w3.org/2000/svg">
<path fill-rule="evenodd" clip-rule="evenodd" d="M3 6.17071V5C3 2.23858 5.23858 0 8 0C10.7614 0 13 2.23858 13 5V6.17071C14.1652 6.58254 15 7.69378 15 9V13C15 14.6569 13.6569 16 12 16H4C2.34315 16 1 14.6569 1 13V9C1 7.69378 1.83481 6.58254 3 6.17071ZM12 6V5C12 2.79086 10.2091 1 8 1C5.79086 1 4 2.79086 4 5L4 6H5V5C5 3.34315 6.34315 2 8 2C9.65685 2 11 3.34315 11 5V6H12ZM2 13V12H6.7C6.86569 12 7 11.8657 7 11.7V11.3C7 11.1343 6.86569 11 6.7 11H2V10H4.7C4.86569 10 5 9.86569 5 9.7V9.3C5 9.13431 4.86569 9 4.7 9H2C2 7.89543 2.89543 7 4 7H12C13.1046 7 14 7.89543 14 9H9.3C9.13431 9 9 9.13431 9 9.3V9.7C9 9.86569 9.13431 10 9.3 10H14V11H11.3C11.1343 11 11 11.1343 11 11.3V11.7C11 11.8657 11.1343 12 11.3 12H14V13H10.3C10.1343 13 10 13.1343 10 13.3V13.7C10 13.8657 10.1343 14 10.3 14H13.7324C13.3866 14.5978 12.7403 15 12 15H4C3.25972 15 2.61337 14.5978 2.26756 14H4.7C4.86569 14 5 13.8657 5 13.7V13.3C5 13.1343 4.86569 13 4.7 13H2ZM10 6V5C10 3.89543 9.10457 3 8 3C6.89543 3 6 3.89543 6 5V6H10Z"/>
</svg>
