<svg  viewBox="0 0 16 16" fill="currentColor" xmlns="http://www.w3.org/2000/svg">
<path fill-rule="evenodd" clip-rule="evenodd" d="M4.51151 0.560982C3.76672 -0.186993 2.55919 -0.186994 1.8144 0.560982L0.520488 1.86046C0.0998404 2.28291 -0.0966819 2.8574 0.0463046 3.48349C0.849716 7.00137 4.16561 13.2822 12.3585 15.8707C13.0291 16.0826 13.7177 15.9277 14.2001 15.4433L15.4166 14.2215C16.1614 13.4736 16.1286 12.2969 15.3837 11.5489L14.1018 10.2614C13.357 9.51349 12.2027 9.49777 11.4579 10.2457L11.1097 10.5938C10.775 10.93 10.184 10.9424 9.84923 10.6062L5.83743 6.59441C5.50268 6.25823 5.48308 5.63811 5.81783 5.30192L6.17873 4.94102C6.92351 4.19305 6.96692 3.02692 6.22213 2.27895L4.51151 0.560982ZM2.51365 1.27595C2.8484 0.939763 3.46965 0.931902 3.8044 1.26809L5.51869 2.98238C5.85345 3.31856 5.81444 3.9058 5.47969 4.24199L5.13231 4.59086C4.38753 5.33884 4.38753 6.55155 5.13231 7.29953L9.13552 11.3199C9.8803 12.0678 11.0728 12.0497 11.8176 11.3017L12.165 10.9528C12.4998 10.6166 13.0575 10.6348 13.3923 10.971L14.6742 12.2585C15.0089 12.5947 15.0469 13.1809 14.7121 13.5171L13.493 14.7362C13.2724 14.9577 12.9625 14.9701 12.6848 14.8823C4.91594 12.4277 1.81844 6.49476 1.08088 3.26527C1.02846 3.03573 1.02738 2.76307 1.22481 2.56479L2.51365 1.27595Z" />
</svg>
