<svg  viewBox="0 0 16 16" fill="currentColor" xmlns="http://www.w3.org/2000/svg">
<path d="M1.83918 0.560981C2.58397 -0.186994 3.7915 -0.186993 4.53628 0.560981L6.24691 2.27895C6.99169 3.02692 6.99169 4.23964 6.24691 4.98762L5.89953 5.33649C5.56478 5.67267 5.56478 6.21773 5.89953 6.55391L9.90274 10.5743C10.2375 10.9105 10.7802 10.9105 11.115 10.5743L11.4623 10.2254C12.2072 9.47744 13.4146 9.47744 14.1595 10.2254L15.4414 11.5129C16.1862 12.2608 16.1862 13.4736 15.4414 14.2215L14.2249 15.4433C13.7425 15.9277 13.0259 16.1279 12.3553 15.9159C4.16238 13.3274 0.846491 7.04663 0.0430798 3.52875C-0.0999067 2.90265 0.124618 2.28291 0.545265 1.86046L1.83918 0.560981Z"/>
</svg>
