<svg viewBox="0 0 20 20" fill="currentColor" xmlns="http://www.w3.org/2000/svg">
<path fill-rule="evenodd" clip-rule="evenodd" d="M3.49981 4C4.60438 4 5.49981 3.10457 5.49981 2C5.49981 0.895431 4.60438 0 3.49981 0C2.39525 0 1.49981 0.895431 1.49981 2C1.49981 3.10457 2.39525 4 3.49981 4ZM3.49981 3C4.0521 3 4.49981 2.55228 4.49981 2C4.49981 1.44772 4.0521 1 3.49981 1C2.94753 1 2.49981 1.44772 2.49981 2C2.49981 2.55228 2.94753 3 3.49981 3Z" />
<path fill-rule="evenodd" clip-rule="evenodd" d="M9.99982 9C11.1044 9 11.9998 8.10457 11.9998 7C11.9998 5.89543 11.1044 5 9.99982 5C8.89525 5 7.99982 5.89543 7.99982 7C7.99982 8.10457 8.89525 9 9.99982 9ZM9.99982 8C10.5521 8 10.9998 7.55228 10.9998 7C10.9998 6.44772 10.5521 6 9.99982 6C9.44753 6 8.99982 6.44772 8.99982 7C8.99982 7.55228 9.44753 8 9.99982 8Z" />
<path fill-rule="evenodd" clip-rule="evenodd" d="M5.49981 13.5C5.49981 14.6046 4.60438 15.5 3.49981 15.5C2.39525 15.5 1.49981 14.6046 1.49981 13.5C1.49981 12.3954 2.39525 11.5 3.49981 11.5C4.60438 11.5 5.49981 12.3954 5.49981 13.5ZM4.49981 13.5C4.49981 14.0523 4.0521 14.5 3.49981 14.5C2.94753 14.5 2.49981 14.0523 2.49981 13.5C2.49981 12.9477 2.94753 12.5 3.49981 12.5C4.0521 12.5 4.49981 12.9477 4.49981 13.5Z" />
<path fill-rule="evenodd" clip-rule="evenodd" d="M6.98521 19.1492C6.80987 17.0763 5.1197 16.0193 3.50134 16.0003C2.6897 15.9907 1.86209 16.2368 1.2098 16.7658C0.549329 17.3014 0.0955089 18.1063 0.0132808 19.1517C-0.0247039 19.6346 0.369368 20 0.807509 20H6.19212C6.6284 20 7.02639 19.636 6.98521 19.1492ZM5.95924 19H1.03687C1.13914 18.3393 1.44393 17.8634 1.83969 17.5424C2.28817 17.1787 2.88055 16.993 3.48956 17.0002C4.64505 17.0138 5.73875 17.7023 5.95924 19Z" />
<path fill-rule="evenodd" clip-rule="evenodd" d="M16.4998 15.5C17.6044 15.5 18.4998 14.6046 18.4998 13.5C18.4998 12.3954 17.6044 11.5 16.4998 11.5C15.3952 11.5 14.4998 12.3954 14.4998 13.5C14.4998 14.6046 15.3952 15.5 16.4998 15.5ZM16.4998 14.5C17.0521 14.5 17.4998 14.0523 17.4998 13.5C17.4998 12.9477 17.0521 12.5 16.4998 12.5C15.9475 12.5 15.4998 12.9477 15.4998 13.5C15.4998 14.0523 15.9475 14.5 16.4998 14.5Z" />
<path fill-rule="evenodd" clip-rule="evenodd" d="M19.9852 19.1492C19.8099 17.0763 18.1197 16.0193 16.5013 16.0003C15.6897 15.9907 14.8621 16.2368 14.2098 16.7658C13.5493 17.3014 13.0955 18.1063 13.0133 19.1517C12.9753 19.6346 13.3694 20 13.8075 20H19.1921C19.6284 20 20.0264 19.636 19.9852 19.1492ZM18.9592 19H14.0369C14.1391 18.3393 14.4439 17.8634 14.8397 17.5424C15.2882 17.1787 15.8806 16.993 16.4896 17.0002C17.6451 17.0138 18.7388 17.7023 18.9592 19Z" />
<path fill-rule="evenodd" clip-rule="evenodd" d="M13.4852 12.6492C13.3099 10.5763 11.6197 9.51931 10.0013 9.50026C9.1897 9.4907 8.36209 9.73675 7.7098 10.2658C7.04933 10.8014 6.59551 11.6063 6.51328 12.6517C6.4753 13.1346 6.86937 13.5 7.30751 13.5H12.6921C13.1284 13.5 13.5264 13.136 13.4852 12.6492ZM12.4592 12.5H7.53687C7.63914 11.8393 7.94393 11.3634 8.33969 11.0424C8.78817 10.6787 9.38055 10.493 9.98956 10.5002C11.1451 10.5138 12.2388 11.2023 12.4592 12.5Z" />
<path fill-rule="evenodd" clip-rule="evenodd" d="M6.98521 7.64921C6.80987 5.57633 5.1197 4.51932 3.50134 4.50026C2.6897 4.4907 1.86209 4.73675 1.2098 5.26577C0.549329 5.80141 0.0955089 6.60628 0.0132808 7.6517C-0.0247039 8.13462 0.369368 8.5 0.807509 8.5H6.19212C6.6284 8.5 7.02639 8.13596 6.98521 7.64921ZM5.95924 7.5H1.03687C1.13914 6.8393 1.44393 6.36341 1.83969 6.04245C2.28817 5.67873 2.88055 5.49302 3.48956 5.50019C4.64505 5.5138 5.73875 6.20228 5.95924 7.5Z" />
<path fill-rule="evenodd" clip-rule="evenodd" d="M16.4998 4C17.6044 4 18.4998 3.10457 18.4998 2C18.4998 0.895431 17.6044 0 16.4998 0C15.3952 0 14.4998 0.895431 14.4998 2C14.4998 3.10457 15.3952 4 16.4998 4ZM16.4998 3C17.0521 3 17.4998 2.55228 17.4998 2C17.4998 1.44772 17.0521 1 16.4998 1C15.9475 1 15.4998 1.44772 15.4998 2C15.4998 2.55228 15.9475 3 16.4998 3Z" />
<path fill-rule="evenodd" clip-rule="evenodd" d="M19.9852 7.64921C19.8099 5.57633 18.1197 4.51932 16.5013 4.50026C15.6897 4.4907 14.8621 4.73675 14.2098 5.26577C13.5493 5.80141 13.0955 6.60628 13.0133 7.6517C12.9753 8.13462 13.3694 8.5 13.8075 8.5H19.1921C19.6284 8.5 20.0264 8.13596 19.9852 7.64921ZM18.9592 7.5H14.0369C14.1391 6.8393 14.4439 6.36341 14.8397 6.04245C15.2882 5.67873 15.8806 5.49302 16.4896 5.50019C17.6451 5.5138 18.7388 6.20228 18.9592 7.5Z" />
</svg>
