<svg viewBox="0 0 20 20" fill="currentColor" xmlns="http://www.w3.org/2000/svg">
<path fill-rule="evenodd" clip-rule="evenodd" d="M12.0028 1.99582C12.0028 3.09808 11.1063 3.99164 10.0005 3.99164C8.89471 3.99164 7.99827 3.09808 7.99827 1.99582C7.99827 0.89356 8.89471 0 10.0005 0C11.1063 0 12.0028 0.89356 12.0028 1.99582ZM11.0017 1.99582C11.0017 2.54695 10.5534 2.99373 10.0005 2.99373C9.44762 2.99373 8.9994 2.54695 8.9994 1.99582C8.9994 1.44469 9.44762 0.99791 10.0005 0.99791C10.5534 0.99791 11.0017 1.44469 11.0017 1.99582Z"/>
<path d="M10.0021 4.49085C11.0705 4.50339 12.1703 4.9664 12.8457 5.87356C12.0377 5.31612 11.0572 4.98955 10.0002 4.98955C8.91739 4.98955 7.91485 5.33227 7.09585 5.91483C7.2697 5.6626 7.47609 5.44217 7.70792 5.25476C8.36095 4.72685 9.18949 4.48132 10.0021 4.49085Z"/>
<path fill-rule="evenodd" clip-rule="evenodd" d="M3.49302 5.98746C4.5421 5.98746 5.40274 6.79169 5.48829 7.81537C5.2744 8.25771 5.12404 8.73632 5.04903 9.23944C4.68194 9.69069 4.12127 9.9791 3.49302 9.9791C2.3872 9.9791 1.49076 9.08555 1.49076 7.98328C1.49076 6.88102 2.3872 5.98746 3.49302 5.98746ZM4.49415 7.98328C4.49415 8.53441 4.04593 8.98119 3.49302 8.98119C2.94011 8.98119 2.49189 8.53441 2.49189 7.98328C2.49189 7.43215 2.94011 6.98537 3.49302 6.98537C4.04593 6.98537 4.49415 7.43215 4.49415 7.98328Z" />
<path fill-rule="evenodd" clip-rule="evenodd" d="M3.49454 10.4783C4.03031 10.4846 4.57393 10.6042 5.06798 10.8362C5.286 12.0915 5.97462 13.1861 6.94614 13.9328C6.83873 14.254 6.52493 14.4697 6.18837 14.4697H0.797667C0.359031 14.4697 -0.0354862 14.1051 0.00254144 13.6232C0.0848625 12.5799 0.539196 11.7768 1.20041 11.2422C1.85344 10.7143 2.68199 10.4688 3.49454 10.4783ZM5.95523 13.4718H1.02729C1.12967 12.8125 1.43481 12.3376 1.83102 12.0173C2.28 11.6543 2.87306 11.469 3.48276 11.4762C4.63955 11.4897 5.73449 12.1768 5.95523 13.4718Z"/>
<path fill-rule="evenodd" clip-rule="evenodd" d="M14.951 9.23852C15.318 9.6903 15.879 9.9791 16.5077 9.9791C17.6135 9.9791 18.51 9.08555 18.51 7.98328C18.51 6.88102 17.6135 5.98746 16.5077 5.98746C15.4583 5.98746 14.5974 6.79225 14.5124 7.81644C14.7258 8.25821 14.876 8.73615 14.951 9.23852ZM16.5077 8.98119C17.0606 8.98119 17.5089 8.53441 17.5089 7.98328C17.5089 7.43215 17.0606 6.98537 16.5077 6.98537C15.9548 6.98537 15.5066 7.43215 15.5066 7.98328C15.5066 8.53441 15.9548 8.98119 16.5077 8.98119Z" />
<path fill-rule="evenodd" clip-rule="evenodd" d="M13.0544 13.9325C14.0353 13.1784 14.7278 12.0696 14.9385 10.7988C15.4326 10.5763 15.9744 10.472 16.5092 10.4783C18.1294 10.4973 19.8215 11.5521 19.9971 13.6207C20.0383 14.1064 19.6398 14.4697 19.2031 14.4697H13.8124C13.4741 14.4697 13.162 14.2528 13.0544 13.9325ZM14.042 13.4718H18.9699C18.7492 12.1768 17.6542 11.4897 16.4975 11.4762C15.8878 11.469 15.2947 11.6543 14.8457 12.0173C14.4495 12.3376 14.1444 12.8125 14.042 13.4718Z" />
<path d="M13.2725 10.0572C13.2725 11.8799 11.7902 13.3575 9.96156 13.3575C8.13296 13.3575 6.65058 11.8799 6.65058 10.0572C6.65058 8.23446 8.13296 6.75685 9.96156 6.75685C11.7902 6.75685 13.2725 8.23446 13.2725 10.0572Z"/>
<path d="M15.4184 19.1602C15.2298 16.0475 12.5217 14.4957 9.96236 14.4672C8.67161 14.4528 7.35951 14.8165 6.33788 15.5957C5.30501 16.3836 4.59294 17.5799 4.50393 19.1618C4.47779 19.6264 4.85475 20 5.3031 20H14.62C15.0665 20 15.4467 19.6281 15.4184 19.1602Z"/>
</svg>
