<svg  viewBox="0 0 16 16" fill="currentColor" xmlns="http://www.w3.org/2000/svg">
<path d="M4.52398 3.87908L3.34346 2.98953C3.91779 2.45579 4.58137 2.02315 5.30634 1.71259C6.1408 1.35512 7.03623 1.1681 7.94017 1.16023C8.2605 1.15744 8.53946 0.920819 8.56382 0.601397C8.58817 0.281974 8.34879 0.00108001 8.02844 -7.04559e-05C6.93784 -0.00398825 5.85578 0.215161 4.84952 0.646224C3.93808 1.03667 3.10958 1.5921 2.40453 2.28203L1.49328 1.59538C1.1421 1.33076 0.636157 1.54553 0.582578 1.98197L0.120183 5.74848C0.0666034 6.18492 0.505574 6.51569 0.910329 6.34387L4.40342 4.86106C4.80818 4.68925 4.87515 4.1437 4.52398 3.87908Z" />
<path d="M13.8201 13.4885C13.8171 13.4918 13.8142 13.495 13.8111 13.4982C13.0616 14.2904 12.1564 14.9226 11.1502 15.3536C10.1439 15.7847 9.06188 16.0038 7.97127 15.9999C7.65092 15.9988 7.41155 15.7179 7.4359 15.3984C7.46026 15.079 7.73921 14.8424 8.05955 14.8396C8.96349 14.8317 9.85892 14.6447 10.6934 14.2873C11.4804 13.9501 12.1951 13.4691 12.8018 12.871L11.846 12.2913C11.47 12.0633 11.4818 11.5137 11.8673 11.3021L15.1938 9.47608C15.5793 9.26448 16.0493 9.54951 16.0398 9.98912L15.9579 13.783C15.9484 14.2226 15.4666 14.4871 15.0907 14.2591L13.8201 13.4885Z" />
<path d="M5.14048 15.4714C5.43967 15.5859 5.76426 15.4103 5.85678 15.1036C5.94931 14.7969 5.77452 14.4756 5.47676 14.3574C5.1084 14.2112 4.75344 14.0333 4.4159 13.8256C4.14304 13.6578 3.781 13.71 3.59064 13.9676C3.40027 14.2253 3.45379 14.5904 3.72456 14.7616C4.17189 15.0445 4.64619 15.2822 5.14048 15.4714Z" />
<path d="M10.1429 0.896255C10.2355 0.589559 10.56 0.413943 10.8592 0.528445C11.3535 0.717613 11.8278 0.955369 12.2752 1.23821C12.5459 1.40941 12.5994 1.77456 12.4091 2.03221C12.2187 2.28987 11.8567 2.34208 11.5838 2.17423C11.2463 1.96657 10.8913 1.78864 10.523 1.64245C10.2252 1.52427 10.0504 1.20295 10.1429 0.896255Z" />
<path d="M1.39712 10.6918C1.36535 10.9661 1.11722 11.1627 0.842914 11.1309C0.568605 11.0992 0.371989 10.851 0.403759 10.5767C0.43553 10.3024 0.683656 10.1058 0.957964 10.1376C1.23227 10.1694 1.42889 10.4175 1.39712 10.6918Z" />
<path d="M15.1568 4.86889C14.8825 4.83712 14.6344 5.03374 14.6026 5.30805C14.5708 5.58236 14.7674 5.83048 15.0418 5.86225C15.3161 5.89402 15.5642 5.69741 15.596 5.4231C15.6277 5.14879 15.4311 4.90067 15.1568 4.86889Z"/>
<path d="M2.60415 12.6958C2.57238 12.9701 2.32425 13.1667 2.04994 13.135C1.77564 13.1032 1.57902 12.8551 1.61079 12.5808C1.64256 12.3065 1.89069 12.1098 2.165 12.1416C2.4393 12.1734 2.63592 12.4215 2.60415 12.6958Z" />
<path d="M13.9498 2.86487C13.6755 2.8331 13.4273 3.02971 13.3956 3.30402C13.3638 3.57833 13.5604 3.82646 13.8347 3.85823C14.109 3.89 14.3572 3.69338 14.3889 3.41907C14.4207 3.14476 14.2241 2.89664 13.9498 2.86487Z" />
</svg>
