<svg viewBox="0 0 16 16" fill="currentColor" xmlns="http://www.w3.org/2000/svg">
<path d="M3.5728 6.06815C3.5378 5.78814 3.28243 5.58952 3.00241 5.62452C2.7224 5.65952 2.52378 5.9149 2.55878 6.19491C2.6328 6.78706 2.91432 7.65096 3.52817 8.3774C4.15674 9.12126 5.12574 9.70823 6.51475 9.70823C6.79694 9.70823 7.0257 9.47946 7.0257 9.19727C7.0257 8.91508 6.79694 8.68631 6.51475 8.68631C5.45116 8.68631 4.75956 8.25137 4.30873 7.71784C3.84318 7.16688 3.62653 6.49792 3.5728 6.06815Z" />
<path fill-rule="evenodd" clip-rule="evenodd" d="M6.13148 12.263C9.5178 12.263 12.263 9.5178 12.263 6.13148C12.263 2.74515 9.5178 0 6.13148 0C2.74515 0 0 2.74515 0 6.13148C0 9.5178 2.74515 12.263 6.13148 12.263ZM6.13148 11.241C8.95341 11.241 11.241 8.95341 11.241 6.13148C11.241 3.30955 8.95341 1.02191 6.13148 1.02191C3.30955 1.02191 1.02191 3.30955 1.02191 6.13148C1.02191 8.95341 3.30955 11.241 6.13148 11.241Z" />
<path d="M14.2556 15.7007L11.1447 12.5898C11.6846 12.1702 12.1703 11.6845 12.5899 11.1446L15.7008 14.2554C16.0999 14.6546 16.0999 15.3015 15.7008 15.7007C15.3017 16.0998 14.6547 16.0998 14.2556 15.7007Z"/>
</svg>
