<svg viewBox="0 0 16 16" fill="currentColor" xmlns="http://www.w3.org/2000/svg">
<path d="M5 3C5 1.89543 5.89543 1 7 1H9C10.1046 1 11 1.89543 11 3V13C11 14.1046 10.1046 15 9 15H7C5.89543 15 5 14.1046 5 13V3Z"/>
<path d="M0 4.5C0 3.67157 0.671573 3 1.5 3H2.5C2.77614 3 3 3.22386 3 3.5C3 3.77614 2.77614 4 2.5 4H1.5C1.22386 4 1 4.22386 1 4.5V11.5C1 11.7761 1.22386 12 1.5 12H2.5C2.77614 12 3 12.2239 3 12.5C3 12.7761 2.77614 13 2.5 13H1.5C0.671573 13 0 12.3284 0 11.5V4.5Z"/>
<path d="M14.5 13C15.3284 13 16 12.3284 16 11.5V4.5C16 3.67157 15.3284 3 14.5 3H13.5C13.2239 3 13 3.22386 13 3.5C13 3.77614 13.2239 4 13.5 4H14.5C14.7761 4 15 4.22386 15 4.5V11.5C15 11.7761 14.7761 12 14.5 12H13.5C13.2239 12 13 12.2239 13 12.5C13 12.7761 13.2239 13 13.5 13H14.5Z"/>
</svg>
