<svg viewBox="0 0 16 16" fill="currentColor" xmlns="http://www.w3.org/2000/svg">
<path d="M7 1H13C14.1046 1 15 1.89543 15 3V6C15 7.10457 14.1046 8 13 8H11.7398L13.575 8.94495C14.9568 8.67672 16 7.46019 16 6V3C16 1.34315 14.6569 0 13 0H3C1.34315 0 0 1.34315 0 3V6C0 7.35392 0.896893 8.49836 2.12895 8.87159L2.29124 7.87078C1.53651 7.5847 1 6.855 1 6V3C1 1.89543 1.89543 1 3 1H6V3.78905L7 4.49312V1Z"/>
<path d="M12.7 3.6C12.9209 3.43431 13.2343 3.47909 13.4 3.7C13.5657 3.92091 13.5209 4.23431 13.3 4.4L11 6.125L8.7 4.4C8.47909 4.23431 8.43431 3.92091 8.6 3.7C8.76569 3.47909 9.07909 3.43431 9.3 3.6L11 4.875L12.7 3.6Z"/>
<path fill-rule="evenodd" clip-rule="evenodd" d="M4.25405 8.17612C4.28602 6.74923 5.89214 5.93067 7.06547 6.74328L10.5625 9.1652C11.4461 9.77713 11.1408 11.1528 10.0813 11.3336C9.94409 11.357 9.87247 11.5102 9.94255 11.6305L10.7695 13.05C11.2781 13.923 10.9557 15.0438 10.061 15.5131C9.22255 15.9528 8.18652 15.6564 7.70763 14.8396L6.90786 13.4757C6.80417 13.2988 6.55927 13.2721 6.41986 13.4224C5.60276 14.3032 4.13014 13.7062 4.15705 12.505L4.25405 8.17612ZM6.49612 7.56537C5.97764 7.20629 5.26793 7.568 5.2538 8.19852L5.1568 12.5274C5.1505 12.8087 5.49537 12.9486 5.68673 12.7423C6.28203 12.1005 7.32775 12.2148 7.7705 12.9698L8.57027 14.3338C8.7791 14.69 9.23088 14.8193 9.5965 14.6275C9.98665 14.4229 10.1273 13.9341 9.90548 13.5534L9.07849 12.1339C8.65699 11.4104 9.08776 10.4886 9.91317 10.3478C10.0893 10.3178 10.1401 10.089 9.99318 9.9873L6.49612 7.56537Z"/>
</svg>
