<svg viewBox="0 0 16 16" fill="currentColor" xmlns="http://www.w3.org/2000/svg">
<path fill-rule="evenodd" clip-rule="evenodd" d="M10.9998 8C10.9998 9.65685 9.65661 11 7.99976 11C6.3429 11 4.99976 9.65685 4.99976 8C4.99976 6.34315 6.3429 5 7.99976 5C9.65661 5 10.9998 6.34315 10.9998 8ZM9.99976 8C9.99976 9.10457 9.10433 10 7.99976 10C6.89519 10 5.99976 9.10457 5.99976 8C5.99976 6.89543 6.89519 6 7.99976 6C9.10433 6 9.99976 6.89543 9.99976 8Z"/>
<path fill-rule="evenodd" clip-rule="evenodd" d="M7.52871 0C6.40815 0 5.49976 0.908394 5.49976 2.02895V2.16023C5.49976 2.9422 4.61588 3.39706 3.97956 2.94255C3.09809 2.31293 1.8731 2.51709 1.24347 3.39857L0.622913 4.26735C-0.0965019 5.27453 0.254122 6.6862 1.36118 7.23973C2.06963 7.59395 2.11682 8.58721 1.44515 9.00701L1.19922 9.16071C0.158426 9.81121 -0.139134 11.193 0.541677 12.2143L0.708053 12.4638C1.34819 13.424 2.60316 13.7573 3.63535 13.2412L4.01222 13.0528C4.69565 12.7111 5.49976 13.208 5.49976 13.9721C5.49976 15.0921 6.40766 16 7.52762 16H8.53089C9.61826 16 10.4998 15.1185 10.4998 14.0311C10.4998 13.2872 11.3034 12.8208 11.9493 13.1899L12.1063 13.2796C12.9794 13.7785 14.0846 13.5792 14.7284 12.8067L15.1558 12.2937C15.9993 11.2815 15.7554 9.75765 14.6381 9.05934L14.4943 8.96948C13.8068 8.53979 13.8267 7.53191 14.5306 7.12967C15.4448 6.60727 15.8219 5.48227 15.4071 4.51447L15.1891 4.00578C14.6847 2.82894 13.2496 2.37925 12.1638 3.05784C11.4486 3.50483 10.4998 2.98095 10.4998 2.11578C10.4998 0.957863 9.56191 0 8.39505 0H7.52871ZM6.49976 2.02895C6.49976 1.46068 6.96044 1 7.52871 1H8.39505C9.0007 1 9.49976 1.50118 9.49976 2.11578C9.49976 3.74455 11.2941 4.78063 12.6938 3.90584C13.2595 3.5523 14.0072 3.78659 14.2699 4.3997L14.4879 4.90839C14.7025 5.40911 14.5075 5.99115 14.0345 6.26143C12.6739 7.03888 12.6355 8.98696 13.9643 9.81748L14.1081 9.90734C14.7113 10.2843 14.843 11.1071 14.3876 11.6535L13.9602 12.1665C13.6268 12.5665 13.0546 12.6697 12.6025 12.4114L12.4455 12.3217C11.1329 11.5716 9.49976 12.5194 9.49976 14.0311C9.49976 14.5662 9.06598 15 8.53089 15H7.52762C6.95995 15 6.49976 14.5398 6.49976 13.9721C6.49976 12.4647 4.91333 11.4842 3.56501 12.1584L3.18814 12.3468C2.60703 12.6373 1.90049 12.4497 1.5401 11.9091L1.37373 11.6596C1.00566 11.1075 1.16653 10.3604 1.72922 10.0087L1.97514 9.85501C3.30904 9.02132 3.21533 7.04877 1.80839 6.3453C1.25095 6.06658 1.07439 5.35574 1.43665 4.84859L2.05721 3.97981C2.36582 3.54774 2.96626 3.44767 3.39832 3.75629C4.69651 4.68356 6.49976 3.75558 6.49976 2.16023V2.02895Z"/>
</svg>
