<svg viewBox="0 0 16 16" fill="currentColor" xmlns="http://www.w3.org/2000/svg">
<path fill-rule="evenodd" clip-rule="evenodd" d="M13 6C14.6569 6 16 4.65685 16 3C16 1.34315 14.6569 0 13 0C11.3431 0 10 1.34315 10 3C10 3.22189 10.0241 3.43815 10.0698 3.64632L5.13293 5.89035C4.58914 5.3406 3.83435 5 3 5C1.34315 5 0 6.34315 0 8C0 9.65685 1.34315 11 3 11C3.82369 11 4.56984 10.668 5.11198 10.1306L10.0065 12.8004C10.0022 12.8664 10 12.9329 10 13C10 14.6569 11.3431 16 13 16C14.6569 16 16 14.6569 16 13C16 11.3431 14.6569 10 13 10C11.7717 10 10.7158 10.7382 10.2518 11.7951L5.69883 9.31164C5.89176 8.91541 6 8.47034 6 8C6 7.54365 5.89811 7.1111 5.71583 6.72385L10.4456 4.57397C10.974 5.42972 11.9204 6 13 6ZM13 5C14.1046 5 15 4.10457 15 3C15 1.89543 14.1046 1 13 1C11.8954 1 11 1.89543 11 3C11 4.10457 11.8954 5 13 5ZM3 10C4.10457 10 5 9.10457 5 8C5 6.89543 4.10457 6 3 6C1.89543 6 1 6.89543 1 8C1 9.10457 1.89543 10 3 10ZM15 13C15 14.1046 14.1046 15 13 15C11.8954 15 11 14.1046 11 13C11 11.8954 11.8954 11 13 11C14.1046 11 15 11.8954 15 13Z" />
</svg>
