<svg viewBox="0 0 16 16" fill="currentColor" xmlns="http://www.w3.org/2000/svg">
<path fill-rule="evenodd" clip-rule="evenodd" d="M7 1.5C7 0.671573 7.67157 0 8.5 0H9.5C10.3284 0 11 0.671573 11 1.5V7.5C11 8.32843 10.3284 9 9.5 9H8.5C7.67157 9 7 8.32843 7 7.5V1.5ZM8.5 1H9.5C9.77614 1 10 1.22386 10 1.5V7.5C10 7.77614 9.77614 8 9.5 8H8.5C8.22386 8 8 7.77614 8 7.5V1.5C8 1.22386 8.22386 1 8.5 1Z"/>
<path d="M2.5 1H5V8H2.5C1 8 0 7 0 5.5V3.5C0 2 1 1 2.5 1Z"/>
<path d="M13.5 1C13.2239 1 13 1.22386 13 1.5C13 1.77614 13.2239 2 13.5 2C14.3284 2 15 2.67157 15 3.5V5.5C15 6.32843 14.3284 7 13.5 7C13.2239 7 13 7.22386 13 7.5C13 7.77614 13.2239 8 13.5 8C14.8807 8 16 6.88071 16 5.5V3.5C16 2.11929 14.8807 1 13.5 1Z" />
<path d="M7 12.5C7 12.2239 6.77614 12 6.5 12C6.22386 12 6 12.2239 6 12.5V15H4V13.5C4 13.2239 3.77614 13 3.5 13C3.22386 13 3 13.2239 3 13.5V15H1V13C1 12.7239 0.776142 12.5 0.5 12.5C0.223858 12.5 0 12.7239 0 13V15.5C0 15.7761 0.223858 16 0.5 16H15.5C15.7761 16 16 15.7761 16 15.5V13C16 12.7239 15.7761 12.5 15.5 12.5C15.2239 12.5 15 12.7239 15 13V15H13V12.5C13 12.2239 12.7761 12 12.5 12C12.2239 12 12 12.2239 12 12.5V15H10V13.5C10 13.2239 9.77614 13 9.5 13C9.22386 13 9 13.2239 9 13.5V15H7V12.5Z"/>
</svg>
