<svg viewBox="0 0 16 16" fill="currentColor" xmlns="http://www.w3.org/2000/svg">
<path d="M14.33 0.24C14.03 0.0799999 13.68 0 13.28 0C12.8667 0 12.4933 0.0833333 12.16 0.25C11.8267 0.416667 11.5233 0.67 11.25 1.01L11.85 1.49C12.0833 1.23 12.3033 1.04333 12.51 0.93C12.7167 0.816666 12.9567 0.76 13.23 0.76C13.5633 0.76 13.83 0.86 14.03 1.06C14.23 1.25333 14.33 1.52333 14.33 1.87C14.33 2.23667 14.25 2.58 14.09 2.9C13.93 3.22 13.6633 3.59667 13.29 4.03C12.9167 4.45667 12.2833 5.13333 11.39 6.06V6.79H15.34L15.45 6.02H12.44C13.2133 5.24667 13.79 4.64333 14.17 4.21C14.55 3.77667 14.83 3.37333 15.01 3C15.1967 2.62667 15.29 2.23667 15.29 1.83C15.29 1.48333 15.2067 1.17333 15.04 0.9C14.8733 0.62 14.6367 0.4 14.33 0.24Z"/>
<path d="M5.36726 0.17035C5.12811 0.0275006 4.8242 0.108892 4.68846 0.352142L1.94961 5.26014L0.928563 3.43044C0.79282 3.18719 0.488912 3.1058 0.249766 3.24865C0.0106198 3.3915 -0.073205 3.7045 0.0625382 3.94775L1.5084 6.53871C1.60158 6.70569 1.774 6.79639 1.95031 6.79066C2.12615 6.79587 2.2979 6.7052 2.39084 6.53866L5.55449 0.869444C5.69023 0.626194 5.6064 0.313199 5.36726 0.17035Z"/>
<path fill-rule="evenodd" clip-rule="evenodd" d="M9.03544 13C9.27806 14.6961 10.7368 16 12.5 16C14.433 16 16 14.433 16 12.5C16 10.567 14.433 9 12.5 9C10.7368 9 9.27806 10.3039 9.03544 12H6.96456C6.72194 10.3039 5.26324 9 3.5 9C1.567 9 4.65661e-10 10.567 4.65661e-10 12.5C4.65661e-10 14.433 1.567 16 3.5 16C5.26324 16 6.72194 14.6961 6.96456 13H9.03544ZM10 12.5C10 13.8807 11.1193 15 12.5 15C13.8807 15 15 13.8807 15 12.5C15 11.1193 13.8807 10 12.5 10C11.1193 10 10 11.1193 10 12.5Z"/>
</svg>
