<svg viewBox="0 0 16 16" fill="currentColor" xmlns="http://www.w3.org/2000/svg">
<path fill-rule="evenodd" clip-rule="evenodd" d="M7.35236 7.2C7.64116 6.89905 7.89411 6.56343 8.10435 6.2H12.4C13.836 6.2 15 5.03594 15 3.6C15 2.16406 13.836 1 12.4 1H8.10435C7.89412 0.636573 7.64116 0.30095 7.35236 0H12.4C14.3882 0 16 1.61178 16 3.6C16 5.58822 14.3882 7.2 12.4 7.2H7.35236ZM8.64764 16.2C8.35884 15.899 8.10588 15.5634 7.89565 15.2H3.59998C2.16404 15.2 0.999985 14.0359 0.999985 12.6C0.999985 11.1641 2.16404 10 3.59998 10H7.89565C8.10588 9.63657 8.35884 9.30095 8.64764 9H3.59998C1.61176 9 -1.46986e-05 10.6118 -1.46986e-05 12.6C-1.46986e-05 14.5882 1.61176 16.2 3.59998 16.2H8.64764ZM3.6 6.2C5.03594 6.2 6.2 5.03594 6.2 3.6C6.2 2.16406 5.03594 1 3.6 1C2.16406 1 1 2.16406 1 3.6C1 5.03594 2.16406 6.2 3.6 6.2ZM3.6 7.2C5.58822 7.2 7.2 5.58822 7.2 3.6C7.2 1.61177 5.58822 0 3.6 0C1.61177 0 0 1.61177 0 3.6C0 5.58822 1.61177 7.2 3.6 7.2ZM9.8 12.6C9.8 14.0359 10.9641 15.2 12.4 15.2C13.8359 15.2 15 14.0359 15 12.6C15 11.1641 13.8359 10 12.4 10C10.9641 10 9.8 11.1641 9.8 12.6ZM8.8 12.6C8.8 14.5882 10.4118 16.2 12.4 16.2C14.3882 16.2 16 14.5882 16 12.6C16 10.6118 14.3882 9 12.4 9C10.4118 9 8.8 10.6118 8.8 12.6Z"/>
</svg>
