<svg viewBox="0 0 17 17" fill="currentColor" xmlns="http://www.w3.org/2000/svg">
<path fill-rule="evenodd" clip-rule="evenodd" d="M2 0C0.895431 0 0 0.89543 0 2V3C0 4.10457 0.89543 5 2 5H15C16.1046 5 17 4.10457 17 3V2C17 0.895431 16.1046 0 15 0H2ZM15 1H2C1.44772 1 1 1.44772 1 2V3C1 3.55228 1.44772 4 2 4H15C15.5523 4 16 3.55228 16 3V2C16 1.44772 15.5523 1 15 1Z"/>
<path fill-rule="evenodd" clip-rule="evenodd" d="M2 7C0.895431 7 0 7.89543 0 9C0 10.1046 0.89543 11 2 11H3C4.10457 11 5 10.1046 5 9C5 7.89543 4.10457 7 3 7H2ZM3 8H2C1.44772 8 1 8.44772 1 9C1 9.55228 1.44772 10 2 10H3C3.55228 10 4 9.55228 4 9C4 8.44771 3.55228 8 3 8Z" />
<path fill-rule="evenodd" clip-rule="evenodd" d="M0 15C0 13.8954 0.895431 13 2 13H3C4.10457 13 5 13.8954 5 15C5 16.1046 4.10457 17 3 17H2C0.89543 17 0 16.1046 0 15ZM2 14H3C3.55228 14 4 14.4477 4 15C4 15.5523 3.55228 16 3 16H2C1.44772 16 1 15.5523 1 15C1 14.4477 1.44772 14 2 14Z" />
<path fill-rule="evenodd" clip-rule="evenodd" d="M14 7C12.8954 7 12 7.89543 12 9C12 10.1046 12.8954 11 14 11H15C16.1046 11 17 10.1046 17 9C17 7.89543 16.1046 7 15 7H14ZM15 8H14C13.4477 8 13 8.44772 13 9C13 9.55228 13.4477 10 14 10H15C15.5523 10 16 9.55228 16 9C16 8.44771 15.5523 8 15 8Z" />
<path fill-rule="evenodd" clip-rule="evenodd" d="M12 15C12 13.8954 12.8954 13 14 13H15C16.1046 13 17 13.8954 17 15C17 16.1046 16.1046 17 15 17H14C12.8954 17 12 16.1046 12 15ZM14 14H15C15.5523 14 16 14.4477 16 15C16 15.5523 15.5523 16 15 16H14C13.4477 16 13 15.5523 13 15C13 14.4477 13.4477 14 14 14Z" />
<path fill-rule="evenodd" clip-rule="evenodd" d="M8 7C6.89543 7 6 7.89543 6 9C6 10.1046 6.89543 11 8 11H9C10.1046 11 11 10.1046 11 9C11 7.89543 10.1046 7 9 7H8ZM9 8H8C7.44772 8 7 8.44772 7 9C7 9.55228 7.44772 10 8 10H9C9.55228 10 10 9.55228 10 9C10 8.44771 9.55228 8 9 8Z" />
<path fill-rule="evenodd" clip-rule="evenodd" d="M6 15C6 13.8954 6.89543 13 8 13H9C10.1046 13 11 13.8954 11 15C11 16.1046 10.1046 17 9 17H8C6.89543 17 6 16.1046 6 15ZM8 14H9C9.55228 14 10 14.4477 10 15C10 15.5523 9.55228 16 9 16H8C7.44772 16 7 15.5523 7 15C7 14.4477 7.44772 14 8 14Z"/>
</svg>
