<svg viewBox="0 0 16 16" fill="currentColor" xmlns="http://www.w3.org/2000/svg">
<path d="M5 6C5 5.44772 5.44772 5 6 5H10C10.5523 5 11 5.44772 11 6V6.5C11 6.77614 10.7761 7 10.5 7V7C10.2239 7 10 6.77614 10 6.5V6.33333C10 6.14924 9.85076 6 9.66667 6H8.5V10.5C8.5 10.7761 8.27614 11 8 11V11C7.72386 11 7.5 10.7761 7.5 10.5V6H6.33333C6.14924 6 6 6.14924 6 6.33333V6.5C6 6.77614 5.77614 7 5.5 7V7C5.22386 7 5 6.77614 5 6.5V6Z"/>
<path fill-rule="evenodd" clip-rule="evenodd" d="M14 4.94999C15.1411 4.71836 16 3.70948 16 2.5C16 1.11929 14.8807 0 13.5 0C12.2905 0 11.2816 0.85888 11.05 2H4.94999C4.71836 0.85888 3.70948 0 2.5 0C1.11929 0 0 1.11929 0 2.5C0 3.70948 0.85888 4.71836 2 4.94999L2 11.05C0.85888 11.2816 0 12.2905 0 13.5C0 14.8807 1.11929 16 2.5 16C3.70948 16 4.71836 15.1411 4.94999 14H11.05C11.2816 15.1411 12.2905 16 13.5 16C14.8807 16 16 14.8807 16 13.5C16 12.2905 15.1411 11.2816 14 11.05V4.94999ZM13.5 4C14.3284 4 15 3.32843 15 2.5C15 1.67157 14.3284 1 13.5 1C12.6716 1 12 1.67157 12 2.5C12 3.32843 12.6716 4 13.5 4ZM13 4.94999C12.0204 4.75115 11.2488 3.97956 11.05 3H4.94999C4.75115 3.97956 3.97957 4.75115 3 4.94999L3 11.05C3.97957 11.2488 4.75115 12.0204 4.94999 13H11.05C11.2488 12.0204 12.0204 11.2488 13 11.05V4.94999ZM13.5 12C12.6716 12 12 12.6716 12 13.5C12 14.3284 12.6716 15 13.5 15C14.3284 15 15 14.3284 15 13.5C15 12.6716 14.3284 12 13.5 12ZM1 13.5C1 12.6716 1.67157 12 2.5 12C3.32843 12 4 12.6716 4 13.5C4 14.3284 3.32843 15 2.5 15C1.67157 15 1 14.3284 1 13.5ZM4 2.5C4 3.32843 3.32843 4 2.5 4C1.67157 4 1 3.32843 1 2.5C1 1.67157 1.67157 1 2.5 1C3.32843 1 4 1.67157 4 2.5Z"/>
</svg>
