<svg  viewBox="0 0 16 16" fill="currentColor" xmlns="http://www.w3.org/2000/svg">
<path d="M7.5 3.5C7.5 3.22386 7.72386 3 8 3C8.27614 3 8.5 3.22386 8.5 3.5V9H12C12.2761 9 12.5 9.22386 12.5 9.5C12.5 9.77614 12.2761 10 12 10H8C7.72386 10 7.5 9.77614 7.5 9.5V3.5Z"/>
<path fill-rule="evenodd" clip-rule="evenodd" d="M8 16C12.4183 16 16 12.4183 16 8C16 3.58172 12.4183 0 8 0C3.58172 0 0 3.58172 0 8C0 12.4183 3.58172 16 8 16ZM8 15C11.866 15 15 11.866 15 8C15 4.13401 11.866 1 8 1C4.13401 1 1 4.13401 1 8C1 11.866 4.13401 15 8 15Z"/>
</svg>
