<svg viewBox="0 0 16 16" fill="currentColor" xmlns="http://www.w3.org/2000/svg">
<path d="M0 8C0 7.07173 0.158101 6.18039 0.448843 5.35143L1.24714 6.14973C1.08602 6.73911 1 7.35951 1 8C1 11.866 4.13401 15 8 15C8.64049 15 9.26089 14.914 9.85027 14.7529L10.6486 15.5512C9.81961 15.8419 8.92827 16 8 16C3.58172 16 0 12.4183 0 8Z" />
<path d="M15 8C15 9.7073 14.3888 11.2718 13.3732 12.4867L14.0629 13.1764L14.0827 13.1965C15.2781 11.7985 16 9.98357 16 8C16 3.58172 12.4183 0 8 0C6.0165 0 4.2016 0.721856 2.80367 1.91719L3.51325 2.62678C4.72816 1.61122 6.2927 1 8 1C11.866 1 15 4.13401 15 8Z" />
<path d="M9.88647 9L10.8865 10H12C12.2761 10 12.5 9.77614 12.5 9.5C12.5 9.22386 12.2761 9 12 9H9.88647Z"/>
<path d="M7.5 3.5V6.61353L8.5 7.61353V3.5C8.5 3.22386 8.27614 3 8 3C7.72386 3 7.5 3.22386 7.5 3.5Z" />
<path d="M0.152382 2.15243C-0.0428806 2.34769 -0.0428808 2.66427 0.152381 2.85953L13.1479 15.8551C13.3432 16.0503 13.6598 16.0503 13.855 15.8551C14.0503 15.6598 14.0503 15.3432 13.855 15.148L0.859488 2.15243C0.664226 1.95717 0.347644 1.95717 0.152382 2.15243Z"/>
</svg>
