<svg viewBox="0 0 16 16" fill="currentColor" xmlns="http://www.w3.org/2000/svg">
<path d="M6.41587 0.157311C6.61113 -0.0379512 6.92771 -0.0379513 7.12297 0.157311C7.31824 0.352573 7.31824 0.669155 7.12297 0.864417L3.40202 4.62554C3.20676 4.8208 2.73718 4.8208 2.54192 4.62554C2.52188 4.61077 2.50269 4.59432 2.48455 4.57617L1.07033 3.16196C0.875071 2.9667 0.875071 2.65012 1.07033 2.45485C1.26559 2.25959 1.58218 2.25959 1.77744 2.45485L2.94205 3.61947L6.41587 0.157311Z"/>
<path d="M0 3.71858V5.00006C0 6.10463 0.89543 7.00006 2 7.00006H5C6.10457 7.00006 7 6.10463 7 5.00006V2.38288L3.45827 5.75011C3.26926 5.93912 2.99001 6.02094 2.72288 5.99555C2.47619 6.02095 2.22056 5.93913 2.03153 5.75011L0 3.71858Z"/>
<path d="M12.5 3C12.2239 3 12 3.22386 12 3.5C12 3.77614 12.2239 4 12.5 4H15.5C15.7761 4 16 3.77614 16 3.5C16 3.22386 15.7761 3 15.5 3H12.5Z"/>
<path d="M11 1.5C11 1.22386 11.2239 1 11.5 1H15.5C15.7761 1 16 1.22386 16 1.5C16 1.77614 15.7761 2 15.5 2H11.5C11.2239 2 11 1.77614 11 1.5Z"/>
<path d="M8.5 10C8.22386 10 8 10.2239 8 10.5C8 10.7761 8.22386 11 8.5 11H15.5C15.7761 11 16 10.7761 16 10.5C16 10.2239 15.7761 10 15.5 10H8.5Z"/>
<path d="M9 5.5C9 5.22386 9.22386 5 9.5 5H15.5C15.7761 5 16 5.22386 16 5.5C16 5.77614 15.7761 6 15.5 6H9.5C9.22386 6 9 5.77614 9 5.5Z"/>
<path d="M11.5 12C11.2239 12 11 12.2239 11 12.5C11 12.7761 11.2239 13 11.5 13H15.5C15.7761 13 16 12.7761 16 12.5C16 12.2239 15.7761 12 15.5 12H11.5Z"/>
<path d="M9 14.5C9 14.2239 9.22386 14 9.5 14H15.5C15.7761 14 16 14.2239 16 14.5C16 14.7761 15.7761 15 15.5 15H9.5C9.22386 15 9 14.7761 9 14.5Z" />
<path fill-rule="evenodd" clip-rule="evenodd" d="M0 11C0 9.89543 0.895431 9 2 9H5C6.10457 9 7 9.89543 7 11V14C7 15.1046 6.10457 16 5 16H2C0.89543 16 0 15.1046 0 14V11ZM2 10H5C5.55228 10 6 10.4477 6 11V14C6 14.5523 5.55228 15 5 15H2C1.44772 15 1 14.5523 1 14V11C1 10.4477 1.44772 10 2 10Z"/>
</svg>
