<svg viewBox="0 0 16 16" fill="currentColor" xmlns="http://www.w3.org/2000/svg">
<path d="M6 7.5C6 7.22386 6.22386 7 6.5 7C6.77614 7 7 7.22386 7 7.5V12.5C7 12.7761 6.77614 13 6.5 13C6.22386 13 6 12.7761 6 12.5V7.5Z" />
<path d="M9.5 7C9.22386 7 9 7.22386 9 7.5V12.5C9 12.7761 9.22386 13 9.5 13C9.77614 13 10 12.7761 10 12.5V7.5C10 7.22386 9.77614 7 9.5 7Z" />
<path fill-rule="evenodd" clip-rule="evenodd" d="M5.08535 2C5.03008 1.84361 5 1.67532 5 1.5C5 0.671573 5.67157 0 6.5 0H9.5C10.3284 0 11 0.671573 11 1.5C11 1.67532 10.9699 1.84361 10.9146 2H13.5C14.3284 2 15 2.67157 15 3.5C15 4.32843 14.3284 5 13.5 5H13V12.5C13 14.433 11.433 16 9.5 16H6.5C4.567 16 3 14.433 3 12.5V5H2.5C1.67157 5 1 4.32843 1 3.5C1 2.67157 1.67157 2 2.5 2H5.08535ZM6.5 1H9.5C9.77614 1 10 1.22386 10 1.5C10 1.77614 9.77614 2 9.5 2H6.5C6.22386 2 6 1.77614 6 1.5C6 1.22386 6.22386 1 6.5 1ZM2.5 3C2.22386 3 2 3.22386 2 3.5C2 3.77614 2.22386 4 2.5 4H13.5C13.7761 4 14 3.77614 14 3.5C14 3.22386 13.7761 3 13.5 3H2.5ZM4 12.5V5H12V12.5C12 13.8807 10.8807 15 9.5 15H6.5C5.11929 15 4 13.8807 4 12.5Z" />
</svg>
