<svg viewBox="0 0 16 16" fill="currentColor" xmlns="http://www.w3.org/2000/svg">
<path d="M5.5 12C4.11929 12 3 10.8807 3 9.5C3 8.11929 4.11929 7 5.5 7C5.77614 7 6 7.22386 6 7.5C6 7.77614 5.77614 8 5.5 8C4.67157 8 4 8.67157 4 9.5C4 10.3284 4.67157 11 5.5 11H10.5C11.3284 11 12 10.3284 12 9.5C12 8.67157 11.3284 8 10.5 8C10.2239 8 10 7.77614 10 7.5C10 7.22386 10.2239 7 10.5 7C11.8807 7 13 8.11929 13 9.5C13 10.8807 11.8807 12 10.5 12H5.5Z"/>
<path d="M9.70177 5.96559C9.89064 6.16705 10.2071 6.17725 10.4085 5.98838C10.61 5.79952 10.6202 5.4831 10.4313 5.28165L8.57665 3.23672C8.27639 2.91645 7.768 2.91645 7.46774 3.23672L5.61309 5.28165C5.42422 5.4831 5.43443 5.79952 5.63588 5.98838C5.83734 6.17725 6.15375 6.16705 6.34262 5.96559L7.49621 4.66846L7.50002 9.00018C7.50012 9.27633 7.72406 9.5001 8.0002 9.5C8.27634 9.4999 8.50012 9.27596 8.50001 8.99981L8.49618 4.613L9.70177 5.96559Z"/>
<path fill-rule="evenodd" clip-rule="evenodd" d="M16 8C16 12.4183 12.4183 16 8 16C3.58172 16 1.93129e-07 12.4183 0 8C-1.93129e-07 3.58172 3.58172 1.93129e-07 8 0C12.4183 7.60545e-07 16 3.58172 16 8ZM15 8C15 11.866 11.866 15 8 15C4.13401 15 1 11.866 1 8C1 4.13401 4.13401 1 8 1C11.866 1 15 4.13401 15 8Z"/>
</svg>
