<svg viewBox="0 0 16 16" fill="currentColor" xmlns="http://www.w3.org/2000/svg">
<path d="M-1.09278e-07 13.5C-4.89256e-08 14.8807 1.11929 16 2.5 16L13.5 16C14.8807 16 16 14.8807 16 13.5L16 10.5C16 9.11929 14.8807 8 13.5 8L12.5 8C12.2239 8 12 8.22386 12 8.5C12 8.77614 12.2239 9 12.5 9L13.5 9C14.3284 9 15 9.67157 15 10.5L15 13.5C15 14.3284 14.3284 15 13.5 15L2.5 15C1.67157 15 1 14.3284 1 13.5L1 10.5C1 9.67157 1.67157 9 2.5 9L3.5 9C3.77614 9 4 8.77614 4 8.5C4 8.22386 3.77614 8 3.5 8L2.5 8C1.11929 8 -3.88188e-07 9.11929 -3.27835e-07 10.5L-1.09278e-07 13.5Z"/>
<path d="M11.4085 3.98838C11.2071 4.17725 10.8906 4.16705 10.7018 3.96559L8.49618 1.61299L8.50001 11.9998C8.50012 12.276 8.27634 12.4999 8.0002 12.5C7.72406 12.5001 7.50012 12.2763 7.50001 12.0002L7.4962 1.66846L5.34262 3.96559C5.15375 4.16705 4.83734 4.17725 4.63588 3.98838C4.43442 3.79952 4.42422 3.4831 4.61309 3.28165L7.46774 0.236725C7.768 -0.0835527 8.27639 -0.0835518 8.57665 0.236724L11.4313 3.28165C11.6202 3.4831 11.61 3.79952 11.4085 3.98838Z"/>
</svg>
