<svg viewBox="0 0 16 16" fill="currentColor" xmlns="http://www.w3.org/2000/svg">
<path fill-rule="evenodd" clip-rule="evenodd" d="M9.49323 4.10256C9.49323 6.36835 7.85786 8.20513 5.84054 8.20513C3.82321 8.20513 2.18784 6.36835 2.18784 4.10256C2.18784 1.83678 3.82321 0 5.84054 0C7.85786 0 9.49323 1.83678 9.49323 4.10256ZM7.86981 4.10256C7.86981 5.62895 6.80461 6.5641 5.84054 6.5641C4.87646 6.5641 3.81126 5.62895 3.81126 4.10256C3.81126 2.57618 4.87646 1.64103 5.84054 1.64103C6.80461 1.64103 7.86981 2.57618 7.86981 4.10256Z"/>
<path d="M3.20455 9.1557C3.49975 8.81466 3.46557 8.29629 3.12819 7.99789C2.79081 7.69948 2.27801 7.73404 1.9828 8.07507C1.47226 8.66487 0.947027 9.40956 0.566312 10.2078C0.191268 10.9941 -0.0807324 11.9104 0.0218094 12.8117C0.130637 13.7683 0.651809 14.61 1.65756 15.1779C2.61831 15.7203 3.9924 16 5.84052 16C7.68864 16 9.06273 15.7203 10.0235 15.1779C11.0292 14.61 11.5504 13.7683 11.6592 12.8117C11.7618 11.9104 11.4898 10.9941 11.1147 10.2078C10.734 9.40956 10.2088 8.66487 9.69825 8.07507C9.40305 7.73404 8.89024 7.69948 8.55286 7.99788C8.21549 8.29629 8.1813 8.81466 8.4765 9.1557C8.91296 9.65991 9.34825 10.2827 9.65241 10.9204C9.96224 11.57 10.0995 12.158 10.0464 12.6242C9.99969 13.0351 9.80047 13.4241 9.23184 13.7452C8.6182 14.0916 7.56392 14.359 5.84052 14.359C4.11711 14.359 3.06283 14.0916 2.4492 13.7452C1.88057 13.4241 1.68135 13.0351 1.6346 12.6242C1.58156 12.158 1.7188 11.57 2.02864 10.9205C2.3328 10.2827 2.76809 9.65991 3.20455 9.1557Z"/>
<path d="M11.4039 2.4469C11.449 2.45053 11.4939 2.4527 11.5381 2.45363L11.5448 2.45376C11.7325 2.45715 11.9172 2.50325 12.0884 2.5887C12.1425 2.61567 12.1952 2.64656 12.2463 2.68126C12.4149 2.79587 12.5609 2.94898 12.6756 3.13056C12.7056 3.17817 12.7336 3.22773 12.7592 3.27908C12.8821 3.5255 12.9478 3.80447 12.9499 4.08886L12.9499 4.09144C12.9515 4.37673 12.8891 4.65763 12.7687 4.9067C12.7442 4.95745 12.7174 5.00652 12.6885 5.05374C12.5757 5.2383 12.4309 5.39464 12.2628 5.51246C12.2116 5.54836 12.1586 5.58039 12.1042 5.60843C11.9345 5.69594 11.751 5.74458 11.5641 5.75087L11.5515 5.75133C11.508 5.75302 11.4638 5.75594 11.4194 5.76027C11.3657 5.7655 11.3117 5.77281 11.2581 5.78252C10.9546 5.8376 10.6664 5.97018 10.5414 6.24283L10.4873 6.36087C10.3197 6.72641 10.4491 7.17542 10.8323 7.28628C11.0762 7.35685 11.3281 7.38998 11.5814 7.38391L11.6052 7.38322L11.6178 7.38277C12.1047 7.36389 12.5793 7.20068 12.996 6.9087C13.0464 6.87334 13.0958 6.83624 13.1441 6.79746C13.498 6.51329 13.7919 6.13927 14.0028 5.70306C14.0271 5.65287 14.0501 5.60204 14.072 5.55062C14.266 5.09481 14.3661 4.59245 14.3634 4.08301L14.3634 4.08042C14.3605 3.57119 14.255 3.07057 14.0562 2.61784C14.0333 2.56576 14.0092 2.51431 13.9839 2.46356C13.7676 2.03002 13.4687 1.66016 13.1109 1.38138C13.0626 1.34382 13.0134 1.30791 12.963 1.27372C12.5413 0.987123 12.0628 0.831218 11.5737 0.821045L11.5669 0.820913L11.5386 0.820565C11.2856 0.818912 11.0345 0.856309 10.7919 0.930904C10.4118 1.04777 10.2888 1.49692 10.4603 1.8592L10.5158 1.97625C10.6447 2.24847 10.9365 2.37714 11.2421 2.42734C11.2959 2.43617 11.3501 2.44257 11.4039 2.4469Z"/>
<path d="M14.5316 7.62494C14.2146 7.30451 13.7007 7.30451 13.3837 7.62494C13.0667 7.94537 13.0667 8.46489 13.3837 8.78532C14.1078 9.51733 14.4315 10.3099 14.3685 10.8837C14.318 11.3427 13.975 11.9704 12.5432 12.3322C12.1083 12.4421 11.8439 12.8876 11.9526 13.3272C12.0613 13.7668 12.502 14.0341 12.9369 13.9242C14.752 13.4655 15.8295 12.4522 15.982 11.065C16.1218 9.79266 15.4309 8.53395 14.5316 7.62494Z"/>
</svg>
