<svg viewBox="0 0 16 16" fill="currentColor" xmlns="http://www.w3.org/2000/svg">
<path fill-rule="evenodd" clip-rule="evenodd" d="M16 8C16 12.4183 12.4183 16 8 16C3.58172 16 0 12.4183 0 8C0 3.58172 3.58172 0 8 0C12.4183 0 16 3.58172 16 8ZM12.4975 13.3642C11.2811 14.3852 9.71235 15 8 15C6.28765 15 4.71891 14.3852 3.50249 13.3642C3.5426 12.2788 4.0641 11.4679 4.85226 10.9075C5.68782 10.3133 6.83038 10 8 10C9.16962 10 10.3122 10.3133 11.1477 10.9075C11.9359 11.4679 12.4574 12.2788 12.4975 13.3642ZM13.3816 12.4767C13.1366 11.4614 12.5291 10.6627 11.7273 10.0925C11.2054 9.72146 10.6035 9.44762 9.96506 9.2669C10.5991 8.71684 11 7.90525 11 7C11 5.34315 9.65685 4 8 4C6.34315 4 5 5.34315 5 7C5 7.90525 5.40095 8.71684 6.03494 9.2669C5.3965 9.44762 4.79455 9.72146 4.27274 10.0925C3.47094 10.6627 2.86341 11.4614 2.61838 12.4767C1.60785 11.2632 1 9.70259 1 8C1 4.13401 4.13401 1 8 1C11.866 1 15 4.13401 15 8C15 9.70259 14.3921 11.2632 13.3816 12.4767ZM8 9C9.10457 9 10 8.10457 10 7C10 5.89543 9.10457 5 8 5C6.89543 5 6 5.89543 6 7C6 8.10457 6.89543 9 8 9Z"/>
</svg>
