<svg viewBox="0 0 16 16" fill="currentColor" xmlns="http://www.w3.org/2000/svg">
<path fill-rule="evenodd" clip-rule="evenodd" d="M14.501 4.5C14.501 6.433 12.934 8 11.001 8C9.068 8 7.501 6.433 7.501 4.5C7.501 2.567 9.068 1 11.001 1C12.934 1 14.501 2.567 14.501 4.5ZM13.501 4.5C13.501 5.88071 12.3817 7 11.001 7C9.62029 7 8.501 5.88071 8.501 4.5C8.501 3.11929 9.62029 2 11.001 2C12.3817 2 13.501 3.11929 13.501 4.5Z"/>
<path fill-rule="evenodd" clip-rule="evenodd" d="M6.5 6.44995C6.5 7.83066 5.38071 8.94994 4 8.94994C2.61929 8.94994 1.5 7.83066 1.5 6.44995C1.5 5.06923 2.61929 3.94995 4 3.94995C5.38071 3.94995 6.5 5.06923 6.5 6.44995ZM5.5 6.44995C5.5 7.27837 4.82843 7.94994 4 7.94994C3.17157 7.94994 2.5 7.27837 2.5 6.44995C2.5 5.62152 3.17157 4.94995 4 4.94995C4.82843 4.94995 5.5 5.62152 5.5 6.44995Z"/>
<path fill-rule="evenodd" clip-rule="evenodd" d="M10.8417 9.12236C12.6691 9.02932 14.3909 10.3355 15.78 12.8921C16.3219 13.8896 15.5417 15 14.4835 15H7.5C6.45076 15 5.66429 13.9028 6.20476 12.905C7.42175 10.6581 9.04008 9.21408 10.8417 9.12236ZM10.8925 10.1211C9.61742 10.186 8.24265 11.2421 7.08406 13.3812C6.94484 13.6383 7.12208 14 7.5 14H14.4835C14.861 14 15.0448 13.6337 14.9013 13.3695C13.5803 10.9381 12.1418 10.0575 10.8925 10.1211Z"/>
<path d="M4.28294 9.85663C4.9878 9.87145 5.6999 10.0944 6.41486 10.4859C6.21545 10.7335 6.02551 11.0096 5.8464 11.3158C5.28035 11.0188 4.75172 10.8667 4.26192 10.8564C3.19123 10.8339 2.11263 11.4963 1.08978 13.3415C0.950653 13.5925 1.12302 13.9575 1.5043 13.9575H4.83662C4.83533 14.355 5.0282 14.7182 5.33306 14.9575H1.5043C0.45625 14.9575 -0.338654 13.8558 0.215165 12.8567C1.32116 10.8615 2.67712 9.82288 4.28294 9.85663Z"/>
</svg>
