<svg viewBox="0 0 16 16" fill="currentColor" xmlns="http://www.w3.org/2000/svg">
<path d="M12 1C12 0.447715 12.4477 0 13 0C13.5523 0 14 0.447715 14 1V2H15C15.5523 2 16 2.44772 16 3C16 3.55228 15.5523 4 15 4H14V5C14 5.55228 13.5523 6 13 6C12.4477 6 12 5.55228 12 5V4H11C10.4477 4 9.99998 3.55228 9.99998 3C9.99998 2.44772 10.4477 2 11 2H12V1Z" />
<path d="M0.514454 15.9873H9.50214C9.79262 15.9873 10.0274 15.7437 9.99741 15.4548C9.33162 9.03856 0.469156 9.0436 0.0177924 15.4699C-0.0021172 15.7533 0.230293 15.9873 0.514454 15.9873Z" />
<path d="M8.5 6C8.5 7.933 6.933 9.5 5 9.5C3.067 9.5 1.5 7.933 1.5 6C1.5 4.067 3.067 2.5 5 2.5C6.933 2.5 8.5 4.067 8.5 6Z" />
</svg>
