<svg viewBox="0 0 16 16" fill="currentColor" xmlns="http://www.w3.org/2000/svg">
<path fill-rule="evenodd" clip-rule="evenodd" d="M12 4C12 6.20914 10.2091 8 8 8C5.79086 8 4 6.20914 4 4C4 1.79086 5.79086 0 8 0C10.2091 0 12 1.79086 12 4ZM11 4C11 5.65685 9.65685 7 8 7C6.34315 7 5 5.65685 5 4C5 2.34315 6.34315 1 8 1C9.65685 1 11 2.34315 11 4Z"/>
<path fill-rule="evenodd" clip-rule="evenodd" d="M13.7507 13.8921C12.3616 11.3355 9.63975 9.02931 7.81235 9.12235C6.01074 9.21407 3.3924 11.6581 2.17542 13.905C1.63495 14.9028 2.42142 16 3.47065 16H12.4542C13.5124 16 14.2926 14.8896 13.7507 13.8921ZM3.05472 14.3812C4.2133 12.2421 6.58808 10.186 7.86315 10.1211C9.11245 10.0575 11.551 11.9381 12.872 14.3695C13.0155 14.6337 12.8317 15 12.4542 15H3.47065C3.09274 15 2.9155 14.6383 3.05472 14.3812Z"/>
</svg>
