<svg viewBox="0 0 16 16" fill="currentColor" xmlns="http://www.w3.org/2000/svg">
<path d="M5.73373 2.02805C5.55934 1.50402 5.84278 0.937836 6.36681 0.763445L8.45425 0.068767C8.97828 -0.105624 9.54446 0.177814 9.71885 0.701842L10.4957 3.03625C10.6701 3.56028 10.3867 4.12646 9.86264 4.30085L7.7752 4.99552C7.25117 5.16992 6.68499 4.88648 6.51059 4.36245L5.73373 2.02805Z" />
<path d="M3.99934 2.78305C3.76396 1.93704 2.8554 1.47327 2.03216 1.7789L1.98683 1.79573C1.22865 2.07721 0.830123 2.90907 1.08588 3.67631L1.47442 4.84188C1.56174 5.10385 1.42017 5.38701 1.1582 5.47434C0.896227 5.56167 0.613065 5.42009 0.525738 5.15812L0.137199 3.99255C-0.28906 2.71382 0.375157 1.32739 1.63879 0.858255L1.68412 0.841425C3.05619 0.332037 4.57044 1.10499 4.96275 2.51501L7.32517 11.006C6.98001 11.0299 6.65413 11.1238 6.36165 11.2736L3.99934 2.78305Z"/>
<path d="M9.96949 13.108C9.91599 12.7683 9.79409 12.4513 9.61833 12.1717L15.3245 10.0318C15.5831 9.93488 15.8713 10.0659 15.9682 10.3244C16.0652 10.583 15.9342 10.8712 15.6756 10.9682L9.96949 13.108Z" />
<path fill-rule="evenodd" clip-rule="evenodd" d="M9 14C9 15.1046 8.10457 16 7 16C5.89543 16 5 15.1046 5 14C5 12.8954 5.89543 12 7 12C8.10457 12 9 12.8954 9 14ZM8 14C8 14.5523 7.55228 15 7 15C6.44772 15 6 14.5523 6 14C6 13.4477 6.44772 13 7 13C7.55228 13 8 13.4477 8 14Z" />
<path d="M7.12272 6.90768C6.94833 6.38365 7.23177 5.81747 7.7558 5.64308L9.25589 5.14387C9.25978 5.16228 9.26475 5.18066 9.27083 5.19894L9.93917 7.20687C10.0264 7.46888 10.3095 7.61058 10.5715 7.52337C10.8335 7.43616 10.9752 7.15306 10.888 6.89105L10.2197 4.88312C10.2136 4.86486 10.2065 4.84719 10.1986 4.83013L11.5512 4.38003C12.0752 4.20564 12.6414 4.48908 12.8158 5.01311L14.0788 8.80846C14.2532 9.33249 13.9698 9.89867 13.4457 10.0731L9.65037 11.3361C9.12634 11.5105 8.56016 11.2271 8.38577 10.703L7.12272 6.90768Z"/>
</svg>
