<svg viewBox="0 0 16 16" fill="currentColor" xmlns="http://www.w3.org/2000/svg">
<path fill-rule="evenodd" clip-rule="evenodd" d="M5.73373 2.02805C5.55934 1.50402 5.84278 0.937836 6.36681 0.763445L8.45425 0.068767C8.97828 -0.105624 9.54446 0.177814 9.71885 0.701842L10.4957 3.03625C10.6701 3.56028 10.3867 4.12646 9.86264 4.30085L7.7752 4.99552C7.25117 5.16992 6.68499 4.88648 6.51059 4.36245L5.73373 2.02805ZM6.68257 1.71228L8.77001 1.01761L9.54688 3.35201L7.45943 4.04669L6.68257 1.71228Z" />
<path d="M2.03216 1.7789C2.8554 1.47327 3.76396 1.93704 3.99934 2.78305L6.36165 11.2736C6.65413 11.1238 6.98001 11.0299 7.32517 11.006L4.96275 2.51501C4.57044 1.10499 3.05619 0.332036 1.68412 0.841425L1.63879 0.858255C0.375157 1.32739 -0.28906 2.71382 0.137199 3.99255L0.525738 5.15812C0.613065 5.42009 0.896227 5.56167 1.1582 5.47434C1.42017 5.38701 1.56174 5.10385 1.47442 4.84188L1.08588 3.67631C0.830123 2.90907 1.22865 2.07721 1.98683 1.79573L2.03216 1.7789Z" />
<path d="M9.61833 12.1717C9.79409 12.4513 9.91599 12.7683 9.96949 13.108L15.6756 10.9682C15.9342 10.8712 16.0652 10.583 15.9682 10.3244C15.8713 10.0659 15.5831 9.93488 15.3245 10.0318L9.61833 12.1717Z"/>
<path fill-rule="evenodd" clip-rule="evenodd" d="M7 16C8.10457 16 9 15.1046 9 14C9 12.8954 8.10457 12 7 12C5.89543 12 5 12.8954 5 14C5 15.1046 5.89543 16 7 16ZM7 15C7.55228 15 8 14.5523 8 14C8 13.4477 7.55228 13 7 13C6.44772 13 6 13.4477 6 14C6 14.5523 6.44772 15 7 15Z"/>
<path fill-rule="evenodd" clip-rule="evenodd" d="M7.75599 5.64308C7.23196 5.81747 6.94853 6.38365 7.12292 6.90768L8.38597 10.703C8.56036 11.2271 9.12654 11.5105 9.65057 11.3361L13.4459 10.0731C13.9699 9.89867 14.2534 9.33249 14.079 8.80846L12.8159 5.01311C12.6416 4.48908 12.0754 4.20564 11.5513 4.38003L7.75599 5.64308ZM9.56853 6.09381L8.07176 6.59192L9.33481 10.3873L13.1302 9.12422L11.8671 5.32887L10.5174 5.77805L10.8878 6.89096C10.975 7.15297 10.8333 7.43606 10.5713 7.52327C10.3093 7.61048 10.0262 7.46878 9.93898 7.20677L9.56853 6.09381Z" />
</svg>
