<svg width="604" height="522" viewBox="0 0 604 522" fill="none" xmlns="http://www.w3.org/2000/svg">
<path d="M23.1378 278.642C23.1378 278.642 26.3259 377.581 108.927 443.541C191.528 509.501 305.995 514.214 398.655 520.494C491.315 526.774 562.496 474.295 573.173 395.006C583.851 315.717 513.095 292.438 474.674 202.17C436.252 111.901 439.729 82.2329 358.447 26.7168C277.165 -28.7994 150 5.29357 83.3398 100.372C16.6793 195.45 23.1378 278.642 23.1378 278.642Z" fill="#BEB3FF"/>
<path opacity="0.7" d="M23.1378 278.642C23.1378 278.642 26.3259 377.581 108.927 443.541C191.528 509.501 305.995 514.214 398.655 520.494C491.315 526.774 562.496 474.295 573.173 395.006C583.851 315.717 513.095 292.438 474.674 202.17C436.252 111.901 439.729 82.2329 358.447 26.7168C277.165 -28.7994 150 5.29357 83.3398 100.372C16.6793 195.45 23.1378 278.642 23.1378 278.642Z" fill="white"/>
<path d="M61.7929 149.415V114.003C61.7929 88.9386 82.6252 68.5461 108.226 68.5461C133.826 68.5461 154.659 88.9386 154.659 114.003V149.415H173.169V114.003C173.169 78.9485 144.036 50.4209 108.226 50.4209C72.4152 50.4209 43.283 78.9485 43.283 114.003V149.415H61.7929Z" stroke="#58566D" stroke-width="1.16634" stroke-linecap="round" stroke-linejoin="round"/>
<path d="M178.198 149.663H36.4121V266.948H178.198V149.663Z" stroke="#58566D" stroke-width="1.16634" stroke-linecap="round" stroke-linejoin="round"/>
<path d="M122.05 198.377C121.93 194.362 120.251 190.552 117.369 187.754C114.487 184.957 110.628 183.392 106.611 183.392C102.595 183.392 98.7359 184.957 95.8536 187.754C92.9714 190.552 91.2923 194.362 91.1725 198.377C91.189 201.121 91.9524 203.809 93.3808 206.153C94.8091 208.496 96.8484 210.406 99.28 211.679L96.6829 238.31H116.54L113.942 211.679C116.374 210.406 118.413 208.496 119.842 206.153C121.27 203.809 122.033 201.121 122.05 198.377V198.377Z" stroke="#58566D" stroke-width="1.16634" stroke-linecap="round" stroke-linejoin="round"/>
<path d="M266.584 270.754L231.282 268.432V267.855L226.94 268.143L222.611 267.855V268.432L187.309 270.754L161.269 484.849H187.309L226.074 314.15H227.819L266.584 484.849H292.625L266.584 270.754Z" fill="#58566D" stroke="#58566D" stroke-width="1.16634" stroke-linecap="round" stroke-linejoin="round"/>
<path d="M161.269 484.835L154.906 494.674L135.228 503.358C134.192 503.931 133.325 504.768 132.717 505.784C132.108 506.8 131.78 507.959 131.765 509.144V516.66H187.886C188.217 512.618 188.217 508.555 187.886 504.513C187.309 498.727 187.309 484.835 187.309 484.835H161.269Z" fill="#4C4C4C" stroke="#58566D" stroke-width="1.16634" stroke-linecap="round" stroke-linejoin="round"/>
<path d="M131.765 510.298V516.66H187.886C187.886 516.66 188.147 513.912 188.147 510.298H131.765Z" fill="#58566D" stroke="#58566D" stroke-width="1.16634" stroke-linecap="round" stroke-linejoin="round"/>
<path d="M292.515 484.835L298.877 494.674L318.555 503.358C319.592 503.931 320.458 504.768 321.066 505.784C321.675 506.8 322.003 507.959 322.018 509.144V516.66H265.897C265.566 512.618 265.566 508.555 265.897 504.513C266.474 498.727 266.474 484.835 266.474 484.835H292.515Z" fill="#4C4C4C" stroke="#58566D" stroke-width="1.16634" stroke-linecap="round" stroke-linejoin="round"/>
<path d="M322.046 510.298V516.66H265.897C265.897 516.66 265.65 513.912 265.636 510.298H322.046Z" fill="#58566D" stroke="#58566D" stroke-width="1.16634" stroke-linecap="round" stroke-linejoin="round"/>
<path d="M172.358 171.155C172.358 171.155 131.133 229.089 131.133 233.336C131.133 237.582 137.688 270.369 148.104 273.447C158.52 276.526 164.305 271.139 166.229 260.338C168.153 249.537 161.598 234.105 161.598 234.105L180.837 216.749L172.358 171.155Z" fill="#BEB3FF" stroke="#58566D" stroke-width="1.16634" stroke-linecap="round" stroke-linejoin="round"/>
<path d="M164.361 258.799C164.361 258.799 176.316 256.861 179.408 257.631C182.499 258.4 184.808 265.738 184.808 265.738C184.808 265.738 185.962 276.539 184.025 278.848C182.087 281.157 172.839 283.864 168.991 284.633C165.144 285.403 157.022 276.539 153.876 271.139C150.729 265.738 156.253 256.477 164.361 258.799Z" fill="#CCCCCC" stroke="#58566D" stroke-width="1.16634" stroke-linecap="round" stroke-linejoin="round"/>
<path d="M181.029 168.53L172.358 171.155L186.017 262.331H267.203L279.556 171.677L268.522 167.472L227.792 158.54L181.029 168.53Z" fill="#BEB3FF" stroke="#58566D" stroke-width="1.16634" stroke-linecap="round" stroke-linejoin="round"/>
<path d="M271.669 199.009L269.841 212.146L255.646 215.554L241.19 209.783L242.248 197.951L271.669 199.009Z" fill="#58566D" stroke="#58566D" stroke-width="1.16634" stroke-linecap="round" stroke-linejoin="round"/>
<path d="M256.567 212.146C257.948 212.146 259.068 211.026 259.068 209.645C259.068 208.264 257.948 207.144 256.567 207.144C255.185 207.144 254.066 208.264 254.066 209.645C254.066 211.026 255.185 212.146 256.567 212.146Z" fill="#4C4C4C" stroke="#58566D" stroke-width="1.16634" stroke-linecap="round" stroke-linejoin="round"/>
<path d="M219.121 175.36L226.747 184.292L217.018 246.294L227.27 262.592L239.362 245.511L229.111 184.553L237.782 176.143L228.589 164.325L219.121 175.36Z" fill="#58566D" stroke="#58566D" stroke-width="1.16634" stroke-linecap="round" stroke-linejoin="round"/>
<path d="M211.769 159.859L176.824 168.53L177.882 172.735L212.03 163.267L211.769 159.859Z" fill="#58566D" stroke="#58566D" stroke-width="1.16634" stroke-linecap="round" stroke-linejoin="round"/>
<path d="M240.406 158.801L275.351 167.472L274.307 171.677L240.145 162.223L240.406 158.801Z" fill="#58566D" stroke="#58566D" stroke-width="1.16634" stroke-linecap="round" stroke-linejoin="round"/>
<path d="M275.324 167.472C275.324 167.472 288.543 170.454 296.637 175.085C304.731 179.716 306.669 190.132 302.038 201.703C297.407 213.273 283.143 211.734 276.588 208.573C270.033 205.413 268.096 193.925 269.25 188.909" fill="#BEB3FF"/>
<path d="M275.324 167.472C275.324 167.472 288.543 170.454 296.637 175.085C304.731 179.716 306.669 190.132 302.038 201.703C297.407 213.273 283.143 211.734 276.588 208.573C270.033 205.413 268.096 193.925 269.25 188.909" stroke="#58566D" stroke-width="1.16634" stroke-linecap="round" stroke-linejoin="round"/>
<path d="M213.349 155.393L209.405 158.018L210.45 184.553L227.53 172.474L245.395 184.814L246.975 158.54L242.248 154.596L213.349 155.393Z" fill="#BEB3FF" stroke="#58566D" stroke-width="1.16634" stroke-linecap="round" stroke-linejoin="round"/>
<path d="M247.841 123.829C247.841 123.829 257.542 121.465 259.37 111.764C261.198 102.062 243.718 90.2581 231.598 88.1693C219.478 86.0806 201.71 98.6542 198.824 107.311C195.939 115.969 207.207 124.612 219.272 126.453C231.337 128.295 247.841 123.829 247.841 123.829Z" fill="#58566D" stroke="#58566D" stroke-width="1.16634" stroke-linecap="round" stroke-linejoin="round"/>
<path d="M211.673 125.409C211.673 125.409 206.423 117.274 205.118 124.351C203.812 131.428 209.309 134.575 211.673 134.314C214.036 134.052 211.673 125.409 211.673 125.409Z" fill="#CCCCCC" stroke="#58566D" stroke-width="1.16634" stroke-linecap="round" stroke-linejoin="round"/>
<path d="M245.766 125.409C245.766 125.409 251.015 117.274 252.321 124.351C253.626 131.428 248.198 134.575 245.766 134.314C243.334 134.052 245.766 125.409 245.766 125.409Z" fill="#CCCCCC" stroke="#58566D" stroke-width="1.16634" stroke-linecap="round" stroke-linejoin="round"/>
<path d="M212.827 141.459V158.801L227.531 172.474L244.089 158.279V141.995L212.827 141.459Z" fill="#CCCCCC" stroke="#58566D" stroke-width="1.16634" stroke-linecap="round" stroke-linejoin="round"/>
<path d="M210.629 120.16C210.629 120.16 209.832 136.416 211.151 141.665C212.47 146.915 221.113 157.922 227.929 160.285C234.745 162.649 244.186 148.481 246.288 143.795C248.39 139.109 247.593 119.143 247.593 119.143C247.593 119.143 244.721 112.272 238.95 110.238C233.179 108.204 215.342 104.494 210.629 120.16Z" fill="#CCCCCC" stroke="#58566D" stroke-width="1.16634" stroke-linecap="round" stroke-linejoin="round"/>
<path d="M221.526 128.789C221.526 130.026 220.962 131.029 220.261 131.029C219.56 131.029 218.997 130.026 218.997 128.789C218.997 127.553 219.56 126.55 220.261 126.55C220.962 126.55 221.526 127.553 221.526 128.789Z" fill="#58566D"/>
<path d="M237.617 128.789C237.617 130.026 237.054 131.029 236.353 131.029C235.652 131.029 235.089 130.026 235.089 128.789C235.089 127.553 235.652 126.55 236.353 126.55C237.054 126.55 237.617 127.553 237.617 128.789Z" fill="#58566D"/>
<path d="M224.26 135.056C224.002 134.994 223.733 134.992 223.473 135.049C223.214 135.106 222.97 135.221 222.762 135.386C222.553 135.55 222.385 135.76 222.269 135.999C222.153 136.238 222.093 136.501 222.093 136.766C222.093 137.032 222.153 137.294 222.269 137.534C222.385 137.773 222.553 137.982 222.762 138.147C222.97 138.312 223.214 138.427 223.473 138.484C223.733 138.541 224.002 138.539 224.26 138.477C224.812 138.489 225.351 138.309 225.786 137.969C226.192 138.446 226.695 138.832 227.262 139.099C227.828 139.367 228.446 139.511 229.072 139.521C229.699 139.532 230.321 139.409 230.896 139.16C231.472 138.911 231.987 138.543 232.409 138.079C232.818 138.344 233.296 138.483 233.783 138.477C234.042 138.539 234.311 138.541 234.57 138.484C234.83 138.427 235.073 138.312 235.281 138.147C235.49 137.982 235.659 137.773 235.774 137.534C235.89 137.294 235.951 137.032 235.951 136.766C235.951 136.501 235.89 136.238 235.774 135.999C235.659 135.76 235.49 135.55 235.281 135.386C235.073 135.221 234.83 135.106 234.57 135.049C234.311 134.992 234.042 134.994 233.783 135.056" fill="#CCCCCC"/>
<path d="M224.26 135.056C224.002 134.994 223.733 134.992 223.473 135.049C223.214 135.106 222.97 135.221 222.762 135.386C222.553 135.55 222.385 135.76 222.269 135.999C222.153 136.238 222.093 136.501 222.093 136.766C222.093 137.032 222.153 137.294 222.269 137.534C222.385 137.773 222.553 137.982 222.762 138.147C222.97 138.312 223.214 138.427 223.473 138.484C223.733 138.541 224.002 138.539 224.26 138.477C224.812 138.489 225.351 138.309 225.786 137.969C226.192 138.446 226.695 138.832 227.262 139.099C227.828 139.367 228.446 139.511 229.072 139.521C229.699 139.532 230.321 139.409 230.896 139.16C231.472 138.911 231.987 138.543 232.409 138.079C232.818 138.344 233.296 138.483 233.783 138.477C234.042 138.539 234.311 138.541 234.57 138.484C234.83 138.427 235.073 138.312 235.281 138.147C235.49 137.982 235.659 137.773 235.774 137.534C235.89 137.294 235.951 137.032 235.951 136.766C235.951 136.501 235.89 136.238 235.774 135.999C235.659 135.76 235.49 135.55 235.281 135.386C235.073 135.221 234.83 135.106 234.57 135.049C234.311 134.992 234.042 134.994 233.783 135.056" stroke="#58566D" stroke-width="1.16634" stroke-linecap="round" stroke-linejoin="round"/>
<path d="M226.349 145.815H231.832" stroke="#58566D" stroke-width="1.16634" stroke-linecap="round" stroke-linejoin="round"/>
<path d="M210.024 124.104C210.024 124.104 210.216 129.38 211.975 128.006C213.734 126.632 214.311 117.672 212.759 116.504C211.206 115.336 210.024 121.383 210.024 124.104Z" fill="#58566D" stroke="#58566D" stroke-width="1.16634" stroke-linecap="round" stroke-linejoin="round"/>
<path d="M243.869 124.104C243.869 124.104 244.076 129.38 245.821 128.006C247.566 126.632 248.171 117.672 246.604 116.504C245.037 115.336 243.869 121.383 243.869 124.104Z" fill="#58566D" stroke="#58566D" stroke-width="1.16634" stroke-linecap="round" stroke-linejoin="round"/>
<path d="M210.024 119.816C210.024 119.816 210.615 120.297 210.601 120.531C213.143 121.905 218.983 124.433 228.465 124.942C235.19 125.174 241.848 123.543 247.703 120.228C247.703 119.528 247.703 119.115 247.703 119.102C247.47 112.959 242.907 108.864 237.26 107.298C231.708 105.769 225.812 106.063 220.44 108.136C217.715 109.163 215.312 110.894 213.473 113.151C212.772 113.921 209.062 119.047 210.024 119.816Z" fill="#4C4C4C" stroke="#58566D" stroke-width="1.16634" stroke-linecap="round" stroke-linejoin="round"/>
<path d="M210.628 120.16C216.489 121.456 222.506 121.896 228.493 121.465C239.774 120.943 247.621 120.16 247.621 120.16C242.436 125.02 235.744 127.959 228.657 128.487C225.196 128.712 221.734 128.068 218.585 126.614C215.436 125.159 212.701 122.941 210.628 120.16Z" fill="#4C4C4C" stroke="#58566D" stroke-width="1.16634" stroke-linecap="round" stroke-linejoin="round"/>
<path d="M181.826 199.009L183.654 212.146L197.849 215.554L212.291 209.783L211.247 197.951L181.826 199.009Z" fill="#58566D" stroke="#58566D" stroke-width="1.16634" stroke-linecap="round" stroke-linejoin="round"/>
<path d="M196.928 212.146C198.309 212.146 199.429 211.026 199.429 209.645C199.429 208.264 198.309 207.144 196.928 207.144C195.547 207.144 194.427 208.264 194.427 209.645C194.427 211.026 195.547 212.146 196.928 212.146Z" fill="#4C4C4C" stroke="#58566D" stroke-width="1.16634" stroke-linecap="round" stroke-linejoin="round"/>
<path d="M268.123 261.492H184.808V274.602H268.123V261.492Z" fill="#4C4C4C" stroke="#58566D" stroke-width="1.16634" stroke-linecap="round" stroke-linejoin="round"/>
<path d="M200.817 262.262H182.692C180.665 262.262 179.023 263.905 179.023 265.931V274.794C179.023 276.821 180.665 278.463 182.692 278.463H200.817C202.843 278.463 204.486 276.821 204.486 274.794V265.931C204.486 263.905 202.843 262.262 200.817 262.262Z" fill="#4C4C4C" stroke="#58566D" stroke-width="1.16634" stroke-linecap="round" stroke-linejoin="round"/>
<path d="M267.161 262.262H249.036C247.01 262.262 245.367 263.905 245.367 265.931V274.794C245.367 276.821 247.01 278.463 249.036 278.463H267.161C269.188 278.463 270.83 276.821 270.83 274.794V265.931C270.83 263.905 269.188 262.262 267.161 262.262Z" fill="#4C4C4C" stroke="#58566D" stroke-width="1.16634" stroke-linecap="round" stroke-linejoin="round"/>
<path d="M236.875 262.262H218.75V273.832H236.875V262.262Z" fill="white" stroke="#58566D" stroke-width="1.16634" stroke-linecap="round" stroke-linejoin="round"/>
<path d="M161.653 234.105C161.653 234.105 150.083 233.336 145.837 225.998" stroke="#58566D" stroke-width="1.16634" stroke-linecap="round" stroke-linejoin="round"/>
<path d="M290.302 200.164C300.852 200.164 309.403 191.181 309.403 180.101C309.403 169.02 300.852 160.038 290.302 160.038C279.753 160.038 271.202 169.02 271.202 180.101C271.202 191.181 279.753 200.164 290.302 200.164Z" fill="#BEB3FF" stroke="#58566D" stroke-width="1.16634" stroke-linecap="round" stroke-linejoin="round"/>
<path d="M290.302 183.344C298.56 183.344 305.253 177.345 305.253 169.946C305.253 162.546 298.56 156.548 290.302 156.548C282.045 156.548 275.352 162.546 275.352 169.946C275.352 177.345 282.045 183.344 290.302 183.344Z" fill="#BEB3FF" stroke="#58566D" stroke-width="1.16634" stroke-linecap="round" stroke-linejoin="round"/>
<path d="M290.302 173.491C298.56 173.491 305.253 167.492 305.253 160.093C305.253 152.693 298.56 146.695 290.302 146.695C282.045 146.695 275.352 152.693 275.352 160.093C275.352 167.492 282.045 173.491 290.302 173.491Z" fill="#CCCCCC" stroke="#58566D" stroke-width="1.16634" stroke-linecap="round" stroke-linejoin="round"/>
<path d="M266.282 131.208C266.282 131.208 266.543 150.968 267.546 156.795C268.549 162.621 272.617 170.22 278.196 170.22C281.912 170.129 285.591 169.447 289.093 168.2C289.093 168.2 295.675 171.746 302.01 170.729C308.345 169.712 307.328 160.849 307.328 156.987C307.328 153.126 306.572 124.557 306.572 124.557C306.572 124.557 307.081 121.809 304.539 121.273C303.292 120.992 302.023 120.822 300.746 120.764V114.677C300.278 113.98 299.629 113.423 298.869 113.067C298.109 112.711 297.266 112.569 296.431 112.657C293.147 112.657 292.886 113.413 292.886 113.413V107.834C292.886 107.834 290.137 103.395 286.551 105.552C285.828 105.967 285.219 106.555 284.778 107.262C284.337 107.969 284.077 108.774 284.022 109.606L283.761 114.938C283.761 114.938 277.688 112.657 277.179 116.202C276.671 119.748 275.654 141.597 275.654 141.597C275.294 138.161 274.618 134.766 273.634 131.455C272.37 128.157 266.282 128.157 266.282 131.208Z" fill="#CCCCCC" stroke="#58566D" stroke-width="1.16634" stroke-linecap="round" stroke-linejoin="round"/>
<path d="M283.761 114.993L284.27 138.299" stroke="#58566D" stroke-width="1.16634" stroke-linecap="round" stroke-linejoin="round"/>
<path d="M292.886 113.468L293.147 138.546" stroke="#58566D" stroke-width="1.16634" stroke-linecap="round" stroke-linejoin="round"/>
<path d="M300.746 120.82L300.237 138.299" stroke="#58566D" stroke-width="1.16634" stroke-linecap="round" stroke-linejoin="round"/>
<path d="M280.477 138.052L303.535 139.055" stroke="#58566D" stroke-width="1.16634" stroke-linecap="round" stroke-linejoin="round"/>
<path d="M275.654 141.597C275.661 142.553 275.889 143.495 276.32 144.348C276.752 145.202 277.375 145.944 278.141 146.516C280.642 148.083 286.276 152.15 286.894 158.719" stroke="#58566D" stroke-width="1.16634" stroke-linecap="round" stroke-linejoin="round"/>
<path d="M66.2727 516.056H46.6771L72.7999 333.966H92.3955L66.2727 516.056Z" fill="#58566D" stroke="#58566D" stroke-width="1.16634" stroke-miterlimit="10"/>
<path d="M105.464 516.056H125.046L98.9227 333.966H79.3409L105.464 516.056Z" fill="white" stroke="#58566D" stroke-width="1.16634" stroke-miterlimit="10"/>
<path d="M344.279 516.056H324.698L350.807 333.966H370.402L344.279 516.056Z" fill="#58566D" stroke="#58566D" stroke-width="1.16634" stroke-miterlimit="10"/>
<path d="M383.47 516.056H403.052L376.929 333.966H357.348L383.47 516.056Z" fill="white" stroke="#58566D" stroke-width="1.16634" stroke-miterlimit="10"/>
<path d="M397.157 305.41H23.4812V341.633H397.157V305.41Z" fill="#BEB3FF" stroke="#58566D" stroke-width="1.16634" stroke-miterlimit="10"/>
<path d="M406.268 305.41H32.5919V341.633H406.268V305.41Z" fill="#BEB3FF" stroke="#58566D" stroke-width="1.16634" stroke-miterlimit="10"/>
<path d="M38.7069 341.633H70.4226L86.8163 305.41H55.1007L38.7069 341.633Z" fill="#58566D"/>
<path d="M164.251 305.41H132.535L116.141 341.633H147.857L164.251 305.41Z" fill="#58566D"/>
<path d="M396.539 305.41H364.823L348.443 341.633H380.159L396.539 305.41Z" fill="#58566D"/>
<path d="M319.118 305.41H287.389L271.009 341.633H302.725L319.118 305.41Z" fill="#58566D"/>
<path d="M241.684 305.41H209.969L193.575 341.633H225.291L241.684 305.41Z" fill="#58566D"/>
<path d="M404.22 321.474H342.383" stroke="#58566D" stroke-width="1.16634" stroke-miterlimit="10"/>
<path d="M403.135 327.535H393.378" stroke="#58566D" stroke-width="1.16634" stroke-miterlimit="10"/>
<path d="M31.0116 326.023H92.8489" stroke="#58566D" stroke-width="1.16634" stroke-miterlimit="10"/>
<path d="M32.0973 319.207H110.205" stroke="#58566D" stroke-width="1.16634" stroke-miterlimit="10"/>
<path d="M508.258 508.113H402.255V516.069H508.258V508.113Z" fill="#58566D" stroke="#58566D" stroke-width="1.16634" stroke-linecap="round" stroke-linejoin="round"/>
<path d="M490.366 507.893H420.147L447.671 358.164H462.842L490.366 507.893Z" fill="#BEB3FF" stroke="#58566D" stroke-width="1.16634" stroke-linecap="round" stroke-linejoin="round"/>
<path d="M437.447 413.818H473.079L469.658 395.267H440.855L437.447 413.818Z" fill="white" stroke="#58566D" stroke-width="1.16634" stroke-linecap="round" stroke-linejoin="round"/>
<path d="M479.813 482.897L481.572 493.134" stroke="#58566D" stroke-width="1.16634" stroke-linecap="round" stroke-linejoin="round"/>
<path d="M459.764 366.437L477.601 470.021" stroke="#58566D" stroke-width="1.16634" stroke-linecap="round" stroke-linejoin="round"/>
<path d="M565.286 516.056H574.781" stroke="#58566D" stroke-width="1.16634" stroke-linecap="round" stroke-linejoin="round"/>
<path d="M1 516.056H552.025" stroke="#58566D" stroke-width="1.16634" stroke-linecap="round" stroke-linejoin="round"/>
<path d="M375.676 196.048V205.616H372.071L371.482 200H358.482L357.892 205.616H354.287V196.048H355.986C356.517 195.47 356.945 194.754 357.268 193.899C357.592 193.02 357.881 191.819 358.135 190.293C358.412 188.745 358.748 186.445 359.14 183.395L360.042 176.011H373.596V196.048H375.676ZM368.604 179.824H364.375L364.028 183.083C363.728 185.925 363.416 188.167 363.092 189.808C362.792 191.426 362.399 192.72 361.914 193.691C361.452 194.638 360.839 195.424 360.076 196.048H368.604V179.824ZM388.398 175.456C390.594 175.456 392.489 175.953 394.084 176.947C395.678 177.917 396.903 179.339 397.758 181.211C398.613 183.083 399.041 185.348 399.041 188.005C399.041 190.617 398.613 192.87 397.758 194.765C396.903 196.637 395.678 198.07 394.084 199.064C392.489 200.058 390.594 200.555 388.398 200.555C386.203 200.555 384.296 200.069 382.678 199.099C381.084 198.105 379.859 196.672 379.004 194.8C378.149 192.905 377.721 190.64 377.721 188.005C377.721 185.417 378.149 183.187 379.004 181.315C379.882 179.42 381.118 177.975 382.713 176.981C384.331 175.964 386.226 175.456 388.398 175.456ZM388.398 179.269C386.642 179.269 385.313 179.963 384.412 181.349C383.533 182.736 383.094 184.955 383.094 188.005C383.094 191.056 383.545 193.275 384.446 194.661C385.348 196.048 386.665 196.741 388.398 196.741C390.155 196.741 391.472 196.06 392.35 194.696C393.229 193.309 393.668 191.079 393.668 188.005C393.668 184.932 393.229 182.713 392.35 181.349C391.472 179.963 390.155 179.269 388.398 179.269ZM412.367 175.456C413.869 175.456 415.175 175.676 416.284 176.115C417.394 176.531 418.48 177.178 419.543 178.056L417.012 181.003C415.626 179.87 414.17 179.304 412.644 179.304C410.934 179.304 409.571 180.009 408.554 181.419C407.56 182.805 407.063 184.989 407.063 187.971C407.063 190.883 407.56 193.044 408.554 194.453C409.571 195.84 410.946 196.533 412.679 196.533C413.58 196.533 414.401 196.372 415.14 196.048C415.88 195.701 416.654 195.216 417.463 194.592L419.82 197.539C418.965 198.417 417.902 199.145 416.631 199.723C415.383 200.277 413.996 200.555 412.471 200.555C410.322 200.555 408.438 200.069 406.82 199.099C405.203 198.128 403.943 196.707 403.042 194.835C402.14 192.94 401.69 190.652 401.69 187.971C401.69 185.359 402.152 183.117 403.076 181.245C404.001 179.35 405.272 177.917 406.89 176.947C408.508 175.953 410.333 175.456 412.367 175.456ZM438.281 176.011L437.727 179.997H431.66V200H426.564V179.997H420.185V176.011H438.281ZM452.015 192.997C451.322 194.8 450.548 196.221 449.693 197.261C448.861 198.278 447.855 199.041 446.677 199.549C445.521 200.035 444.054 200.37 442.274 200.555L441.581 197.088C443.129 196.857 444.308 196.499 445.117 196.013C445.926 195.505 446.596 194.696 447.127 193.587H445.463L438.045 176.011H443.279L448.653 190.675L453.367 176.011H458.533L452.015 192.997ZM478.617 176.011V200H473.521V179.997H465.687V200H460.591V176.011H478.617Z" fill="#58566D"/>
<path d="M331.828 243.219C329.536 243.219 327.568 242.882 325.923 242.208C324.278 241.507 322.836 240.496 321.596 239.175L325.923 234.969C326.84 235.778 327.703 236.371 328.512 236.748C329.32 237.126 330.21 237.314 331.181 237.314C332.394 237.314 333.351 237.031 334.052 236.465C334.753 235.899 335.104 235.063 335.104 233.958C335.104 232.852 334.74 232.003 334.012 231.41C333.284 230.789 332.205 230.479 330.776 230.479H327.662L328.592 224.777H330.938C332.098 224.777 332.974 224.534 333.567 224.049C334.16 223.536 334.457 222.835 334.457 221.946C334.457 221.137 334.214 220.49 333.729 220.004C333.244 219.519 332.475 219.276 331.424 219.276C329.752 219.276 328.026 219.977 326.247 221.379L322.526 217.335C325.249 214.746 328.633 213.452 332.677 213.452C334.727 213.452 336.52 213.776 338.056 214.423C339.62 215.043 340.82 215.933 341.656 217.092C342.519 218.225 342.95 219.519 342.95 220.975C342.95 222.593 342.397 223.981 341.292 225.141C340.213 226.3 338.528 227.109 336.236 227.567C338.69 227.837 340.551 228.551 341.818 229.711C343.112 230.87 343.759 232.461 343.759 234.483C343.759 236.263 343.26 237.813 342.263 239.134C341.265 240.456 339.863 241.467 338.056 242.168C336.277 242.869 334.201 243.219 331.828 243.219ZM360.659 242.41L359.567 236.95H352.894L351.842 242.41H343.146L351.357 214.261H361.306L369.476 242.41H360.659ZM354.066 231.126H358.394L356.21 220.085L354.066 231.126ZM393.281 214.261V242.41H384.949V220.49H378.519V242.41H370.187V214.261H393.281ZM406.92 214.261C410.775 214.261 413.768 215.07 415.898 216.688C418.055 218.279 419.134 220.624 419.134 223.725C419.134 226.934 418.109 229.387 416.06 231.086C414.038 232.785 411.301 233.634 407.85 233.634H405.1V242.41H396.768V214.261H406.92ZM407.041 227.77C409.441 227.77 410.641 226.421 410.641 223.725C410.641 221.271 409.36 220.045 406.798 220.045H405.1V227.77H407.041ZM439.976 214.261L439.127 220.045H429.825V225.302H437.994V230.924H429.825V236.586H439.774V242.41H421.493V214.261H439.976ZM475.427 236.182H478.662V249.488H473.122L472.313 242.41H442.505V214.261H450.675V236.02H455.083V214.261H462.849V236.02H467.257V214.261H475.427V236.182ZM499.3 214.261L498.451 220.045H489.148V225.302H497.318V230.924H489.148V236.586H499.098V242.41H480.817V214.261H499.3ZM516.591 242.41V231.046H510.16V242.41H501.829V214.261H510.16V224.655H516.591V214.261H524.923V242.41H516.591Z" fill="#58566D"/>
</svg>
