<svg width="32" height="32" viewBox="0 0 32 32" fill="none" xmlns="http://www.w3.org/2000/svg">
<g opacity="0.2">
<path d="M2.51368 26.0668C-0.837896 24.4626 -0.837892 19.9269 2.51368 18.3227L13.9367 12.8553C15.2342 12.2343 16.7658 12.2343 18.0633 12.8553L29.4863 18.3227C32.8379 19.9269 32.8379 24.4626 29.4863 26.0668L18.0633 31.5342C16.7658 32.1553 15.2342 32.1552 13.9367 31.5342L2.51368 26.0668Z" fill="#755DFF"/>
</g>
<g opacity="0.5">
<path d="M2.51368 19.872C-0.837896 18.2678 -0.837892 13.7321 2.51368 12.128L13.9367 6.66053C15.2342 6.03951 16.7658 6.03951 18.0633 6.66053L29.4863 12.128C32.8379 13.7322 32.8379 18.2678 29.4863 19.872L18.0633 25.3395C16.7658 25.9605 15.2342 25.9605 13.9367 25.3395L2.51368 19.872Z" fill="#755DFF"/>
</g>
<path d="M2.51368 13.6773C-0.837896 12.0731 -0.837892 7.53738 2.51368 5.93321L13.9367 0.465767C15.2342 -0.155256 16.7658 -0.155255 18.0633 0.465767L29.4863 5.93321C32.8379 7.53739 32.8379 12.0731 29.4863 13.6773L18.0633 19.1447C16.7658 19.7657 15.2342 19.7657 13.9367 19.1447L2.51368 13.6773Z" fill="#755DFF"/>
</svg>
