<svg viewBox="0 0 40 40" fill="none" xmlns="http://www.w3.org/2000/svg">
<path d="M11.3781 1.45909C10.4613 0.556809 9.20387 0 7.81603 0C5.01089 0 2.73701 2.27388 2.73701 5.07894C2.73701 7.884 5.01097 10.1579 7.81595 10.1579L18.0887 11.037L17.2096 7.22336L11.3781 1.45909Z" fill="#FF3776"/>
<path d="M22.7903 7.22336L28.6219 1.45909C29.5387 0.556809 30.7961 0 32.184 0C34.989 0 37.2629 2.27388 37.2629 5.07894C37.2629 7.884 34.989 10.1579 32.184 10.1579L21.9111 11.037L22.7903 7.22336Z" fill="#FF3776"/>
<path d="M20 3.77393C18.0979 3.77393 16.5503 5.32146 16.5503 7.22361V11.9164H23.4496V7.22353C23.4496 5.32138 21.9022 3.77393 20 3.77393Z" fill="#FF709D"/>
<path d="M35.8518 17.1909H4.14735V40.0002H35.8518V17.1909Z" fill="#FFAA0E"/>
<path d="M2.38935 10.1582V18.9496H37.6107V10.1582H24.3957L20 12.7956L15.6043 10.1582H2.38935Z" fill="#FFD102"/>
<path d="M20 10.1582L18.2417 18.1788L20 28.6202L24.3957 31.2576V10.1582H20Z" fill="#E60048"/>
<path d="M15.6043 10.1582V31.2576L20 28.6202V10.1582H15.6043Z" fill="#FF3776"/>
<path d="M5.37441 5.73834C5.01026 5.73834 4.71502 5.4431 4.71502 5.07895C4.71502 3.36915 6.10607 1.97803 7.81595 1.97803C8.1801 1.97803 8.47534 2.27327 8.47534 2.63742C8.47534 3.00156 8.1801 3.29681 7.81595 3.29681C6.83327 3.29681 6.03372 4.09628 6.03372 5.07903C6.0338 5.4431 5.73856 5.73834 5.37441 5.73834Z" fill="white"/>
</svg>
