<svg viewBox="0 0 499 100" fill="none" xmlns="http://www.w3.org/2000/svg">
<path fill-rule="evenodd" clip-rule="evenodd" d="M313.13 31.345C310.486 30.6083 307.236 30.24 303.38 30.24C299.566 30.24 296.316 30.6083 293.63 31.345C290.986 32.0383 288.841 33.2517 287.195 34.985C285.548 36.7183 284.356 39.1017 283.62 42.135C282.883 45.125 282.515 48.9383 282.515 53.575C282.515 58.1683 282.883 61.9817 283.62 65.015C284.356 68.0483 285.548 70.4317 287.195 72.165C288.841 73.8983 290.986 75.1333 293.63 75.87C296.316 76.5633 299.566 76.91 303.38 76.91C307.236 76.91 310.486 76.5633 313.13 75.87C315.816 75.1333 317.983 73.8983 319.63 72.165C321.276 70.4317 322.468 68.0483 323.205 65.015C323.941 61.9817 324.31 58.1683 324.31 53.575C324.31 48.9383 323.941 45.125 323.205 42.135C322.468 39.1017 321.276 36.7183 319.63 34.985C317.983 33.2517 315.816 32.0383 313.13 31.345ZM299.675 41.745C300.541 41.0517 301.776 40.705 303.38 40.705C304.983 40.705 306.218 41.0517 307.085 41.745C307.951 42.4383 308.558 43.7167 308.905 45.58C309.251 47.4433 309.425 50.1083 309.425 53.575C309.425 57.0417 309.251 59.7067 308.905 61.57C308.558 63.4333 307.951 64.7117 307.085 65.405C306.218 66.0983 304.983 66.445 303.38 66.445C301.776 66.445 300.541 66.0983 299.675 65.405C298.808 64.7117 298.201 63.4333 297.855 61.57C297.508 59.7067 297.335 57.0417 297.335 53.575C297.335 50.1083 297.508 47.4433 297.855 45.58C298.201 43.7167 298.808 42.4383 299.675 41.745Z" fill="#755DFF"/>
<path d="M348.102 30.955C345.415 30.9117 342.815 30.89 340.302 30.89C337.182 30.89 334.625 31.8433 332.632 33.75C330.638 35.6133 329.642 38.0617 329.642 41.095V76H343.747V58.645H359.802V49.285H343.747V44.02C343.747 43.3267 343.985 42.7633 344.462 42.33C344.982 41.8967 345.675 41.68 346.542 41.68H362.207L362.857 31.8C360.82 31.4967 358.523 31.28 355.967 31.15C353.41 31.02 350.788 30.955 348.102 30.955Z" fill="#755DFF"/>
<path d="M385.426 30.955C382.739 30.9117 380.139 30.89 377.626 30.89C374.506 30.89 371.949 31.8433 369.956 33.75C367.962 35.6133 366.966 38.0617 366.966 41.095V76H381.071V58.645H397.126V49.285H381.071V44.02C381.071 43.3267 381.309 42.7633 381.786 42.33C382.306 41.8967 382.999 41.68 383.866 41.68H399.531L400.181 31.8C398.144 31.4967 395.847 31.28 393.291 31.15C390.734 31.02 388.112 30.955 385.426 30.955Z" fill="#755DFF"/>
<path d="M418.46 76V31.15H404.485V76H418.46Z" fill="#755DFF"/>
<path d="M450.329 30.565C448.682 30.435 446.689 30.37 444.349 30.37C439.409 30.37 435.444 31.1283 432.454 32.645C429.464 34.1183 427.297 36.545 425.954 39.925C424.654 43.305 424.004 47.855 424.004 53.575C424.004 59.295 424.654 63.845 425.954 67.225C427.297 70.605 429.464 73.0533 432.454 74.57C435.444 76.0433 439.409 76.78 444.349 76.78C447.859 76.78 450.784 76.6067 453.124 76.26C455.507 75.9567 457.825 75.415 460.079 74.635L459.039 64.365C456.872 64.5817 454.684 64.7333 452.474 64.82C450.307 64.8633 447.599 64.885 444.349 64.885C442.875 64.885 441.727 64.5817 440.904 63.975C440.124 63.325 439.582 62.1983 439.279 60.595C438.975 58.9483 438.824 56.6083 438.824 53.575C438.824 50.5417 438.975 48.2233 439.279 46.62C439.582 44.9733 440.124 43.8467 440.904 43.24C441.727 42.59 442.875 42.265 444.349 42.265C446.429 42.265 448.205 42.2867 449.679 42.33H453.839C455.139 42.33 456.547 42.3517 458.064 42.395L459.104 32.125C457.63 31.6917 456.2 31.3667 454.814 31.15C453.47 30.89 451.975 30.695 450.329 30.565Z" fill="#755DFF"/>
<path d="M482.859 30.955C480.129 30.9117 477.464 30.89 474.864 30.89C471.788 30.89 469.253 31.8433 467.259 33.75C465.309 35.6133 464.334 38.0617 464.334 41.095V66.055C464.334 69.0883 465.309 71.5583 467.259 73.465C469.253 75.3283 471.788 76.26 474.864 76.26C477.464 76.26 480.129 76.2383 482.859 76.195C485.633 76.195 488.341 76.13 490.984 76C493.628 75.87 496.033 75.675 498.199 75.415L497.549 65.47H481.104C480.281 65.47 479.631 65.2533 479.154 64.82C478.678 64.3867 478.439 63.8233 478.439 63.13V57.735H495.209V48.375H478.439V44.02C478.439 43.3267 478.678 42.7633 479.154 42.33C479.631 41.8967 480.281 41.68 481.104 41.68H497.549L498.199 31.735C496.033 31.4317 493.628 31.2367 490.984 31.15C488.341 31.02 485.633 30.955 482.859 30.955Z" fill="#755DFF"/>
<path fill-rule="evenodd" clip-rule="evenodd" d="M153.028 31.67C150.861 30.9767 147.936 30.63 144.253 30.63C142.043 30.63 140.115 30.6517 138.468 30.695C136.865 30.695 135.37 30.7383 133.983 30.825C132.64 30.8683 131.21 30.9767 129.693 31.15V76C131.383 76.13 133.008 76.2383 134.568 76.325C136.128 76.4117 137.818 76.455 139.638 76.455C141.501 76.4983 143.711 76.52 146.268 76.52C149.691 76.52 152.443 76.195 154.523 75.545C156.646 74.8517 158.185 73.66 159.138 71.97C160.091 70.28 160.568 67.8967 160.568 64.82C160.568 61.2233 159.896 58.4067 158.553 56.37C157.253 54.3333 154.935 53.1633 151.598 52.86V52.6C154.285 52.34 156.213 51.365 157.383 49.675C158.596 47.985 159.203 45.5367 159.203 42.33C159.203 39.2533 158.705 36.87 157.708 35.18C156.755 33.49 155.195 32.32 153.028 31.67ZM135.283 71.5679C135.514 71.572 135.752 71.576 135.998 71.58C138.685 71.6233 141.805 71.645 145.358 71.645C147.741 71.645 149.605 71.45 150.948 71.06C152.335 70.6267 153.31 69.8467 153.873 68.72C154.48 67.5933 154.783 65.9683 154.783 63.845C154.783 61.505 154.48 59.7067 153.873 58.45C153.266 57.1933 152.248 56.305 150.818 55.785C149.388 55.265 147.438 54.9833 144.968 54.94H135.283V71.5679ZM135.283 50.585H144.903C147.07 50.5417 148.781 50.325 150.038 49.935C151.338 49.5017 152.27 48.7433 152.833 47.66C153.396 46.5333 153.678 44.9733 153.678 42.98C153.678 40.9433 153.375 39.3833 152.768 38.3C152.161 37.2167 151.143 36.48 149.713 36.09C148.326 35.7 146.42 35.505 143.993 35.505H138.273C137.197 35.505 136.201 35.5138 135.283 35.5313V50.585Z" fill="#000003"/>
<path fill-rule="evenodd" clip-rule="evenodd" d="M188.916 31.605C188.526 31.3017 188.071 31.15 187.551 31.15H181.571C181.051 31.15 180.596 31.3017 180.206 31.605C179.816 31.865 179.556 32.2333 179.426 32.71L164.996 76H170.911L175.351 61.96H193.77L198.211 76H204.126L189.696 32.71C189.566 32.2333 189.306 31.865 188.916 31.605ZM192.208 57.02L186.576 39.21C186.402 38.6033 186.207 37.9967 185.991 37.39C185.817 36.74 185.644 36.1333 185.471 35.57H183.651C183.477 36.1333 183.304 36.74 183.131 37.39C182.957 37.9967 182.762 38.6033 182.546 39.21L176.913 57.02H192.208Z" fill="#000003"/>
<path d="M230.981 30.5C229.638 30.4133 228.013 30.37 226.106 30.37C221.816 30.37 218.371 31.1283 215.771 32.645C213.215 34.1183 211.351 36.545 210.181 39.925C209.055 43.305 208.491 47.855 208.491 53.575C208.491 59.295 209.055 63.845 210.181 67.225C211.351 70.605 213.215 73.0533 215.771 74.57C218.371 76.0433 221.816 76.78 226.106 76.78C229.053 76.78 231.501 76.65 233.451 76.39C235.445 76.1733 237.373 75.805 239.236 75.285L238.651 70.995C236.831 71.255 234.968 71.45 233.061 71.58C231.198 71.6667 228.88 71.71 226.106 71.71C223.203 71.71 220.906 71.1467 219.216 70.02C217.526 68.8933 216.313 67.0083 215.576 64.365C214.883 61.7217 214.536 58.125 214.536 53.575C214.536 49.025 214.883 45.4283 215.576 42.785C216.313 40.1417 217.526 38.2567 219.216 37.13C220.906 36.0033 223.203 35.44 226.106 35.44C227.84 35.44 229.335 35.4617 230.591 35.505C231.848 35.5483 233.018 35.6133 234.101 35.7C235.228 35.7867 236.441 35.895 237.741 36.025L238.326 31.67C237.113 31.3667 235.921 31.1283 234.751 30.955C233.625 30.7383 232.368 30.5867 230.981 30.5Z" fill="#000003"/>
<path d="M264.802 49.74L277.867 31.15H271.627L257.989 50.325H252.524C252.597 49.8414 252.66 49.3647 252.712 48.895C252.842 47.725 252.907 46.49 252.907 45.19V31.15H247.252V76H252.907V59.685C252.907 58.5583 252.82 57.3883 252.647 56.175C252.603 55.7633 252.553 55.3517 252.499 54.94H258.049L272.342 76H278.777L265.127 55.85C264.78 55.33 264.368 54.81 263.892 54.29C263.415 53.77 262.895 53.25 262.332 52.73V52.6C262.852 52.08 263.285 51.625 263.632 51.235C264.022 50.8017 264.412 50.3033 264.802 49.74Z" fill="#000003"/>
<g opacity="0.2">
<path d="M7.85525 81.4587C-2.61842 76.4456 -2.61841 62.2716 7.85526 57.2585L43.5522 40.1728C47.6069 38.2321 52.3931 38.2321 56.4478 40.1728L92.1448 57.2585C102.618 62.2716 102.618 76.4456 92.1447 81.4587L56.4478 98.5444C52.3931 100.485 47.6069 100.485 43.5522 98.5444L7.85525 81.4587Z" fill="#755DFF"/>
</g>
<g opacity="0.5">
<path d="M7.85525 62.1001C-2.61842 57.087 -2.61841 42.913 7.85526 37.8999L43.5522 20.8142C47.6069 18.8735 52.3931 18.8735 56.4478 20.8142L92.1448 37.8999C102.618 42.913 102.618 57.087 92.1447 62.1001L56.4478 79.1858C52.3931 81.1265 47.6069 81.1265 43.5522 79.1858L7.85525 62.1001Z" fill="#755DFF"/>
</g>
<path d="M7.85525 42.7414C-2.61842 37.7284 -2.61841 23.5543 7.85526 18.5413L43.5522 1.45552C47.6069 -0.485174 52.3931 -0.485173 56.4478 1.45552L92.1448 18.5413C102.618 23.5543 102.618 37.7284 92.1447 42.7414L56.4478 59.8272C52.3931 61.7679 47.6069 61.7679 43.5522 59.8272L7.85525 42.7414Z" fill="#755DFF"/>
</svg>
