<svg width="369" height="47" viewBox="0 0 369 47" fill="none" xmlns="http://www.w3.org/2000/svg">
<path fill-rule="evenodd" clip-rule="evenodd" d="M183.437 1.34499C180.793 0.608324 177.543 0.23999 173.687 0.23999C169.873 0.23999 166.623 0.608324 163.937 1.34499C161.293 2.03833 159.148 3.25166 157.502 4.98499C155.855 6.71833 154.663 9.10166 153.927 12.135C153.19 15.125 152.822 18.9383 152.822 23.575C152.822 28.1683 153.19 31.9817 153.927 35.015C154.663 38.0483 155.855 40.4317 157.502 42.165C159.148 43.8983 161.293 45.1333 163.937 45.87C166.623 46.5633 169.873 46.91 173.687 46.91C177.543 46.91 180.793 46.5633 183.437 45.87C186.123 45.1333 188.29 43.8983 189.937 42.165C191.583 40.4317 192.775 38.0483 193.512 35.015C194.248 31.9817 194.617 28.1683 194.617 23.575C194.617 18.9383 194.248 15.125 193.512 12.135C192.775 9.10166 191.583 6.71833 189.937 4.98499C188.29 3.25166 186.123 2.03833 183.437 1.34499ZM169.982 11.745C170.848 11.0517 172.083 10.705 173.687 10.705C175.29 10.705 176.525 11.0517 177.392 11.745C178.258 12.4383 178.865 13.7167 179.212 15.58C179.558 17.4433 179.732 20.1083 179.732 23.575C179.732 27.0417 179.558 29.7067 179.212 31.57C178.865 33.4333 178.258 34.7117 177.392 35.405C176.525 36.0983 175.29 36.445 173.687 36.445C172.083 36.445 170.848 36.0983 169.982 35.405C169.115 34.7117 168.508 33.4333 168.162 31.57C167.815 29.7067 167.642 27.0417 167.642 23.575C167.642 20.1083 167.815 17.4433 168.162 15.58C168.508 13.7167 169.115 12.4383 169.982 11.745Z" fill="#755DFF"/>
<path d="M218.409 0.954993C215.722 0.91166 213.122 0.889994 210.609 0.889994C207.489 0.889994 204.932 1.84333 202.939 3.74999C200.945 5.61332 199.949 8.06166 199.949 11.095V46H214.054V28.645H230.109V19.285H214.054V14.02C214.054 13.3267 214.292 12.7633 214.769 12.33C215.289 11.8967 215.982 11.68 216.849 11.68H232.514L233.164 1.79999C231.127 1.49666 228.83 1.27999 226.274 1.14999C223.717 1.01999 221.095 0.954993 218.409 0.954993Z" fill="#755DFF"/>
<path d="M255.733 0.954993C253.046 0.91166 250.446 0.889994 247.933 0.889994C244.813 0.889994 242.256 1.84333 240.263 3.74999C238.269 5.61332 237.273 8.06166 237.273 11.095V46H251.378V28.645H267.433V19.285H251.378V14.02C251.378 13.3267 251.616 12.7633 252.093 12.33C252.613 11.8967 253.306 11.68 254.173 11.68H269.838L270.488 1.79999C268.451 1.49666 266.154 1.27999 263.598 1.14999C261.041 1.01999 258.419 0.954993 255.733 0.954993Z" fill="#755DFF"/>
<path d="M288.767 46V1.14999H274.792V46H288.767Z" fill="#755DFF"/>
<path d="M320.636 0.56499C318.989 0.434992 316.996 0.369993 314.656 0.369993C309.716 0.369993 305.751 1.12833 302.761 2.64499C299.771 4.11833 297.604 6.54499 296.261 9.92499C294.961 13.305 294.311 17.855 294.311 23.575C294.311 29.295 294.961 33.845 296.261 37.225C297.604 40.605 299.771 43.0533 302.761 44.57C305.751 46.0433 309.716 46.78 314.656 46.78C318.166 46.78 321.091 46.6067 323.431 46.26C325.814 45.9567 328.132 45.415 330.386 44.635L329.346 34.365C327.179 34.5817 324.991 34.7333 322.781 34.82C320.614 34.8633 317.906 34.885 314.656 34.885C313.182 34.885 312.034 34.5817 311.211 33.975C310.431 33.325 309.889 32.1983 309.586 30.595C309.282 28.9483 309.131 26.6083 309.131 23.575C309.131 20.5417 309.282 18.2233 309.586 16.62C309.889 14.9733 310.431 13.8467 311.211 13.24C312.034 12.59 313.182 12.265 314.656 12.265C316.736 12.265 318.512 12.2867 319.986 12.33H324.146C325.446 12.33 326.854 12.3517 328.371 12.395L329.411 2.12499C327.937 1.69166 326.507 1.36666 325.121 1.14999C323.777 0.889991 322.282 0.694991 320.636 0.56499Z" fill="#755DFF"/>
<path d="M353.166 0.954993C350.436 0.91166 347.771 0.889994 345.171 0.889994C342.095 0.889994 339.56 1.84333 337.566 3.74999C335.616 5.61332 334.641 8.06166 334.641 11.095V36.055C334.641 39.0883 335.616 41.5583 337.566 43.465C339.56 45.3283 342.095 46.26 345.171 46.26C347.771 46.26 350.436 46.2383 353.166 46.195C355.94 46.195 358.648 46.13 361.291 46C363.935 45.87 366.34 45.675 368.506 45.415L367.856 35.47H351.411C350.588 35.47 349.938 35.2533 349.461 34.82C348.985 34.3867 348.746 33.8233 348.746 33.13V27.735H365.516V18.375H348.746V14.02C348.746 13.3267 348.985 12.7633 349.461 12.33C349.938 11.8967 350.588 11.68 351.411 11.68H367.856L368.506 1.73499C366.34 1.43166 363.935 1.23666 361.291 1.14999C358.648 1.01999 355.94 0.954993 353.166 0.954993Z" fill="#755DFF"/>
<path fill-rule="evenodd" clip-rule="evenodd" d="M23.335 1.66999C21.1683 0.976662 18.2433 0.629995 14.56 0.629995C12.35 0.629995 10.4217 0.651661 8.77501 0.694994C7.17166 0.694994 5.67667 0.738327 4.29001 0.824993C2.94667 0.868328 1.51666 0.976662 0 1.14999V46C1.69 46.13 3.315 46.2383 4.875 46.325C6.435 46.4117 8.125 46.455 9.94501 46.455C11.8083 46.4983 14.0183 46.52 16.575 46.52C19.9983 46.52 22.75 46.195 24.83 45.545C26.9533 44.8517 28.4917 43.66 29.445 41.97C30.3983 40.28 30.875 37.8967 30.875 34.82C30.875 31.2233 30.2033 28.4067 28.86 26.37C27.56 24.3333 25.2417 23.1633 21.905 22.86V22.6C24.5917 22.34 26.52 21.365 27.69 19.675C28.9033 17.985 29.51 15.5367 29.51 12.33C29.51 9.25333 29.0117 6.87 28.015 5.18C27.0617 3.48999 25.5017 2.31999 23.335 1.66999ZM5.59 41.5679C5.82103 41.5719 6.05937 41.576 6.30501 41.58C8.99167 41.6233 12.1117 41.645 15.665 41.645C18.0483 41.645 19.9117 41.45 21.255 41.06C22.6417 40.6267 23.6167 39.8467 24.18 38.72C24.7867 37.5933 25.09 35.9683 25.09 33.845C25.09 31.505 24.7867 29.7067 24.18 28.45C23.5733 27.1933 22.555 26.305 21.125 25.785C19.695 25.265 17.745 24.9833 15.275 24.94H5.59V41.5679ZM5.59 20.585H15.21C17.3767 20.5417 19.0883 20.325 20.345 19.935C21.645 19.5017 22.5767 18.7433 23.14 17.66C23.7033 16.5333 23.985 14.9733 23.985 12.98C23.985 10.9433 23.6817 9.38333 23.075 8.29999C22.4683 7.21666 21.45 6.48 20.02 6.09C18.6333 5.69999 16.7267 5.50499 14.3 5.50499H8.58C7.50433 5.50499 6.50766 5.51377 5.59 5.53133V20.585Z" fill="#000003"/>
<path fill-rule="evenodd" clip-rule="evenodd" d="M59.2226 1.60499C58.8326 1.30166 58.3776 1.14999 57.8576 1.14999H51.8776C51.3576 1.14999 50.9026 1.30166 50.5126 1.60499C50.1226 1.86499 49.8626 2.23333 49.7326 2.71L35.3026 46H41.2176L45.6578 31.96H64.0774L68.5176 46H74.4326L60.0026 2.71C59.8726 2.23333 59.6126 1.86499 59.2226 1.60499ZM62.5151 27.02L56.8826 9.20999C56.7093 8.60332 56.5143 7.99666 56.2976 7.38999C56.1243 6.73999 55.951 6.13333 55.7776 5.56999H53.9576C53.7843 6.13333 53.6109 6.73999 53.4376 7.38999C53.2643 7.99666 53.0693 8.60332 52.8526 9.20999L47.2201 27.02H62.5151Z" fill="#000003"/>
<path d="M101.288 0.499992C99.9449 0.413328 98.3199 0.369995 96.4133 0.369995C92.1233 0.369995 88.6783 1.12833 86.0783 2.64499C83.5216 4.11833 81.6583 6.54499 80.4883 9.925C79.3616 13.305 78.7983 17.855 78.7983 23.575C78.7983 29.295 79.3616 33.845 80.4883 37.225C81.6583 40.605 83.5216 43.0533 86.0783 44.57C88.6783 46.0433 92.1233 46.78 96.4133 46.78C99.36 46.78 101.808 46.65 103.758 46.39C105.752 46.1733 107.68 45.805 109.543 45.285L108.958 40.995C107.138 41.255 105.275 41.45 103.368 41.58C101.505 41.6667 99.1866 41.71 96.4133 41.71C93.5099 41.71 91.2133 41.1467 89.5233 40.02C87.8333 38.8933 86.6199 37.0083 85.8833 34.365C85.19 31.7217 84.8433 28.125 84.8433 23.575C84.8433 19.025 85.19 15.4283 85.8833 12.785C86.6199 10.1417 87.8333 8.25666 89.5233 7.12999C91.2133 6.00333 93.5099 5.43999 96.4133 5.43999C98.1466 5.43999 99.6416 5.46166 100.898 5.50499C102.155 5.54833 103.325 5.61333 104.408 5.7C105.535 5.78666 106.748 5.89499 108.048 6.02499L108.633 1.66999C107.42 1.36666 106.228 1.12833 105.058 0.954994C103.932 0.738329 102.675 0.58666 101.288 0.499992Z" fill="#000003"/>
<path d="M135.109 19.74L148.174 1.14999H141.934L128.295 20.325H122.831C122.904 19.8413 122.966 19.3647 123.019 18.895C123.149 17.725 123.214 16.49 123.214 15.19V1.14999H117.559V46H123.214V29.685C123.214 28.5583 123.127 27.3883 122.954 26.175C122.909 25.7633 122.86 25.3517 122.806 24.94H128.356L142.649 46H149.084L135.434 25.85C135.087 25.33 134.675 24.81 134.199 24.29C133.722 23.77 133.202 23.25 132.639 22.73V22.6C133.159 22.08 133.592 21.625 133.939 21.235C134.329 20.8017 134.719 20.3033 135.109 19.74Z" fill="#000003"/>
</svg>
