<svg width="100" height="100" viewBox="0 0 100 100" fill="none" xmlns="http://www.w3.org/2000/svg">
<g opacity="0.2">
<path d="M7.85525 81.4587C-2.61842 76.4456 -2.61841 62.2716 7.85526 57.2585L43.5522 40.1728C47.6069 38.2321 52.3931 38.2321 56.4478 40.1728L92.1448 57.2585C102.618 62.2716 102.618 76.4456 92.1447 81.4587L56.4478 98.5444C52.3931 100.485 47.6069 100.485 43.5522 98.5444L7.85525 81.4587Z" fill="#755DFF"/>
</g>
<g opacity="0.5">
<path d="M7.85525 62.1001C-2.61842 57.087 -2.61841 42.913 7.85526 37.8999L43.5522 20.8142C47.6069 18.8735 52.3931 18.8735 56.4478 20.8142L92.1448 37.8999C102.618 42.913 102.618 57.087 92.1447 62.1001L56.4478 79.1858C52.3931 81.1265 47.6069 81.1265 43.5522 79.1858L7.85525 62.1001Z" fill="#755DFF"/>
</g>
<path d="M7.85525 42.7414C-2.61842 37.7284 -2.61841 23.5543 7.85526 18.5413L43.5522 1.45552C47.6069 -0.485174 52.3931 -0.485173 56.4478 1.45552L92.1448 18.5413C102.618 23.5543 102.618 37.7284 92.1447 42.7414L56.4478 59.8272C52.3931 61.7679 47.6069 61.7679 43.5522 59.8272L7.85525 42.7414Z" fill="#755DFF"/>
</svg>
